<svg width="258" height="119" viewBox="0 0 258 119" fill="none" xmlns="http://www.w3.org/2000/svg">
<circle cx="51" cy="46" r="45" fill="white" stroke="#141E27" stroke-dasharray="12 6"/>
<path d="M3.41602 113C1.4502 113 0.467285 112.15 0.467285 110.449C0.467285 109.668 0.700033 109.027 1.16553 108.526C1.68831 107.967 2.42773 107.688 3.38379 107.688C4.24674 107.688 5.01302 107.815 5.68262 108.069V111.856H6.75684V113H3.41602ZM4.27539 109.031C3.99609 108.898 3.64697 108.832 3.22803 108.832C2.8234 108.832 2.50293 108.972 2.2666 109.251C2.03385 109.523 1.91748 109.878 1.91748 110.314C1.91748 111.342 2.46891 111.856 3.57178 111.856H4.27539V109.031ZM4.15186 106.995C3.94775 106.995 3.77588 106.922 3.63623 106.775C3.49658 106.632 3.42676 106.456 3.42676 106.249C3.42676 106.041 3.49658 105.864 3.63623 105.717C3.77946 105.57 3.95133 105.497 4.15186 105.497C4.35596 105.497 4.52783 105.57 4.66748 105.717C4.80713 105.86 4.87695 106.037 4.87695 106.249C4.87695 106.453 4.80713 106.628 4.66748 106.775C4.52783 106.922 4.35596 106.995 4.15186 106.995ZM2.32568 106.995C2.12158 106.995 1.94971 106.922 1.81006 106.775C1.67041 106.632 1.60059 106.456 1.60059 106.249C1.60059 106.041 1.67041 105.864 1.81006 105.717C1.95329 105.57 2.12516 105.497 2.32568 105.497C2.53337 105.497 2.70882 105.57 2.85205 105.717C2.9917 105.86 3.06152 106.037 3.06152 106.249C3.06152 106.453 2.9917 106.628 2.85205 106.775C2.70882 106.922 2.53337 106.995 2.32568 106.995ZM6.5957 111.856H8.66357V107.828H10.1138V113H6.5957V111.856ZM10.0815 114.649C10.0815 114.853 10.0117 115.028 9.87207 115.175C9.72884 115.322 9.55697 115.396 9.35645 115.396C9.15234 115.396 8.98047 115.324 8.84082 115.181C8.70117 115.037 8.63135 114.86 8.63135 114.649C8.63135 114.445 8.70117 114.269 8.84082 114.123C8.98405 113.976 9.15592 113.902 9.35645 113.902C9.56055 113.902 9.73242 113.974 9.87207 114.117C10.0117 114.264 10.0815 114.441 10.0815 114.649ZM8.26611 114.649C8.26611 114.857 8.19629 115.032 8.05664 115.175C7.91341 115.322 7.73796 115.396 7.53027 115.396C7.32617 115.396 7.1543 115.324 7.01465 115.181C6.875 115.037 6.80518 114.86 6.80518 114.649C6.80518 114.445 6.875 114.269 7.01465 114.123C7.15788 113.976 7.32975 113.902 7.53027 113.902C7.73796 113.902 7.91341 113.974 8.05664 114.117C8.19629 114.264 8.26611 114.441 8.26611 114.649ZM13.2881 115.771C12.7367 115.771 12.1781 115.723 11.6123 115.626L11.7036 114.439C12.2765 114.565 12.8477 114.627 13.417 114.627C14.6882 114.627 15.3237 114.14 15.3237 113.167V113H14.4644C12.4985 113 11.5156 112.15 11.5156 110.449C11.5156 109.668 11.7484 109.027 12.2139 108.526C12.7367 107.967 13.4761 107.688 14.4321 107.688C15.2951 107.688 16.0614 107.815 16.731 108.069V111.856H17.8052V113H16.731V113.021C16.731 113.838 16.4642 114.486 15.9307 114.966C15.3363 115.503 14.4554 115.771 13.2881 115.771ZM15.3237 109.031C15.0444 108.898 14.6953 108.832 14.2764 108.832C13.8717 108.832 13.5513 108.972 13.3149 109.251C13.0822 109.523 12.9658 109.878 12.9658 110.314C12.9658 111.342 13.5173 111.856 14.6201 111.856H15.3237V109.031ZM17.6494 113V111.856H18.5625C18.7594 111.856 18.9313 111.874 19.0781 111.91C18.8883 111.734 18.7935 111.5 18.7935 111.206C18.7935 110.658 18.9797 110.216 19.3521 109.879C19.7352 109.532 20.2526 109.358 20.9043 109.358C21.6025 109.358 22.1253 109.577 22.4727 110.014C22.777 110.4 22.9292 110.93 22.9292 111.604V111.856H24.041V111.722C24.041 110.576 23.7957 109.733 23.3052 109.192C22.8039 108.644 22.0107 108.37 20.9258 108.37C20.1631 108.37 19.3789 108.503 18.5732 108.768L18.439 107.731C19.3234 107.444 20.2114 107.301 21.103 107.301C23.9855 107.301 25.4268 108.809 25.4268 111.824V111.856H26.2378V113H17.6494ZM21.7422 111.582C21.7422 110.708 21.4307 110.271 20.8076 110.271C20.2562 110.271 19.9805 110.524 19.9805 111.029C19.9805 111.609 20.326 111.899 21.0171 111.899H21.7422V111.582ZM26.0713 111.856H27.4355V105.244H28.8857V111.856H29.9868V113H26.0713V111.856ZM29.8203 111.856H31.1846V105.244H32.6348V113H29.8203V111.856ZM40.3047 113C38.8688 113 37.8215 112.708 37.1626 112.125C36.5646 111.598 36.2656 110.805 36.2656 109.745C36.2656 109.115 36.3605 108.538 36.5503 108.016L38.1025 107.763C37.8519 108.311 37.7266 108.916 37.7266 109.579C37.7266 110.377 37.9253 110.95 38.3228 111.297C38.7417 111.67 39.4525 111.856 40.4551 111.856H41.207V107.897C41.8874 107.758 42.6232 107.688 43.4146 107.688C44.3384 107.688 45.0044 107.905 45.4126 108.338C45.7743 108.725 45.9551 109.317 45.9551 110.116V111.856H46.8789V113H44.5479V110.271C44.5479 109.742 44.4583 109.369 44.2793 109.154C44.1003 108.939 43.7834 108.832 43.3286 108.832C43.0851 108.832 42.8434 108.854 42.6035 108.896V113H40.3047ZM41.6689 114.649C41.6689 114.853 41.5973 115.028 41.4541 115.175C41.3145 115.322 41.1426 115.396 40.9385 115.396C40.738 115.396 40.5661 115.324 40.4229 115.181C40.2832 115.037 40.2134 114.86 40.2134 114.649C40.2134 114.445 40.2832 114.269 40.4229 114.123C40.5661 113.976 40.738 113.902 40.9385 113.902C41.1426 113.902 41.3145 113.974 41.4541 114.117C41.5973 114.264 41.6689 114.441 41.6689 114.649ZM39.8535 114.649C39.8535 114.857 39.7819 115.032 39.6387 115.175C39.4954 115.322 39.32 115.396 39.1123 115.396C38.9118 115.396 38.7399 115.324 38.5967 115.181C38.457 115.037 38.3872 114.86 38.3872 114.649C38.3872 114.445 38.457 114.269 38.5967 114.123C38.7399 113.976 38.9118 113.902 39.1123 113.902C39.3236 113.902 39.499 113.974 39.6387 114.117C39.7819 114.264 39.8535 114.441 39.8535 114.649ZM46.7178 111.856H47.1797C47.4089 111.856 47.6326 111.874 47.8511 111.91C47.5145 111.562 47.3462 111.068 47.3462 110.427C47.3462 109.629 47.604 108.973 48.1196 108.461C48.6388 107.946 49.312 107.688 50.1392 107.688C50.9448 107.688 51.5679 107.896 52.0083 108.311C52.4702 108.751 52.7012 109.398 52.7012 110.25C52.7012 110.998 52.4881 111.552 52.062 111.91C52.37 111.874 52.6493 111.856 52.8999 111.856H53.4854V113H46.7178V111.856ZM50.0156 111.856C50.3809 111.856 50.6709 111.729 50.8857 111.475C51.1221 111.202 51.2402 110.819 51.2402 110.325C51.2402 109.33 50.8392 108.832 50.0371 108.832C49.6934 108.832 49.4087 108.948 49.1831 109.181C48.9253 109.446 48.7964 109.82 48.7964 110.304C48.7964 111.339 49.2028 111.856 50.0156 111.856ZM50.0371 106.861C49.8294 106.861 49.6522 106.789 49.5054 106.646C49.355 106.496 49.2798 106.315 49.2798 106.104C49.2798 105.896 49.355 105.717 49.5054 105.566C49.6522 105.42 49.8294 105.346 50.0371 105.346C50.2484 105.346 50.4274 105.42 50.5742 105.566C50.7246 105.717 50.7998 105.896 50.7998 106.104C50.7998 106.311 50.7246 106.49 50.5742 106.641C50.4274 106.787 50.2484 106.861 50.0371 106.861ZM53.3135 111.856H54.6777V105.244H56.1279V111.856H57.229V113H53.3135V111.856ZM57.0625 111.856H61.3218C61.3576 111.562 61.3755 111.283 61.3755 111.018C61.3755 110.302 61.2144 109.776 60.8921 109.439C60.5483 109.084 59.9897 108.907 59.2163 108.907C58.8081 108.907 58.3874 108.938 57.9541 108.999V107.865C58.4697 107.797 58.9388 107.763 59.3613 107.763C60.5752 107.763 61.4596 108.034 62.0146 108.574C62.5482 109.09 62.8149 109.887 62.8149 110.964C62.8149 111.276 62.8006 111.573 62.772 111.856H63.6313V113H57.0625V111.856ZM59.6675 106.904C59.4598 106.904 59.2826 106.832 59.1357 106.689C58.9854 106.542 58.9102 106.361 58.9102 106.146C58.9102 105.939 58.9854 105.76 59.1357 105.609C59.2826 105.463 59.4598 105.389 59.6675 105.389C59.8787 105.389 60.0578 105.463 60.2046 105.609C60.355 105.76 60.4302 105.939 60.4302 106.146C60.4302 106.354 60.355 106.533 60.2046 106.684C60.0578 106.83 59.8787 106.904 59.6675 106.904ZM63.4648 111.856H64.8291V105.244H66.2793V113H63.4648V111.856ZM68.1484 105.244H69.5986V113H68.1484V105.244ZM76.0439 113C74.0781 113 73.0952 112.15 73.0952 110.449C73.0952 109.668 73.328 109.027 73.7935 108.526C74.3162 107.967 75.0557 107.688 76.0117 107.688C76.8747 107.688 77.641 107.815 78.3105 108.069V111.856H79.3848V113H76.0439ZM76.9033 109.031C76.624 108.898 76.2749 108.832 75.856 108.832C75.4513 108.832 75.1309 108.972 74.8945 109.251C74.6618 109.523 74.5454 109.878 74.5454 110.314C74.5454 111.342 75.0968 111.856 76.1997 111.856H76.9033V109.031ZM79.2236 111.856H83.4829C83.5187 111.562 83.5366 111.283 83.5366 111.018C83.5366 110.302 83.3755 109.776 83.0532 109.439C82.7095 109.084 82.1509 108.907 81.3774 108.907C80.9692 108.907 80.5485 108.938 80.1152 108.999V107.865C80.6309 107.797 81.0999 107.763 81.5225 107.763C82.7363 107.763 83.6208 108.034 84.1758 108.574C84.7093 109.09 84.9761 109.887 84.9761 110.964C84.9761 111.573 84.9134 112.252 84.7881 113H79.2236V111.856ZM81.8286 115.412C81.6209 115.412 81.4437 115.338 81.2969 115.191C81.1465 115.045 81.0713 114.864 81.0713 114.649C81.0713 114.441 81.1465 114.262 81.2969 114.112C81.4437 113.965 81.6209 113.892 81.8286 113.892C82.0399 113.892 82.2189 113.965 82.3657 114.112C82.5161 114.259 82.5913 114.438 82.5913 114.649C82.5913 114.86 82.5161 115.039 82.3657 115.186C82.2189 115.336 82.0399 115.412 81.8286 115.412ZM87.5703 115.771C87.0189 115.771 86.4603 115.723 85.8945 115.626L85.9858 114.439C86.5588 114.565 87.1299 114.627 87.6992 114.627C88.9704 114.627 89.606 114.14 89.606 113.167V113H88.7466C86.7808 113 85.7979 112.15 85.7979 110.449C85.7979 109.668 86.0306 109.027 86.4961 108.526C87.0189 107.967 87.7583 107.688 88.7144 107.688C89.5773 107.688 90.3436 107.815 91.0132 108.069V111.856H92.0874V113H91.0132V113.021C91.0132 113.838 90.7464 114.486 90.2129 114.966C89.6185 115.503 88.7376 115.771 87.5703 115.771ZM89.606 109.031C89.3267 108.898 88.9775 108.832 88.5586 108.832C88.154 108.832 87.8335 108.972 87.5972 109.251C87.3644 109.523 87.248 109.878 87.248 110.314C87.248 111.342 87.7995 111.856 88.9023 111.856H89.606V109.031ZM91.9316 111.856H93.2959V105.244H94.7461V113H91.9316V111.856ZM96.6152 105.244H98.0654V113H96.6152V105.244Z" fill="#1B3E5D"/>
<path d="M135.394 28.2441H136.409V35.1943H137.585V36H136.377C136.176 37.6937 135.281 38.5405 133.691 38.5405C131.887 38.5405 130.984 37.5182 130.984 35.4736C130.984 34.7539 131.076 34.0575 131.258 33.3843L132.306 33.1855C132.098 33.8981 131.994 34.6268 131.994 35.3716C131.994 36.9507 132.592 37.7402 133.788 37.7402C134.859 37.7402 135.394 36.974 135.394 35.4414V28.2441ZM137.419 35.1943H140.948C140.933 34.138 140.69 33.3109 140.217 32.7129C139.766 32.14 139.05 31.7139 138.069 31.4346V30.688L142.237 28.0669V29.0928L139.245 30.9297C140.119 31.2878 140.769 31.7819 141.195 32.4121C141.667 33.1068 141.92 34.0342 141.952 35.1943H142.962V36H137.419V35.1943ZM150.095 36C149.393 36 148.883 35.9391 148.564 35.8174C148.231 35.6921 147.986 35.4593 147.828 35.1191C147.585 35.7565 147.031 36.0752 146.168 36.0752C145.395 36.0752 144.921 35.7601 144.745 35.1299C144.534 35.71 144.043 36 143.273 36H142.801V35.1943H143.273C143.682 35.1943 143.97 35.0887 144.138 34.8774C144.317 34.6519 144.407 34.2562 144.407 33.6904V31.4883H145.417V33.4917C145.417 34.147 145.461 34.5856 145.551 34.8076C145.676 35.1191 145.939 35.2749 146.34 35.2749C147.096 35.2749 147.474 34.6841 147.474 33.5024V31.0479H148.457V33.8677C148.457 34.4263 148.575 34.7933 148.811 34.9688C149.019 35.1191 149.436 35.1943 150.062 35.1943H150.422C150.483 34.693 150.514 34.1846 150.514 33.6689C150.514 32.5732 150.392 31.5617 150.148 30.6343L151.126 30.457C151.391 31.3988 151.523 32.439 151.523 33.5776C151.523 34.0288 151.498 34.5677 151.448 35.1943H152.657V36H150.095ZM147.114 29.8179C146.949 29.8179 146.811 29.7624 146.7 29.6514C146.586 29.5368 146.528 29.3936 146.528 29.2217C146.528 29.0641 146.586 28.9281 146.7 28.8135C146.811 28.6989 146.949 28.6416 147.114 28.6416C147.278 28.6416 147.416 28.6971 147.527 28.8081C147.638 28.9191 147.694 29.057 147.694 29.2217C147.694 29.39 147.638 29.5314 147.527 29.646C147.416 29.7606 147.278 29.8179 147.114 29.8179ZM148.741 29.8179C148.576 29.8179 148.439 29.7624 148.328 29.6514C148.213 29.5368 148.156 29.3936 148.156 29.2217C148.156 29.0641 148.213 28.9281 148.328 28.8135C148.439 28.6989 148.576 28.6416 148.741 28.6416C148.902 28.6416 149.038 28.6971 149.149 28.8081C149.264 28.9227 149.321 29.0605 149.321 29.2217C149.321 29.3864 149.264 29.5278 149.149 29.646C149.038 29.7606 148.902 29.8179 148.741 29.8179ZM147.925 28.5073C147.767 28.5073 147.635 28.4536 147.527 28.3462C147.42 28.2388 147.366 28.1063 147.366 27.9487C147.366 27.7876 147.42 27.6515 147.527 27.5405C147.635 27.4295 147.767 27.374 147.925 27.374C148.079 27.374 148.209 27.4295 148.317 27.5405C148.424 27.6515 148.478 27.7876 148.478 27.9487C148.478 28.1027 148.424 28.2352 148.317 28.3462C148.209 28.4536 148.079 28.5073 147.925 28.5073ZM152.501 35.1943H154.107V30.8276H155.117V36H152.501V35.1943ZM153.876 38.2451C153.711 38.2451 153.572 38.1878 153.457 38.0732C153.339 37.9587 153.28 37.8172 153.28 37.6489C153.28 37.4842 153.339 37.3446 153.457 37.23C153.572 37.1154 153.711 37.0581 153.876 37.0581C154.044 37.0581 154.186 37.1136 154.3 37.2246C154.422 37.3392 154.483 37.4806 154.483 37.6489C154.483 37.8136 154.422 37.9551 154.3 38.0732C154.182 38.1878 154.041 38.2451 153.876 38.2451ZM161.616 36C159.693 36 158.731 35.146 158.731 33.438C158.731 32.6574 158.962 32.0182 159.424 31.5205C159.922 30.9798 160.608 30.7095 161.481 30.7095C163.05 30.7095 163.834 31.5312 163.834 33.1748V36H161.616ZM162.846 33.3467C162.846 32.1221 162.362 31.5098 161.396 31.5098C160.887 31.5098 160.486 31.6781 160.192 32.0146C159.899 32.3405 159.752 32.7809 159.752 33.3359C159.752 34.5749 160.42 35.1943 161.755 35.1943H162.846V33.3467ZM162.228 29.8179C162.063 29.8179 161.924 29.7624 161.809 29.6514C161.694 29.5368 161.637 29.3936 161.637 29.2217C161.637 29.0641 161.694 28.9281 161.809 28.8135C161.924 28.6989 162.063 28.6416 162.228 28.6416C162.389 28.6416 162.525 28.6971 162.636 28.8081C162.747 28.9227 162.803 29.0605 162.803 29.2217C162.803 29.39 162.747 29.5314 162.636 29.646C162.525 29.7606 162.389 29.8179 162.228 29.8179ZM160.601 29.8179C160.436 29.8179 160.298 29.7624 160.187 29.6514C160.076 29.5368 160.021 29.3936 160.021 29.2217C160.021 29.0641 160.076 28.9281 160.187 28.8135C160.298 28.6989 160.436 28.6416 160.601 28.6416C160.762 28.6416 160.9 28.6971 161.014 28.8081C161.129 28.9227 161.186 29.0605 161.186 29.2217C161.186 29.3864 161.129 29.5278 161.014 29.646C160.9 29.7606 160.762 29.8179 160.601 29.8179ZM165.338 35.1943H168.867C168.852 34.181 168.63 33.3825 168.201 32.7988C167.764 32.208 167.062 31.764 166.095 31.4668L166.348 30.6074C167.533 30.9762 168.401 31.508 168.953 32.2026C169.533 32.9331 169.839 33.9303 169.871 35.1943H170.714V36H165.338V35.1943ZM170.569 35.1943H175.113C175.163 34.7467 175.188 34.3708 175.188 34.0664C175.188 33.207 175.013 32.5858 174.662 32.2026C174.286 31.7944 173.66 31.5903 172.782 31.5903C172.345 31.5903 171.937 31.6154 171.558 31.6655V30.876C171.944 30.8151 172.381 30.7847 172.868 30.7847C174.046 30.7847 174.902 31.0568 175.436 31.6011C175.94 32.1167 176.193 32.9116 176.193 33.9858C176.193 34.6232 176.134 35.2946 176.016 36H170.569V35.1943ZM177.971 28.2441H178.98V36H177.971V28.2441ZM181.827 38.7822C181.261 38.7822 180.688 38.7267 180.108 38.6157L180.178 37.7725C180.794 37.9121 181.38 37.9819 181.935 37.9819C183.335 37.9819 184.035 37.409 184.035 36.2632V36H182.928C181.005 36 180.044 35.146 180.044 33.438C180.044 32.661 180.271 32.0236 180.726 31.5259C181.224 30.9816 181.92 30.7095 182.815 30.7095C183.621 30.7095 184.359 30.8384 185.028 31.0962V36.2095C185.028 36.9328 184.79 37.5218 184.314 37.9766C183.752 38.5137 182.923 38.7822 181.827 38.7822ZM184.035 31.7676C183.677 31.5957 183.234 31.5098 182.708 31.5098C182.2 31.5098 181.799 31.6763 181.505 32.0093C181.211 32.3387 181.064 32.7773 181.064 33.3252C181.064 34.5713 181.732 35.1943 183.068 35.1943H184.035V31.7676ZM191.511 36C189.588 36 188.627 35.146 188.627 33.438C188.627 32.6574 188.858 32.0182 189.32 31.5205C189.818 30.9798 190.503 30.7095 191.377 30.7095C192.945 30.7095 193.729 31.5312 193.729 33.1748V36H191.511ZM192.741 33.3467C192.741 32.1221 192.258 31.5098 191.291 31.5098C190.783 31.5098 190.382 31.6781 190.088 32.0146C189.794 32.3405 189.647 32.7809 189.647 33.3359C189.647 34.5749 190.315 35.1943 191.651 35.1943H192.741V33.3467ZM192.124 29.8179C191.959 29.8179 191.819 29.7624 191.705 29.6514C191.59 29.5368 191.533 29.3936 191.533 29.2217C191.533 29.0641 191.59 28.9281 191.705 28.8135C191.819 28.6989 191.959 28.6416 192.124 28.6416C192.285 28.6416 192.421 28.6971 192.532 28.8081C192.643 28.9227 192.698 29.0605 192.698 29.2217C192.698 29.39 192.643 29.5314 192.532 29.646C192.421 29.7606 192.285 29.8179 192.124 29.8179ZM190.496 29.8179C190.331 29.8179 190.194 29.7624 190.083 29.6514C189.972 29.5368 189.916 29.3936 189.916 29.2217C189.916 29.0641 189.972 28.9281 190.083 28.8135C190.194 28.6989 190.331 28.6416 190.496 28.6416C190.657 28.6416 190.795 28.6971 190.91 28.8081C191.024 28.9227 191.082 29.0605 191.082 29.2217C191.082 29.3864 191.024 29.5278 190.91 29.646C190.795 29.7606 190.657 29.8179 190.496 29.8179ZM194.745 38.8252C194.369 38.8252 193.987 38.7751 193.601 38.6748L193.708 37.8369C194.048 37.9622 194.419 38.0249 194.82 38.0249C195.307 38.0249 195.665 37.8906 195.894 37.6221C196.155 37.3249 196.286 36.8325 196.286 36.145V30.8276H197.296V36.0537C197.296 37.9014 196.445 38.8252 194.745 38.8252ZM200.347 38.7822C199.781 38.7822 199.208 38.7267 198.628 38.6157L198.698 37.7725C199.314 37.9121 199.899 37.9819 200.454 37.9819C201.854 37.9819 202.554 37.409 202.554 36.2632V36H201.448C199.525 36 198.563 35.146 198.563 33.438C198.563 32.661 198.791 32.0236 199.246 31.5259C199.743 30.9816 200.44 30.7095 201.335 30.7095C202.141 30.7095 202.878 30.8384 203.548 31.0962V35.1943H204.756V36H203.548V36.2095C203.548 36.9328 203.31 37.5218 202.833 37.9766C202.271 38.5137 201.442 38.7822 200.347 38.7822ZM202.554 31.7676C202.196 31.5957 201.754 31.5098 201.228 31.5098C200.719 31.5098 200.318 31.6763 200.024 32.0093C199.731 32.3387 199.584 32.7773 199.584 33.3252C199.584 34.5713 200.252 35.1943 201.587 35.1943H202.554V31.7676ZM204.611 35.1943H206.196V30.8276H207.206V31.2573C207.206 32.0164 207.166 32.6735 207.087 33.2285H207.098C207.349 32.43 207.757 31.8034 208.323 31.3486C208.86 30.9225 209.456 30.7095 210.111 30.7095C210.817 30.7095 211.361 30.9297 211.744 31.3701C212.124 31.8034 212.313 32.4157 212.313 33.207C212.313 34.0378 212.074 34.693 211.594 35.1729C211.046 35.7243 210.215 36 209.102 36H204.611V35.1943ZM209.209 35.1943C210.58 35.1943 211.266 34.557 211.266 33.2822C211.266 32.1006 210.819 31.5098 209.923 31.5098C209.211 31.5098 208.59 31.9019 208.06 32.686C207.576 33.3986 207.284 34.2347 207.184 35.1943H209.209ZM215.665 35.1943H219.194C219.18 34.181 218.958 33.3825 218.528 32.7988C218.091 32.208 217.389 31.764 216.422 31.4668L216.675 30.6074C217.86 30.9762 218.728 31.508 219.28 32.2026C219.86 32.9331 220.166 33.9303 220.198 35.1943H221.042V36H215.665V35.1943ZM217.26 29.6514C217.096 29.6514 216.956 29.5941 216.841 29.4795C216.723 29.3649 216.664 29.2253 216.664 29.0605C216.664 28.8923 216.723 28.749 216.841 28.6309C216.956 28.5127 217.096 28.4536 217.26 28.4536C217.425 28.4536 217.566 28.5127 217.685 28.6309C217.806 28.7454 217.867 28.8887 217.867 29.0605C217.867 29.2253 217.806 29.3649 217.685 29.4795C217.566 29.5941 217.425 29.6514 217.26 29.6514ZM220.896 35.1943H225.44C225.491 34.7467 225.516 34.3708 225.516 34.0664C225.516 33.207 225.34 32.5858 224.989 32.2026C224.613 31.7944 223.987 31.5903 223.109 31.5903C222.673 31.5903 222.264 31.6154 221.885 31.6655V30.876C222.271 30.8151 222.708 30.7847 223.195 30.7847C224.373 30.7847 225.229 31.0568 225.763 31.6011C226.268 32.1167 226.52 32.9116 226.52 33.9858C226.52 34.6232 226.461 35.2946 226.343 36H220.896V35.1943ZM223.491 29.6514C223.326 29.6514 223.186 29.5941 223.072 29.4795C222.957 29.3649 222.9 29.2253 222.9 29.0605C222.9 28.8923 222.957 28.749 223.072 28.6309C223.186 28.5127 223.326 28.4536 223.491 28.4536C223.659 28.4536 223.802 28.5127 223.92 28.6309C224.039 28.7454 224.098 28.8887 224.098 29.0605C224.098 29.2253 224.039 29.3649 223.92 29.4795C223.802 29.5941 223.659 29.6514 223.491 29.6514ZM228.298 28.2441H229.308V36H228.298V28.2441ZM237.047 36C235.687 36 234.695 35.7279 234.072 35.1836C233.481 34.668 233.186 33.873 233.186 32.7988C233.186 32.1042 233.307 31.4954 233.551 30.9727L234.625 30.7847C234.346 31.354 234.206 31.986 234.206 32.6807C234.206 33.5544 234.412 34.1828 234.824 34.5659C235.278 34.9849 236.059 35.1943 237.166 35.1943H238.1V30.9189C238.748 30.7793 239.42 30.7095 240.114 30.7095C240.999 30.7095 241.638 30.9225 242.032 31.3486C242.39 31.7354 242.569 32.3244 242.569 33.1157V35.1943H243.67V36H241.581V33.25C241.581 32.627 241.459 32.1812 241.215 31.9126C240.975 31.644 240.576 31.5098 240.018 31.5098C239.717 31.5098 239.409 31.5402 239.094 31.6011V36H237.047ZM243.509 35.1943H248.053C248.103 34.7467 248.128 34.3708 248.128 34.0664C248.128 33.207 247.952 32.5858 247.602 32.2026C247.226 31.7944 246.599 31.5903 245.722 31.5903C245.285 31.5903 244.877 31.6154 244.497 31.6655V30.876C244.884 30.8151 245.321 30.7847 245.808 30.7847C246.986 30.7847 247.841 31.0568 248.375 31.6011C248.88 32.1167 249.132 32.9116 249.132 33.9858C249.132 34.6232 249.073 35.2946 248.955 36H243.509V35.1943ZM246.103 38.2451C245.938 38.2451 245.799 38.1878 245.684 38.0732C245.569 37.9587 245.512 37.8172 245.512 37.6489C245.512 37.4842 245.569 37.3446 245.684 37.23C245.799 37.1154 245.938 37.0581 246.103 37.0581C246.271 37.0581 246.415 37.1136 246.533 37.2246C246.651 37.3392 246.71 37.4806 246.71 37.6489C246.71 37.8136 246.651 37.9551 246.533 38.0732C246.415 38.1878 246.271 38.2451 246.103 38.2451ZM250.217 38.8252C249.841 38.8252 249.46 38.7751 249.073 38.6748L249.181 37.8369C249.521 37.9622 249.891 38.0249 250.292 38.0249C250.779 38.0249 251.138 37.8906 251.367 37.6221C251.628 37.3249 251.759 36.8325 251.759 36.145V30.8276H252.769V35.1943H253.977V36H252.769V36.0537C252.769 37.9014 251.918 38.8252 250.217 38.8252ZM253.821 35.1943H256.034V30.8276H257.044V36H253.821V35.1943ZM256.958 37.6382C256.958 37.8029 256.903 37.9425 256.792 38.0571C256.681 38.1753 256.544 38.2344 256.383 38.2344C256.219 38.2344 256.079 38.1771 255.964 38.0625C255.85 37.9479 255.792 37.8065 255.792 37.6382C255.792 37.4771 255.85 37.341 255.964 37.23C256.079 37.1154 256.219 37.0581 256.383 37.0581C256.544 37.0581 256.681 37.1136 256.792 37.2246C256.903 37.3356 256.958 37.4735 256.958 37.6382ZM255.341 37.6382C255.341 37.8029 255.284 37.9425 255.169 38.0571C255.055 38.1753 254.917 38.2344 254.756 38.2344C254.591 38.2344 254.453 38.1771 254.342 38.0625C254.231 37.9515 254.176 37.8101 254.176 37.6382C254.176 37.4771 254.231 37.341 254.342 37.23C254.453 37.1154 254.591 37.0581 254.756 37.0581C254.917 37.0581 255.055 37.1136 255.169 37.2246C255.284 37.3356 255.341 37.4735 255.341 37.6382ZM158.86 55.8359C157.851 55.8359 157.084 55.6497 156.562 55.2773C156.092 54.9443 155.858 54.5003 155.858 53.9453C155.858 53.3617 156.152 52.8496 156.739 52.4092C157.022 52.1943 157.634 51.8595 158.576 51.4048C157.63 50.4917 156.826 49.9277 156.164 49.7129L156.255 49.0093C157.419 48.1284 158.479 47.688 159.435 47.688C160.137 47.688 160.678 47.8599 161.057 48.2036C161.39 48.5116 161.557 48.9072 161.557 49.3906C161.557 50.2142 161.05 50.9268 160.037 51.5283C160.62 51.9723 161.215 52.1943 161.82 52.1943H162.491V53H161.675C160.805 53 159.978 52.6598 159.193 51.9795C158.33 52.4056 157.802 52.6831 157.609 52.812C157.133 53.1379 156.895 53.487 156.895 53.8594C156.895 54.6436 157.591 55.0356 158.984 55.0356C159.539 55.0356 160.114 54.9837 160.708 54.8799L160.762 55.6533C160.11 55.7751 159.476 55.8359 158.86 55.8359ZM157.201 49.3262C157.684 49.516 158.416 50.0692 159.397 50.9858C160.16 50.5418 160.542 50.0549 160.542 49.5249C160.542 49.2062 160.445 48.952 160.251 48.7622C160.037 48.5509 159.727 48.4453 159.322 48.4453C158.739 48.4453 158.031 48.7389 157.201 49.3262ZM162.33 52.1943H163.936V47.8276H164.946V52.1943H166.654V53H162.33V52.1943ZM163.85 54.6382C163.85 54.8029 163.793 54.9425 163.678 55.0571C163.564 55.1753 163.426 55.2344 163.265 55.2344C163.1 55.2344 162.962 55.1771 162.851 55.0625C162.74 54.9515 162.685 54.8101 162.685 54.6382C162.685 54.4771 162.74 54.341 162.851 54.23C162.962 54.1154 163.1 54.0581 163.265 54.0581C163.426 54.0581 163.564 54.1136 163.678 54.2246C163.793 54.3356 163.85 54.4735 163.85 54.6382ZM165.467 54.6382C165.467 54.8029 165.411 54.9425 165.3 55.0571C165.189 55.1753 165.053 55.2344 164.892 55.2344C164.727 55.2344 164.588 55.1771 164.473 55.0625C164.359 54.9479 164.301 54.8065 164.301 54.6382C164.301 54.4771 164.359 54.341 164.473 54.23C164.588 54.1154 164.727 54.0581 164.892 54.0581C165.053 54.0581 165.189 54.1136 165.3 54.2246C165.411 54.3356 165.467 54.4735 165.467 54.6382ZM170.671 53C169.393 53 168.546 52.6545 168.131 51.9634C167.938 52.6545 167.377 53 166.45 53H166.283V52.1943C166.727 52.1943 167.053 52.078 167.261 51.8452C167.511 51.5659 167.637 51.0825 167.637 50.395C167.637 49.6359 167.866 49.0093 168.324 48.5151C168.826 47.978 169.513 47.7095 170.387 47.7095C171.955 47.7095 172.739 48.5312 172.739 50.1748V52.1943H173.84V53H170.671ZM171.751 50.3467C171.751 49.1221 171.268 48.5098 170.301 48.5098C169.792 48.5098 169.391 48.6781 169.098 49.0146C168.804 49.3405 168.657 49.7809 168.657 50.3359C168.657 51.5749 169.325 52.1943 170.661 52.1943H171.751V50.3467ZM173.674 52.1943H178.218C178.268 51.7467 178.293 51.3708 178.293 51.0664C178.293 50.207 178.118 49.5858 177.767 49.2026C177.391 48.7944 176.764 48.5903 175.887 48.5903C175.45 48.5903 175.042 48.6154 174.662 48.6655V47.876C175.049 47.8151 175.486 47.7847 175.973 47.7847C177.151 47.7847 178.007 48.0568 178.54 48.6011C179.045 49.1167 179.297 49.9116 179.297 50.9858C179.297 51.6232 179.238 52.2946 179.12 53H173.674V52.1943ZM176.268 55.2451C176.103 55.2451 175.964 55.1878 175.849 55.0732C175.735 54.9587 175.677 54.8172 175.677 54.6489C175.677 54.4842 175.735 54.3446 175.849 54.23C175.964 54.1154 176.103 54.0581 176.268 54.0581C176.436 54.0581 176.58 54.1136 176.698 54.2246C176.816 54.3392 176.875 54.4806 176.875 54.6489C176.875 54.8136 176.816 54.9551 176.698 55.0732C176.58 55.1878 176.436 55.2451 176.268 55.2451ZM183.224 45.2441H184.233V52.1943H185.447V53H183.224V45.2441ZM185.286 52.1943H186.554C186.647 52.1943 186.747 52.2015 186.854 52.2158L186.989 52.2319C186.706 52.0887 186.564 51.7646 186.564 51.2598C186.564 50.7083 186.749 50.2679 187.118 49.9385C187.486 49.609 187.979 49.4443 188.595 49.4443C189.895 49.4443 190.544 50.216 190.544 51.7593V52.1943H191.919V51.9795C191.919 50.626 191.653 49.6449 191.119 49.0361C190.596 48.4382 189.764 48.1392 188.622 48.1392C187.834 48.1392 187.055 48.2663 186.285 48.5205L186.178 47.7739C187.034 47.509 187.895 47.3765 188.761 47.3765C190.129 47.3765 191.15 47.731 191.823 48.4399C192.539 49.1919 192.897 50.3717 192.897 51.9795V52.1943H193.864V53H185.286V52.1943ZM189.653 51.7915C189.653 50.6815 189.275 50.1265 188.52 50.1265C187.807 50.1265 187.451 50.4613 187.451 51.1309C187.451 51.4925 187.574 51.77 187.821 51.9634C188.04 52.1353 188.328 52.2212 188.686 52.2212H189.653V51.7915ZM193.697 52.1943H195.303V47.8276H196.313V52.1943H198.021V53H193.697V52.1943ZM195.217 54.6382C195.217 54.8029 195.16 54.9425 195.045 55.0571C194.931 55.1753 194.793 55.2344 194.632 55.2344C194.467 55.2344 194.329 55.1771 194.218 55.0625C194.107 54.9515 194.052 54.8101 194.052 54.6382C194.052 54.4771 194.107 54.341 194.218 54.23C194.329 54.1154 194.467 54.0581 194.632 54.0581C194.793 54.0581 194.931 54.1136 195.045 54.2246C195.16 54.3356 195.217 54.4735 195.217 54.6382ZM196.834 54.6382C196.834 54.8029 196.778 54.9425 196.667 55.0571C196.556 55.1753 196.42 55.2344 196.259 55.2344C196.095 55.2344 195.955 55.1771 195.84 55.0625C195.726 54.9479 195.668 54.8065 195.668 54.6382C195.668 54.4771 195.726 54.341 195.84 54.23C195.955 54.1154 196.095 54.0581 196.259 54.0581C196.42 54.0581 196.556 54.1136 196.667 54.2246C196.778 54.3356 196.834 54.4735 196.834 54.6382ZM197.865 53V52.1943H198.735C198.99 52.1943 199.203 52.214 199.375 52.2534C198.83 51.9097 198.558 51.2902 198.558 50.395C198.558 49.6359 198.789 49.0093 199.251 48.5151C199.749 47.978 200.434 47.7095 201.308 47.7095C202.876 47.7095 203.661 48.5312 203.661 50.1748V53H197.865ZM202.672 50.3467C202.672 49.1221 202.189 48.5098 201.222 48.5098C200.714 48.5098 200.313 48.6781 200.019 49.0146C199.725 49.3405 199.579 49.7809 199.579 50.3359C199.579 51.5749 200.246 52.1943 201.582 52.1943H202.672V50.3467ZM201.185 46.6299C201.02 46.6299 200.88 46.5726 200.766 46.458C200.651 46.3434 200.594 46.2038 200.594 46.0391C200.594 45.8708 200.651 45.7275 200.766 45.6094C200.884 45.4912 201.023 45.4321 201.185 45.4321C201.353 45.4321 201.496 45.4894 201.614 45.604C201.732 45.7222 201.792 45.8672 201.792 46.0391C201.792 46.2038 201.732 46.3434 201.614 46.458C201.496 46.5726 201.353 46.6299 201.185 46.6299ZM207.743 55.8252C207.367 55.8252 206.985 55.7751 206.599 55.6748L206.706 54.8369C207.046 54.9622 207.417 55.0249 207.818 55.0249C208.305 55.0249 208.663 54.8906 208.892 54.6221C209.153 54.3249 209.284 53.8325 209.284 53.145V47.8276H210.294V52.1943H211.502V53H210.294V53.0537C210.294 54.9014 209.444 55.8252 207.743 55.8252ZM211.347 52.1943H212.614C212.707 52.1943 212.808 52.2015 212.915 52.2158L213.049 52.2319C212.766 52.0887 212.625 51.7646 212.625 51.2598C212.625 50.7083 212.809 50.2679 213.178 49.9385C213.547 49.609 214.039 49.4443 214.655 49.4443C215.955 49.4443 216.605 50.216 216.605 51.7593V52.1943H217.98V51.9795C217.98 50.626 217.713 49.6449 217.18 49.0361C216.657 48.4382 215.824 48.1392 214.682 48.1392C213.894 48.1392 213.116 48.2663 212.346 48.5205L212.238 47.7739C213.094 47.509 213.955 47.3765 214.822 47.3765C216.19 47.3765 217.21 47.731 217.883 48.4399C218.599 49.1919 218.958 50.3717 218.958 51.9795V52.1943H219.924V53H211.347V52.1943ZM215.713 51.7915C215.713 50.6815 215.336 50.1265 214.58 50.1265C213.868 50.1265 213.511 50.4613 213.511 51.1309C213.511 51.4925 213.635 51.77 213.882 51.9634C214.1 52.1353 214.389 52.2212 214.747 52.2212H215.713V51.7915ZM219.758 52.1943H221.278V45.2441H222.288V48.2573C222.288 49.0164 222.248 49.6735 222.169 50.2285H222.18C222.431 49.4264 222.839 48.7998 223.405 48.3486C223.942 47.9225 224.542 47.7095 225.204 47.7095C225.906 47.7095 226.448 47.9297 226.832 48.3701C227.211 48.8034 227.401 49.4157 227.401 50.207C227.401 51.0557 227.152 51.7181 226.654 52.1943H228.153V53H219.758V52.1943ZM224.291 52.1943C225.67 52.1943 226.359 51.557 226.359 50.2822C226.359 49.1006 225.908 48.5098 225.005 48.5098C224.293 48.5098 223.672 48.9019 223.142 49.686C222.658 50.3986 222.37 51.2347 222.277 52.1943H224.291ZM225.048 46.6514C224.884 46.6514 224.744 46.5941 224.629 46.4795C224.511 46.3649 224.452 46.2253 224.452 46.0605C224.452 45.8923 224.511 45.749 224.629 45.6309C224.744 45.5127 224.884 45.4536 225.048 45.4536C225.217 45.4536 225.358 45.5127 225.473 45.6309C225.594 45.7454 225.655 45.8887 225.655 46.0605C225.655 46.2253 225.594 46.3649 225.473 46.4795C225.354 46.5941 225.213 46.6514 225.048 46.6514ZM227.933 52.1943H230.146V47.8276H231.155V53H227.933V52.1943ZM231.069 54.6382C231.069 54.8029 231.014 54.9425 230.903 55.0571C230.792 55.1753 230.656 55.2344 230.495 55.2344C230.33 55.2344 230.19 55.1771 230.076 55.0625C229.961 54.9479 229.904 54.8065 229.904 54.6382C229.904 54.4771 229.961 54.341 230.076 54.23C230.19 54.1154 230.33 54.0581 230.495 54.0581C230.656 54.0581 230.792 54.1136 230.903 54.2246C231.014 54.3356 231.069 54.4735 231.069 54.6382ZM229.453 54.6382C229.453 54.8029 229.395 54.9425 229.281 55.0571C229.166 55.1753 229.028 55.2344 228.867 55.2344C228.702 55.2344 228.565 55.1771 228.454 55.0625C228.343 54.9515 228.287 54.8101 228.287 54.6382C228.287 54.4771 228.343 54.341 228.454 54.23C228.565 54.1154 228.702 54.0581 228.867 54.0581C229.028 54.0581 229.166 54.1136 229.281 54.2246C229.395 54.3356 229.453 54.4735 229.453 54.6382ZM237.837 53C236.272 53 235.49 53.4548 235.49 54.3643C235.49 54.7653 235.662 55.0858 236.005 55.3257C236.374 55.5871 236.899 55.7178 237.579 55.7178C238.184 55.7178 238.845 55.6408 239.561 55.4868L239.636 56.2764C238.917 56.4375 238.202 56.5181 237.493 56.5181C236.516 56.5181 235.762 56.3229 235.232 55.9326C234.738 55.5674 234.491 55.0697 234.491 54.4395C234.491 52.9427 235.624 52.1943 237.891 52.1943H238.911C238.965 51.7467 238.992 51.3708 238.992 51.0664C238.992 50.207 238.814 49.5858 238.46 49.2026C238.084 48.7944 237.457 48.5903 236.58 48.5903C236.147 48.5903 235.74 48.6154 235.361 48.6655V47.876C235.748 47.8151 236.184 47.7847 236.671 47.7847C237.849 47.7847 238.705 48.0568 239.239 48.6011C239.74 49.1167 239.991 49.9116 239.991 50.9858C239.991 51.3296 239.969 51.7324 239.926 52.1943H240.936V53H237.837ZM240.77 52.1943H242.354V47.8276H243.364V48.2573C243.364 49.0164 243.324 49.6735 243.246 50.2285H243.256C243.507 49.43 243.915 48.8034 244.481 48.3486C245.018 47.9225 245.614 47.7095 246.27 47.7095C246.975 47.7095 247.519 47.9297 247.902 48.3701C248.282 48.8034 248.472 49.4157 248.472 50.207C248.472 51.0378 248.232 51.693 247.752 52.1729C247.204 52.7243 246.373 53 245.26 53H240.77V52.1943ZM245.367 52.1943C246.739 52.1943 247.424 51.557 247.424 50.2822C247.424 49.1006 246.977 48.5098 246.082 48.5098C245.369 48.5098 244.748 48.9019 244.218 49.686C243.734 50.3986 243.443 51.2347 243.342 52.1943H245.367ZM246.06 46.6514C245.895 46.6514 245.756 46.5941 245.641 46.4795C245.523 46.3649 245.464 46.2253 245.464 46.0605C245.464 45.8923 245.523 45.749 245.641 45.6309C245.756 45.5127 245.895 45.4536 246.06 45.4536C246.228 45.4536 246.37 45.5127 246.484 45.6309C246.606 45.7454 246.667 45.8887 246.667 46.0605C246.667 46.2253 246.606 46.3649 246.484 46.4795C246.366 46.5941 246.225 46.6514 246.06 46.6514ZM249.986 45.2441H250.996V53H249.986V45.2441ZM253.843 55.7822C253.277 55.7822 252.704 55.7267 252.124 55.6157L252.194 54.7725C252.81 54.9121 253.395 54.9819 253.95 54.9819C255.35 54.9819 256.05 54.409 256.05 53.2632V53H254.944C253.021 53 252.06 52.146 252.06 50.438C252.06 49.661 252.287 49.0236 252.742 48.5259C253.239 47.9816 253.936 47.7095 254.831 47.7095C255.637 47.7095 256.374 47.8384 257.044 48.0962V53.2095C257.044 53.9328 256.806 54.5218 256.33 54.9766C255.767 55.5137 254.938 55.7822 253.843 55.7822ZM256.05 48.7676C255.692 48.5957 255.25 48.5098 254.724 48.5098C254.215 48.5098 253.814 48.6763 253.521 49.0093C253.227 49.3387 253.08 49.7773 253.08 50.3252C253.08 51.5713 253.748 52.1943 255.083 52.1943H256.05V48.7676ZM226.493 69.4146C226.493 69.6043 226.427 69.7655 226.294 69.8979C226.162 70.0304 226.001 70.0967 225.811 70.0967C225.625 70.0967 225.464 70.0304 225.328 69.8979C225.195 69.7655 225.129 69.6043 225.129 69.4146C225.129 69.2284 225.195 69.069 225.328 68.9365C225.464 68.8005 225.625 68.7324 225.811 68.7324C226.001 68.7324 226.162 68.8005 226.294 68.9365C226.427 69.069 226.493 69.2284 226.493 69.4146ZM232.589 70C230.667 70 229.705 69.146 229.705 67.438C229.705 66.661 229.932 66.0236 230.387 65.5259C230.885 64.9816 231.581 64.7095 232.477 64.7095C233.282 64.7095 234.02 64.8384 234.689 65.0962V69.1943H235.909V70H232.589ZM233.696 65.7676C233.338 65.5957 232.896 65.5098 232.369 65.5098C231.861 65.5098 231.46 65.6763 231.166 66.0093C230.872 66.3387 230.726 66.7773 230.726 67.3252C230.726 68.5713 231.393 69.1943 232.729 69.1943H233.696V65.7676ZM233.202 63.8179C233.037 63.8179 232.897 63.7624 232.783 63.6514C232.668 63.5368 232.611 63.3936 232.611 63.2217C232.611 63.0641 232.668 62.9281 232.783 62.8135C232.897 62.6989 233.037 62.6416 233.202 62.6416C233.363 62.6416 233.499 62.6971 233.61 62.8081C233.721 62.9227 233.776 63.0605 233.776 63.2217C233.776 63.39 233.721 63.5314 233.61 63.646C233.499 63.7606 233.363 63.8179 233.202 63.8179ZM231.574 63.8179C231.41 63.8179 231.272 63.7624 231.161 63.6514C231.05 63.5368 230.994 63.3936 230.994 63.2217C230.994 63.0641 231.05 62.9281 231.161 62.8135C231.272 62.6989 231.41 62.6416 231.574 62.6416C231.735 62.6416 231.873 62.6971 231.988 62.8081C232.102 62.9227 232.16 63.0605 232.16 63.2217C232.16 63.3864 232.102 63.5278 231.988 63.646C231.873 63.7606 231.735 63.8179 231.574 63.8179ZM235.742 69.1943H237.348V64.8276H238.358V69.1943H239.583V70H235.742V69.1943ZM237.117 72.2451C236.952 72.2451 236.813 72.1878 236.698 72.0732C236.58 71.9587 236.521 71.8172 236.521 71.6489C236.521 71.4842 236.58 71.3446 236.698 71.23C236.813 71.1154 236.952 71.0581 237.117 71.0581C237.285 71.0581 237.427 71.1136 237.542 71.2246C237.663 71.3392 237.724 71.4806 237.724 71.6489C237.724 71.8136 237.663 71.9551 237.542 72.0732C237.423 72.1878 237.282 72.2451 237.117 72.2451ZM239.416 69.1943H240.958V62.2441H241.967V69.1943H243.176V70H239.416V69.1943ZM243.015 69.1943H244.535V62.2441H245.544V65.2573C245.544 66.0164 245.505 66.6735 245.426 67.2285H245.437C245.688 66.4264 246.096 65.7998 246.662 65.3486C247.199 64.9225 247.799 64.7095 248.461 64.7095C249.163 64.7095 249.705 64.9297 250.088 65.3701C250.468 65.8034 250.658 66.4157 250.658 67.207C250.658 68.0557 250.409 68.7181 249.911 69.1943H251.506V70H243.015V69.1943ZM247.666 69.1943C248.966 69.1585 249.616 68.5212 249.616 67.2822C249.616 66.1006 249.165 65.5098 248.262 65.5098C247.55 65.5098 246.928 65.9019 246.398 66.686C245.915 67.3986 245.627 68.2347 245.534 69.1943H247.666ZM251.297 69.1943H252.838V62.2441H253.848V70H251.297V69.1943ZM255.938 62.2441H256.947V70H255.938V62.2441Z" fill="#1E1E1E"/>
<circle cx="249" cy="10" r="9" fill="#1B3E5D"/>
<path d="M251.522 10.6904C251.522 11.4066 251.239 11.9902 250.673 12.4414C250.111 12.8854 249.388 13.1074 248.503 13.1074C248.009 13.1074 247.596 13.0609 247.263 12.9678L247.418 11.7324C247.694 11.8363 248.068 11.8882 248.541 11.8882C248.992 11.8882 249.35 11.7826 249.615 11.5713C249.873 11.3708 250.002 11.1058 250.002 10.7764C250.002 10.0817 249.477 9.73438 248.428 9.73438C248.149 9.73438 247.893 9.75228 247.66 9.78809V8.65479C249.075 8.69417 249.782 8.31999 249.782 7.53223C249.782 6.94499 249.433 6.65137 248.734 6.65137C248.344 6.65137 247.938 6.75521 247.515 6.96289L247.408 5.78662C247.931 5.57178 248.498 5.46436 249.11 5.46436C249.798 5.46436 250.335 5.63444 250.722 5.97461C251.083 6.29329 251.264 6.71761 251.264 7.24756C251.264 8.07829 250.868 8.63867 250.077 8.92871L250.066 8.9502C250.518 9.0612 250.872 9.27246 251.13 9.58398C251.391 9.89551 251.522 10.2643 251.522 10.6904Z" fill="white"/>
<path d="M63.4444 35.6786C63.9333 35.6786 64.3333 36.0804 64.3333 36.5714V38.3571H37.6667V36.5714C37.6667 36.0804 38.0667 35.6786 38.5556 35.6786H63.4444ZM64.3333 43.7143V54.4286C64.3333 54.9196 63.9333 55.3214 63.4444 55.3214H38.5556C38.0667 55.3214 37.6667 54.9196 37.6667 54.4286V43.7143H64.3333ZM38.5556 33C36.5944 33 35 34.6016 35 36.5714V54.4286C35 56.3984 36.5944 58 38.5556 58H63.4444C65.4056 58 67 56.3984 67 54.4286V36.5714C67 34.6016 65.4056 33 63.4444 33H38.5556ZM41.6667 49.9643C40.9278 49.9643 40.3333 50.5614 40.3333 51.3036C40.3333 52.0458 40.9278 52.6429 41.6667 52.6429H44.3333C45.0722 52.6429 45.6667 52.0458 45.6667 51.3036C45.6667 50.5614 45.0722 49.9643 44.3333 49.9643H41.6667ZM48.7778 49.9643C48.0389 49.9643 47.4444 50.5614 47.4444 51.3036C47.4444 52.0458 48.0389 52.6429 48.7778 52.6429H55C55.7389 52.6429 56.3333 52.0458 56.3333 51.3036C56.3333 50.5614 55.7389 49.9643 55 49.9643H48.7778Z" fill="#1B3E5D"/>
</svg>
