<svg width="19" height="19" viewBox="0 0 19 19" fill="none" xmlns="http://www.w3.org/2000/svg">
<g clip-path="url(#clip0_40_738)">
<path d="M5.9375 9.5C5.9375 10.3238 5.98203 11.118 6.05996 11.875H12.9363C13.018 11.118 13.0588 10.3238 13.0588 9.5C13.0588 8.67617 13.0143 7.88203 12.9363 7.125H6.05996C5.97832 7.88203 5.9375 8.67617 5.9375 9.5ZM4.86875 7.125H0.300587C0.103907 7.88574 0 8.67988 0 9.5C0 10.3201 0.103907 11.1143 0.300587 11.875H4.86875C4.79082 11.1105 4.75 10.3164 4.75 9.5C4.75 8.68359 4.79082 7.88945 4.86875 7.125ZM0.690235 5.9375H5.0209C5.39199 3.56621 6.12676 1.58086 7.07305 0.311719C4.16738 1.07988 1.80352 3.1877 0.693945 5.9375H0.690235ZM6.22324 5.9375H12.7768C12.5504 4.58672 12.2016 3.3918 11.7748 2.42324C11.3852 1.54746 10.951 0.912891 10.5316 0.512109C10.116 0.11875 9.7709 0 9.5 0C9.2291 0 8.88398 0.11875 8.46836 0.512109C8.04902 0.912891 7.61484 1.54746 7.2252 2.42324C6.79473 3.38809 6.44961 4.58301 6.22324 5.9375ZM13.9791 5.9375H18.3098C17.1965 3.1877 14.8363 1.07988 11.927 0.311719C12.8732 1.58086 13.608 3.56621 13.9791 5.9375ZM18.6994 7.125H14.1312C14.2092 7.88945 14.25 8.68359 14.25 9.5C14.25 10.3164 14.2092 11.1105 14.1312 11.875H18.6994C18.8961 11.1143 19 10.3201 19 9.5C19 8.67988 18.8961 7.88574 18.6994 7.125ZM11.7748 16.573C12.2053 15.6082 12.5504 14.4133 12.7768 13.0625H6.22324C6.44961 14.4133 6.79844 15.6082 7.2252 16.573C7.61484 17.4488 8.04902 18.0834 8.46836 18.4842C8.88398 18.8813 9.2291 19 9.5 19C9.7709 19 10.116 18.8813 10.5316 18.4879C10.951 18.0871 11.3852 17.4525 11.7748 16.5768V16.573ZM13.9791 13.0625C13.608 15.4338 12.8732 17.4191 11.927 18.6883C14.8363 17.9201 17.1965 15.8123 18.3098 13.0625H13.9791ZM0.690235 13.0625C1.80352 15.8123 4.16367 17.9201 7.06934 18.6883C6.12305 17.4191 5.39199 15.4338 5.01719 13.0625H0.686523H0.690235Z" fill="#1B3E5D"/>
</g>
<defs>
<clipPath id="clip0_40_738">
<rect width="19" height="19" fill="white" transform="matrix(-1 0 0 1 19 0)"/>
</clipPath>
</defs>
</svg>
