<svg width="18" height="18" viewBox="0 0 18 18" fill="none" xmlns="http://www.w3.org/2000/svg">
<circle cx="9" cy="9" r="9" fill="#1B3E5D"/>
<path d="M7.06934 12V10.813L8.18115 9.55615C9.24463 8.396 9.77637 7.47217 9.77637 6.78467C9.77637 6.48031 9.68685 6.23503 9.50781 6.04883C9.31803 5.85189 9.05127 5.75342 8.70752 5.75342C8.25635 5.75342 7.79801 5.89307 7.33252 6.17236L7.12305 4.89404C7.71029 4.60758 8.36735 4.46436 9.09424 4.46436C9.81755 4.46436 10.3797 4.66667 10.7808 5.07129C11.1532 5.44368 11.3394 5.93424 11.3394 6.54297C11.3394 7.50977 10.7557 8.63232 9.58838 9.91064L8.92773 10.6895C9.43978 10.6608 10.3171 10.6465 11.5596 10.6465V12H7.06934Z" fill="white"/>
</svg>
