<svg width="257" height="124" viewBox="0 0 257 124" fill="none" xmlns="http://www.w3.org/2000/svg">
<circle cx="206" cy="46" r="45" fill="white" stroke="#141E27" stroke-dasharray="12 6"/>
<path d="M159.203 118C157.237 118 156.254 117.15 156.254 115.449C156.254 114.668 156.487 114.027 156.953 113.526C157.475 112.967 158.215 112.688 159.171 112.688C160.034 112.688 160.8 112.815 161.47 113.069V116.856H162.544V118H159.203ZM160.062 114.031C159.783 113.898 159.434 113.832 159.015 113.832C158.611 113.832 158.29 113.972 158.054 114.251C157.821 114.523 157.705 114.878 157.705 115.314C157.705 116.342 158.256 116.856 159.359 116.856H160.062V114.031ZM159.939 111.995C159.735 111.995 159.563 111.922 159.423 111.775C159.284 111.632 159.214 111.456 159.214 111.249C159.214 111.041 159.284 110.864 159.423 110.717C159.567 110.57 159.738 110.497 159.939 110.497C160.143 110.497 160.315 110.57 160.455 110.717C160.594 110.86 160.664 111.037 160.664 111.249C160.664 111.453 160.594 111.628 160.455 111.775C160.315 111.922 160.143 111.995 159.939 111.995ZM158.113 111.995C157.909 111.995 157.737 111.922 157.597 111.775C157.458 111.632 157.388 111.456 157.388 111.249C157.388 111.041 157.458 110.864 157.597 110.717C157.74 110.57 157.912 110.497 158.113 110.497C158.32 110.497 158.496 110.57 158.639 110.717C158.779 110.86 158.849 111.037 158.849 111.249C158.849 111.453 158.779 111.628 158.639 111.775C158.496 111.922 158.32 111.995 158.113 111.995ZM162.383 116.856H164.451V112.828H165.901V118H162.383V116.856ZM165.869 119.649C165.869 119.853 165.799 120.028 165.659 120.175C165.516 120.322 165.344 120.396 165.144 120.396C164.939 120.396 164.768 120.324 164.628 120.181C164.488 120.037 164.418 119.86 164.418 119.649C164.418 119.445 164.488 119.269 164.628 119.123C164.771 118.976 164.943 118.902 165.144 118.902C165.348 118.902 165.52 118.974 165.659 119.117C165.799 119.264 165.869 119.441 165.869 119.649ZM164.053 119.649C164.053 119.857 163.983 120.032 163.844 120.175C163.701 120.322 163.525 120.396 163.317 120.396C163.113 120.396 162.941 120.324 162.802 120.181C162.662 120.037 162.592 119.86 162.592 119.649C162.592 119.445 162.662 119.269 162.802 119.123C162.945 118.976 163.117 118.902 163.317 118.902C163.525 118.902 163.701 118.974 163.844 119.117C163.983 119.264 164.053 119.441 164.053 119.649ZM169.075 120.771C168.524 120.771 167.965 120.723 167.399 120.626L167.491 119.439C168.064 119.565 168.635 119.627 169.204 119.627C170.475 119.627 171.111 119.14 171.111 118.167V118H170.251C168.286 118 167.303 117.15 167.303 115.449C167.303 114.668 167.535 114.027 168.001 113.526C168.524 112.967 169.263 112.688 170.219 112.688C171.082 112.688 171.848 112.815 172.518 113.069V116.856H173.592V118H172.518V118.021C172.518 118.838 172.251 119.486 171.718 119.966C171.123 120.503 170.243 120.771 169.075 120.771ZM171.111 114.031C170.832 113.898 170.482 113.832 170.063 113.832C169.659 113.832 169.338 113.972 169.102 114.251C168.869 114.523 168.753 114.878 168.753 115.314C168.753 116.342 169.304 116.856 170.407 116.856H171.111V114.031ZM173.437 118V116.856H174.35C174.547 116.856 174.718 116.874 174.865 116.91C174.675 116.734 174.581 116.5 174.581 116.206C174.581 115.658 174.767 115.216 175.139 114.879C175.522 114.532 176.04 114.358 176.691 114.358C177.39 114.358 177.912 114.577 178.26 115.014C178.564 115.4 178.716 115.93 178.716 116.604V116.856H179.828V116.722C179.828 115.576 179.583 114.733 179.092 114.192C178.591 113.644 177.798 113.37 176.713 113.37C175.95 113.37 175.166 113.503 174.36 113.768L174.226 112.731C175.111 112.444 175.999 112.301 176.89 112.301C179.773 112.301 181.214 113.809 181.214 116.824V116.856H182.025V118H173.437ZM177.529 116.582C177.529 115.708 177.218 115.271 176.595 115.271C176.043 115.271 175.768 115.524 175.768 116.029C175.768 116.609 176.113 116.899 176.804 116.899H177.529V116.582ZM181.858 116.856H183.223V110.244H184.673V116.856H185.774V118H181.858V116.856ZM185.607 116.856H186.972V110.244H188.422V118H185.607V116.856ZM196.092 118C194.656 118 193.609 117.708 192.95 117.125C192.352 116.598 192.053 115.805 192.053 114.745C192.053 114.115 192.148 113.538 192.337 113.016L193.89 112.763C193.639 113.311 193.514 113.916 193.514 114.579C193.514 115.377 193.712 115.95 194.11 116.297C194.529 116.67 195.24 116.856 196.242 116.856H196.994V112.897C197.674 112.758 198.41 112.688 199.202 112.688C200.125 112.688 200.792 112.905 201.2 113.338C201.561 113.725 201.742 114.317 201.742 115.116V116.856H202.666V118H200.335V115.271C200.335 114.742 200.245 114.369 200.066 114.154C199.887 113.939 199.57 113.832 199.116 113.832C198.872 113.832 198.631 113.854 198.391 113.896V118H196.092ZM197.456 119.649C197.456 119.853 197.384 120.028 197.241 120.175C197.102 120.322 196.93 120.396 196.726 120.396C196.525 120.396 196.353 120.324 196.21 120.181C196.07 120.037 196 119.86 196 119.649C196 119.445 196.07 119.269 196.21 119.123C196.353 118.976 196.525 118.902 196.726 118.902C196.93 118.902 197.102 118.974 197.241 119.117C197.384 119.264 197.456 119.441 197.456 119.649ZM195.641 119.649C195.641 119.857 195.569 120.032 195.426 120.175C195.283 120.322 195.107 120.396 194.899 120.396C194.699 120.396 194.527 120.324 194.384 120.181C194.244 120.037 194.174 119.86 194.174 119.649C194.174 119.445 194.244 119.269 194.384 119.123C194.527 118.976 194.699 118.902 194.899 118.902C195.111 118.902 195.286 118.974 195.426 119.117C195.569 119.264 195.641 119.441 195.641 119.649ZM202.505 118V116.856H203.133C203.388 116.856 203.592 116.881 203.746 116.931C203.337 116.634 203.133 116.109 203.133 115.357C203.133 114.613 203.37 113.993 203.842 113.499C204.365 112.958 205.081 112.688 205.991 112.688C207.649 112.688 208.478 113.531 208.478 115.218V118H202.505ZM207.06 115.395C207.06 114.353 206.667 113.832 205.883 113.832C205.479 113.832 205.156 113.972 204.917 114.251C204.687 114.523 204.573 114.878 204.573 115.314C204.573 116.342 205.122 116.856 206.222 116.856H207.06V115.395ZM210.175 110.244H211.625V116.856H212.726V118H210.175V110.244ZM212.56 118V116.856H213.188C213.442 116.856 213.646 116.881 213.8 116.931C213.392 116.634 213.188 116.109 213.188 115.357C213.188 114.613 213.424 113.993 213.897 113.499C214.42 112.958 215.136 112.688 216.045 112.688C217.703 112.688 218.532 113.531 218.532 115.218V118H212.56ZM217.114 115.395C217.114 114.353 216.722 113.832 215.938 113.832C215.533 113.832 215.211 113.972 214.971 114.251C214.742 114.523 214.627 114.878 214.627 115.314C214.627 116.342 215.177 116.856 216.276 116.856H217.114V115.395ZM222.034 116.029H220.562L218.989 110.368L220.428 110.169L222.034 116.029ZM219.44 118V116.856H222.84V110.244H224.29V118H219.44ZM226.148 110.244H227.599V118H226.148V110.244ZM234.044 118C232.078 118 231.095 117.15 231.095 115.449C231.095 114.668 231.328 114.027 231.793 113.526C232.316 112.967 233.056 112.688 234.012 112.688C234.875 112.688 235.641 112.815 236.311 113.069V116.856H237.385V118H234.044ZM234.903 114.031C234.624 113.898 234.275 113.832 233.856 113.832C233.451 113.832 233.131 113.972 232.895 114.251C232.662 114.523 232.545 114.878 232.545 115.314C232.545 116.342 233.097 116.856 234.2 116.856H234.903V114.031ZM237.224 116.856H241.483C241.519 116.562 241.537 116.283 241.537 116.018C241.537 115.302 241.375 114.776 241.053 114.439C240.709 114.084 240.151 113.907 239.377 113.907C238.969 113.907 238.549 113.938 238.115 113.999V112.865C238.631 112.797 239.1 112.763 239.522 112.763C240.736 112.763 241.621 113.034 242.176 113.574C242.709 114.09 242.976 114.887 242.976 115.964C242.976 116.573 242.913 117.252 242.788 118H237.224V116.856ZM239.829 120.412C239.621 120.412 239.444 120.338 239.297 120.191C239.146 120.045 239.071 119.864 239.071 119.649C239.071 119.441 239.146 119.262 239.297 119.112C239.444 118.965 239.621 118.892 239.829 118.892C240.04 118.892 240.219 118.965 240.366 119.112C240.516 119.259 240.591 119.438 240.591 119.649C240.591 119.86 240.516 120.039 240.366 120.186C240.219 120.336 240.04 120.412 239.829 120.412ZM245.57 120.771C245.019 120.771 244.46 120.723 243.895 120.626L243.986 119.439C244.559 119.565 245.13 119.627 245.699 119.627C246.97 119.627 247.606 119.14 247.606 118.167V118H246.747C244.781 118 243.798 117.15 243.798 115.449C243.798 114.668 244.031 114.027 244.496 113.526C245.019 112.967 245.758 112.688 246.714 112.688C247.577 112.688 248.344 112.815 249.013 113.069V116.856H250.087V118H249.013V118.021C249.013 118.838 248.746 119.486 248.213 119.966C247.618 120.503 246.738 120.771 245.57 120.771ZM247.606 114.031C247.327 113.898 246.978 113.832 246.559 113.832C246.154 113.832 245.833 113.972 245.597 114.251C245.364 114.523 245.248 114.878 245.248 115.314C245.248 116.342 245.799 116.856 246.902 116.856H247.606V114.031ZM249.932 116.856H251.296V110.244H252.746V118H249.932V116.856ZM254.615 110.244H256.065V118H254.615V110.244Z" fill="#1B3E5D"/>
<path d="M19.9438 36C18.021 36 17.0596 35.146 17.0596 33.438C17.0596 32.661 17.2869 32.0236 17.7417 31.5259C18.2394 30.9816 18.9359 30.7095 19.8311 30.7095C20.6367 30.7095 21.3743 30.8384 22.0439 31.0962V35.1943H23.2632V36H19.9438ZM21.0503 31.7676C20.6922 31.5957 20.25 31.5098 19.7236 31.5098C19.2152 31.5098 18.8141 31.6763 18.5205 32.0093C18.2269 32.3387 18.0801 32.7773 18.0801 33.3252C18.0801 34.5713 18.7479 35.1943 20.0835 35.1943H21.0503V31.7676ZM23.0967 35.1943H27.6406C27.6908 34.7467 27.7158 34.3708 27.7158 34.0664C27.7158 33.207 27.5404 32.5858 27.1895 32.2026C26.8135 31.7944 26.1868 31.5903 25.3096 31.5903C24.8727 31.5903 24.4645 31.6154 24.085 31.6655V30.876C24.4717 30.8151 24.9085 30.7847 25.3955 30.7847C26.5736 30.7847 27.4294 31.0568 27.9629 31.6011C28.4678 32.1167 28.7202 32.9116 28.7202 33.9858C28.7202 34.6232 28.6611 35.2946 28.543 36H23.0967V35.1943ZM25.6909 38.2451C25.5262 38.2451 25.3866 38.1878 25.272 38.0732C25.1574 37.9587 25.1001 37.8172 25.1001 37.6489C25.1001 37.4842 25.1574 37.3446 25.272 37.23C25.3866 37.1154 25.5262 37.0581 25.6909 37.0581C25.8592 37.0581 26.0024 37.1136 26.1206 37.2246C26.2388 37.3392 26.2979 37.4806 26.2979 37.6489C26.2979 37.8136 26.2388 37.9551 26.1206 38.0732C26.0024 38.1878 25.8592 38.2451 25.6909 38.2451ZM31.4971 38.7822C30.9313 38.7822 30.3584 38.7267 29.7783 38.6157L29.8481 37.7725C30.464 37.9121 31.0495 37.9819 31.6045 37.9819C33.0046 37.9819 33.7046 37.409 33.7046 36.2632V36H32.5981C30.6753 36 29.7139 35.146 29.7139 33.438C29.7139 32.661 29.9412 32.0236 30.396 31.5259C30.8937 30.9816 31.5902 30.7095 32.4854 30.7095C33.291 30.7095 34.0286 30.8384 34.6982 31.0962V35.1943H35.9067V36H34.6982V36.2095C34.6982 36.9328 34.4601 37.5218 33.9839 37.9766C33.4217 38.5137 32.5928 38.7822 31.4971 38.7822ZM33.7046 31.7676C33.3465 31.5957 32.9043 31.5098 32.3779 31.5098C31.8695 31.5098 31.4684 31.6763 31.1748 32.0093C30.8812 32.3387 30.7344 32.7773 30.7344 33.3252C30.7344 34.5713 31.4022 35.1943 32.7378 35.1943H33.7046V31.7676ZM35.7617 35.1943H37.3032V28.2441H38.313V36H35.7617V35.1943ZM40.4023 28.2441H41.4121V36H40.4023V28.2441ZM45.6069 38.8252C45.231 38.8252 44.8496 38.7751 44.4629 38.6748L44.5703 37.8369C44.9105 37.9622 45.2811 38.0249 45.6821 38.0249C46.1691 38.0249 46.5272 37.8906 46.7563 37.6221C47.0177 37.3249 47.1484 36.8325 47.1484 36.145V30.8276H48.1582V36.0537C48.1582 37.9014 47.3078 38.8252 45.6069 38.8252ZM51.209 38.7822C50.6432 38.7822 50.0703 38.7267 49.4902 38.6157L49.5601 37.7725C50.1759 37.9121 50.7614 37.9819 51.3164 37.9819C52.7165 37.9819 53.4165 37.409 53.4165 36.2632V36H52.3101C50.3872 36 49.4258 35.146 49.4258 33.438C49.4258 32.661 49.6532 32.0236 50.1079 31.5259C50.6056 30.9816 51.3021 30.7095 52.1973 30.7095C53.0029 30.7095 53.7406 30.8384 54.4102 31.0962V35.1943H55.6187V36H54.4102V36.2095C54.4102 36.9328 54.172 37.5218 53.6958 37.9766C53.1336 38.5137 52.3047 38.7822 51.209 38.7822ZM53.4165 31.7676C53.0584 31.5957 52.6162 31.5098 52.0898 31.5098C51.5814 31.5098 51.1803 31.6763 50.8867 32.0093C50.5931 32.3387 50.4463 32.7773 50.4463 33.3252C50.4463 34.5713 51.1141 35.1943 52.4497 35.1943H53.4165V31.7676ZM55.4736 35.1943H57.0581V30.8276H58.0679V31.2573C58.0679 32.0164 58.0285 32.6735 57.9497 33.2285H57.9604C58.2111 32.43 58.6193 31.8034 59.1851 31.3486C59.7222 30.9225 60.3184 30.7095 60.9736 30.7095C61.679 30.7095 62.2233 30.9297 62.6064 31.3701C62.986 31.8034 63.1758 32.4157 63.1758 33.207C63.1758 34.0378 62.9359 34.693 62.4561 35.1729C61.9082 35.7243 61.0775 36 59.9639 36H55.4736V35.1943ZM60.0713 35.1943C61.4427 35.1943 62.1284 34.557 62.1284 33.2822C62.1284 32.1006 61.6808 31.5098 60.7856 31.5098C60.0731 31.5098 59.4518 31.9019 58.9219 32.686C58.4385 33.3986 58.1466 34.2347 58.0464 35.1943H60.0713ZM71.0015 28.2441H72.0166V35.1943H73.1929V36H71.9844C71.7839 37.6937 70.8887 38.5405 69.2988 38.5405C67.4941 38.5405 66.5918 37.5182 66.5918 35.4736C66.5918 34.7539 66.6831 34.0575 66.8657 33.3843L67.9131 33.1855C67.7054 33.8981 67.6016 34.6268 67.6016 35.3716C67.6016 36.9507 68.1995 37.7402 69.3955 37.7402C70.4661 37.7402 71.0015 36.974 71.0015 35.4414V28.2441ZM73.0264 35.1943H74.6323V30.8276H75.6421V35.1943H77.3501V36H73.0264V35.1943ZM74.5464 37.6382C74.5464 37.8029 74.4891 37.9425 74.3745 38.0571C74.2599 38.1753 74.1221 38.2344 73.9609 38.2344C73.7962 38.2344 73.6584 38.1771 73.5474 38.0625C73.4364 37.9515 73.3809 37.8101 73.3809 37.6382C73.3809 37.4771 73.4364 37.341 73.5474 37.23C73.6584 37.1154 73.7962 37.0581 73.9609 37.0581C74.1221 37.0581 74.2599 37.1136 74.3745 37.2246C74.4891 37.3356 74.5464 37.4735 74.5464 37.6382ZM76.1631 37.6382C76.1631 37.8029 76.1076 37.9425 75.9966 38.0571C75.8856 38.1753 75.7495 38.2344 75.5884 38.2344C75.4237 38.2344 75.284 38.1771 75.1694 38.0625C75.0549 37.9479 74.9976 37.8065 74.9976 37.6382C74.9976 37.4771 75.0549 37.341 75.1694 37.23C75.284 37.1154 75.4237 37.0581 75.5884 37.0581C75.7495 37.0581 75.8856 37.1136 75.9966 37.2246C76.1076 37.3356 76.1631 37.4735 76.1631 37.6382ZM81.3677 36C80.0894 36 79.2425 35.6545 78.8271 34.9634C78.6338 35.6545 78.0734 36 77.146 36H76.9795V35.1943C77.4235 35.1943 77.7493 35.078 77.957 34.8452C78.2077 34.5659 78.333 34.0825 78.333 33.395C78.333 32.6359 78.5622 32.0093 79.0205 31.5151C79.5218 30.978 80.2093 30.7095 81.083 30.7095C82.6514 30.7095 83.4355 31.5312 83.4355 33.1748V35.1943H84.5366V36H81.3677ZM82.4473 33.3467C82.4473 32.1221 81.9639 31.5098 80.9971 31.5098C80.4886 31.5098 80.0876 31.6781 79.7939 32.0146C79.5003 32.3405 79.3535 32.7809 79.3535 33.3359C79.3535 34.5749 80.0213 35.1943 81.3569 35.1943H82.4473V33.3467ZM84.3701 35.1943H88.9141C88.9642 34.7467 88.9893 34.3708 88.9893 34.0664C88.9893 33.207 88.8138 32.5858 88.4629 32.2026C88.0869 31.7944 87.4603 31.5903 86.583 31.5903C86.1462 31.5903 85.738 31.6154 85.3584 31.6655V30.876C85.7451 30.8151 86.182 30.7847 86.6689 30.7847C87.847 30.7847 88.7028 31.0568 89.2363 31.6011C89.7412 32.1167 89.9937 32.9116 89.9937 33.9858C89.9937 34.3296 89.9704 34.7324 89.9238 35.1943H90.939V36H84.3701V35.1943ZM90.7725 35.1943H92.3784V30.8276H93.3882V36H90.7725V35.1943ZM93.5225 29.8179C93.3577 29.8179 93.2181 29.7624 93.1035 29.6514C92.9854 29.5368 92.9263 29.3936 92.9263 29.2217C92.9263 29.0641 92.9854 28.9281 93.1035 28.8135C93.2181 28.6989 93.3577 28.6416 93.5225 28.6416C93.6836 28.6416 93.8197 28.6971 93.9307 28.8081C94.0381 28.9227 94.0918 29.0605 94.0918 29.2217C94.0918 29.39 94.0381 29.5314 93.9307 29.646C93.8197 29.7606 93.6836 29.8179 93.5225 29.8179ZM91.895 29.8179C91.7303 29.8179 91.5924 29.7624 91.4814 29.6514C91.3669 29.5368 91.3096 29.3936 91.3096 29.2217C91.3096 29.0641 91.3669 28.9281 91.4814 28.8135C91.5924 28.6989 91.7303 28.6416 91.895 28.6416C92.0562 28.6416 92.1922 28.6971 92.3032 28.8081C92.4178 28.9227 92.4751 29.0605 92.4751 29.2217C92.4751 29.3864 92.4178 29.5278 92.3032 29.646C92.1922 29.7606 92.0562 29.8179 91.895 29.8179ZM101.047 36C99.6867 36 98.6948 35.7279 98.0718 35.1836C97.481 34.668 97.1855 33.873 97.1855 32.7988C97.1855 32.1042 97.3073 31.4954 97.5508 30.9727L98.625 30.7847C98.3457 31.354 98.2061 31.986 98.2061 32.6807C98.2061 33.5544 98.4119 34.1828 98.8237 34.5659C99.2785 34.9849 100.059 35.1943 101.166 35.1943H102.1V30.9189C102.748 30.7793 103.42 30.7095 104.114 30.7095C104.999 30.7095 105.638 30.9225 106.032 31.3486C106.39 31.7354 106.569 32.3244 106.569 33.1157V35.1943H107.67V36H105.581V33.25C105.581 32.627 105.459 32.1812 105.215 31.9126C104.975 31.644 104.576 31.5098 104.018 31.5098C103.717 31.5098 103.409 31.5402 103.094 31.6011V36H101.047ZM107.509 35.1943H112.053C112.103 34.7467 112.128 34.3708 112.128 34.0664C112.128 33.207 111.952 32.5858 111.602 32.2026C111.226 31.7944 110.599 31.5903 109.722 31.5903C109.285 31.5903 108.877 31.6154 108.497 31.6655V30.876C108.884 30.8151 109.321 30.7847 109.808 30.7847C110.986 30.7847 111.841 31.0568 112.375 31.6011C112.88 32.1167 113.132 32.9116 113.132 33.9858C113.132 34.6232 113.073 35.2946 112.955 36H107.509V35.1943ZM110.103 38.2451C109.938 38.2451 109.799 38.1878 109.684 38.0732C109.569 37.9587 109.512 37.8172 109.512 37.6489C109.512 37.4842 109.569 37.3446 109.684 37.23C109.799 37.1154 109.938 37.0581 110.103 37.0581C110.271 37.0581 110.415 37.1136 110.533 37.2246C110.651 37.3392 110.71 37.4806 110.71 37.6489C110.71 37.8136 110.651 37.9551 110.533 38.0732C110.415 38.1878 110.271 38.2451 110.103 38.2451ZM114.217 38.8252C113.841 38.8252 113.46 38.7751 113.073 38.6748L113.181 37.8369C113.521 37.9622 113.891 38.0249 114.292 38.0249C114.779 38.0249 115.138 37.8906 115.367 37.6221C115.628 37.3249 115.759 36.8325 115.759 36.145V30.8276H116.769V35.1943H117.977V36H116.769V36.0537C116.769 37.9014 115.918 38.8252 114.217 38.8252ZM117.821 35.1943H120.034V30.8276H121.044V36H117.821V35.1943ZM120.958 37.6382C120.958 37.8029 120.903 37.9425 120.792 38.0571C120.681 38.1753 120.544 38.2344 120.383 38.2344C120.219 38.2344 120.079 38.1771 119.964 38.0625C119.85 37.9479 119.792 37.8065 119.792 37.6382C119.792 37.4771 119.85 37.341 119.964 37.23C120.079 37.1154 120.219 37.0581 120.383 37.0581C120.544 37.0581 120.681 37.1136 120.792 37.2246C120.903 37.3356 120.958 37.4735 120.958 37.6382ZM119.341 37.6382C119.341 37.8029 119.284 37.9425 119.169 38.0571C119.055 38.1753 118.917 38.2344 118.756 38.2344C118.591 38.2344 118.453 38.1771 118.342 38.0625C118.231 37.9515 118.176 37.8101 118.176 37.6382C118.176 37.4771 118.231 37.341 118.342 37.23C118.453 37.1154 118.591 37.0581 118.756 37.0581C118.917 37.0581 119.055 37.1136 119.169 37.2246C119.284 37.3356 119.341 37.4735 119.341 37.6382ZM10.4263 53C8.50342 53 7.54199 52.146 7.54199 50.438C7.54199 49.6574 7.77295 49.0182 8.23486 48.5205C8.73258 47.9798 9.41829 47.7095 10.292 47.7095C11.8604 47.7095 12.6445 48.5312 12.6445 50.1748V53H10.4263ZM11.6562 50.3467C11.6562 49.1221 11.1729 48.5098 10.2061 48.5098C9.69759 48.5098 9.29655 48.6781 9.00293 49.0146C8.70931 49.3405 8.5625 49.7809 8.5625 50.3359C8.5625 51.5749 9.23031 52.1943 10.5659 52.1943H11.6562V50.3467ZM11.0386 46.8179C10.8739 46.8179 10.7342 46.7624 10.6196 46.6514C10.505 46.5368 10.4478 46.3936 10.4478 46.2217C10.4478 46.0641 10.505 45.9281 10.6196 45.8135C10.7342 45.6989 10.8739 45.6416 11.0386 45.6416C11.1997 45.6416 11.3358 45.6971 11.4468 45.8081C11.5578 45.9227 11.6133 46.0605 11.6133 46.2217C11.6133 46.39 11.5578 46.5314 11.4468 46.646C11.3358 46.7606 11.1997 46.8179 11.0386 46.8179ZM9.41113 46.8179C9.24642 46.8179 9.10856 46.7624 8.99756 46.6514C8.88656 46.5368 8.83105 46.3936 8.83105 46.2217C8.83105 46.0641 8.88656 45.9281 8.99756 45.8135C9.10856 45.6989 9.24642 45.6416 9.41113 45.6416C9.57227 45.6416 9.71012 45.6971 9.82471 45.8081C9.93929 45.9227 9.99658 46.0605 9.99658 46.2217C9.99658 46.3864 9.93929 46.5278 9.82471 46.646C9.71012 46.7606 9.57227 46.8179 9.41113 46.8179ZM14.1484 52.1943H17.6772C17.6629 51.181 17.4409 50.3825 17.0112 49.7988C16.5744 49.208 15.8726 48.764 14.9058 48.4668L15.1582 47.6074C16.3434 47.9762 17.2118 48.508 17.7632 49.2026C18.3433 49.9331 18.6494 50.9303 18.6816 52.1943H19.5249V53H14.1484V52.1943ZM19.3799 52.1943H23.9238C23.974 51.7467 23.999 51.3708 23.999 51.0664C23.999 50.207 23.8236 49.5858 23.4727 49.2026C23.0967 48.7944 22.4701 48.5903 21.5928 48.5903C21.1559 48.5903 20.7477 48.6154 20.3682 48.6655V47.876C20.7549 47.8151 21.1917 47.7847 21.6787 47.7847C22.8568 47.7847 23.7126 48.0568 24.2461 48.6011C24.751 49.1167 25.0034 49.9116 25.0034 50.9858C25.0034 51.6232 24.9443 52.2946 24.8262 53H19.3799V52.1943ZM27.7803 55.7822C27.2145 55.7822 26.6416 55.7267 26.0615 55.6157L26.1313 54.7725C26.7472 54.9121 27.3327 54.9819 27.8877 54.9819C29.2878 54.9819 29.9878 54.409 29.9878 53.2632V53H28.8813C26.9585 53 25.9971 52.146 25.9971 50.438C25.9971 49.661 26.2244 49.0236 26.6792 48.5259C27.1769 47.9816 27.8734 47.7095 28.7686 47.7095C29.5742 47.7095 30.3118 47.8384 30.9814 48.0962V52.1943H32.1899V53H30.9814V53.2095C30.9814 53.9328 30.7433 54.5218 30.2671 54.9766C29.7049 55.5137 28.876 55.7822 27.7803 55.7822ZM29.9878 48.7676C29.6297 48.5957 29.1875 48.5098 28.6611 48.5098C28.1527 48.5098 27.7516 48.6763 27.458 49.0093C27.1644 49.3387 27.0176 49.7773 27.0176 50.3252C27.0176 51.5713 27.6854 52.1943 29.021 52.1943H29.9878V48.7676ZM37.2979 50.3467C37.2979 49.1221 36.8145 48.5098 35.8477 48.5098C35.3392 48.5098 34.9382 48.6781 34.6445 49.0146C34.3509 49.3405 34.2041 49.7809 34.2041 50.3359C34.2041 51.5749 34.8719 52.1943 36.2075 52.1943H37.2979V50.3467ZM36.2183 53C34.9399 53 34.0931 52.6545 33.6777 51.9634C33.4844 52.6545 32.924 53 31.9966 53H31.8301V52.1943C32.2741 52.1943 32.5999 52.078 32.8076 51.8452C33.0583 51.5659 33.1836 51.0825 33.1836 50.395C33.1836 49.6359 33.4128 49.0093 33.8711 48.5151C34.3724 47.978 35.0599 47.7095 35.9336 47.7095C37.502 47.7095 38.2861 48.5312 38.2861 50.1748V52.1943H40.5688V45.2441H41.5786V53H36.2183ZM43.668 45.2441H44.6777V53H43.668V45.2441ZM51.2573 53C49.3345 53 48.373 52.146 48.373 50.438C48.373 49.661 48.6004 49.0236 49.0552 48.5259C49.5529 47.9816 50.2493 47.7095 51.1445 47.7095C51.9502 47.7095 52.6878 47.8384 53.3574 48.0962V52.1943H54.5767V53H51.2573ZM52.3638 48.7676C52.0057 48.5957 51.5635 48.5098 51.0371 48.5098C50.5286 48.5098 50.1276 48.6763 49.834 49.0093C49.5404 49.3387 49.3936 49.7773 49.3936 50.3252C49.3936 51.5713 50.0614 52.1943 51.397 52.1943H52.3638V48.7676ZM51.8696 46.8179C51.7049 46.8179 51.5653 46.7624 51.4507 46.6514C51.3361 46.5368 51.2788 46.3936 51.2788 46.2217C51.2788 46.0641 51.3361 45.9281 51.4507 45.8135C51.5653 45.6989 51.7049 45.6416 51.8696 45.6416C52.0308 45.6416 52.1668 45.6971 52.2778 45.8081C52.3888 45.9227 52.4443 46.0605 52.4443 46.2217C52.4443 46.39 52.3888 46.5314 52.2778 46.646C52.1668 46.7606 52.0308 46.8179 51.8696 46.8179ZM50.2422 46.8179C50.0775 46.8179 49.9396 46.7624 49.8286 46.6514C49.7176 46.5368 49.6621 46.3936 49.6621 46.2217C49.6621 46.0641 49.7176 45.9281 49.8286 45.8135C49.9396 45.6989 50.0775 45.6416 50.2422 45.6416C50.4033 45.6416 50.5412 45.6971 50.6558 45.8081C50.7703 45.9227 50.8276 46.0605 50.8276 46.2217C50.8276 46.3864 50.7703 46.5278 50.6558 46.646C50.5412 46.7606 50.4033 46.8179 50.2422 46.8179ZM54.4102 53V52.1943H55.2803C55.5345 52.1943 55.7476 52.214 55.9194 52.2534C55.3752 51.9097 55.103 51.2902 55.103 50.395C55.103 49.6359 55.334 49.0093 55.7959 48.5151C56.2936 47.978 56.9793 47.7095 57.853 47.7095C59.4214 47.7095 60.2056 48.5312 60.2056 50.1748V53H54.4102ZM59.2173 50.3467C59.2173 49.1221 58.7339 48.5098 57.7671 48.5098C57.2586 48.5098 56.8576 48.6781 56.564 49.0146C56.2703 49.3405 56.1235 49.7809 56.1235 50.3359C56.1235 51.5749 56.7913 52.1943 58.127 52.1943H59.2173V50.3467ZM58.5566 46.8179C58.3919 46.8179 58.2523 46.7624 58.1377 46.6514C58.0231 46.5368 57.9658 46.3936 57.9658 46.2217C57.9658 46.0641 58.0231 45.9281 58.1377 45.8135C58.2523 45.6989 58.3919 45.6416 58.5566 45.6416C58.7178 45.6416 58.8538 45.6971 58.9648 45.8081C59.0758 45.9227 59.1313 46.0605 59.1313 46.2217C59.1313 46.39 59.0758 46.5314 58.9648 46.646C58.8538 46.7606 58.7178 46.8179 58.5566 46.8179ZM56.9292 46.8179C56.7645 46.8179 56.6266 46.7624 56.5156 46.6514C56.401 46.5368 56.3438 46.3936 56.3438 46.2217C56.3438 46.0641 56.401 45.9281 56.5156 45.8135C56.6266 45.6989 56.7645 45.6416 56.9292 45.6416C57.0903 45.6416 57.2282 45.6971 57.3428 45.8081C57.4574 45.9227 57.5146 46.0605 57.5146 46.2217C57.5146 46.3864 57.4574 46.5278 57.3428 46.646C57.2282 46.7606 57.0903 46.8179 56.9292 46.8179ZM62.1875 45.2441H63.1973V52.1943H64.4111V53H62.1875V45.2441ZM64.25 52.1943H65.77V45.2441H66.7798V48.2573C66.7798 49.0164 66.7404 49.6735 66.6616 50.2285H66.6724C66.923 49.4264 67.3312 48.7998 67.897 48.3486C68.4341 47.9225 69.0339 47.7095 69.6963 47.7095C70.3981 47.7095 70.9406 47.9297 71.3237 48.3701C71.7033 48.8034 71.8931 49.4157 71.8931 50.207C71.8931 51.0557 71.6442 51.7181 71.1465 52.1943H72.7417V53H64.25V52.1943ZM68.9014 52.1943C70.2012 52.1585 70.8511 51.5212 70.8511 50.2822C70.8511 49.1006 70.3999 48.5098 69.4976 48.5098C68.785 48.5098 68.1637 48.9019 67.6338 49.686C67.1504 50.3986 66.8621 51.2347 66.769 52.1943H68.9014ZM72.5322 52.1943H74.1382V47.8276H75.1479V52.1943H76.3726V53H72.5322V52.1943ZM73.9072 55.2451C73.7425 55.2451 73.6029 55.1878 73.4883 55.0732C73.3701 54.9587 73.311 54.8172 73.311 54.6489C73.311 54.4842 73.3701 54.3446 73.4883 54.23C73.6029 54.1154 73.7425 54.0581 73.9072 54.0581C74.0755 54.0581 74.217 54.1136 74.3315 54.2246C74.4533 54.3392 74.5142 54.4806 74.5142 54.6489C74.5142 54.8136 74.4533 54.9551 74.3315 55.0732C74.2134 55.1878 74.0719 55.2451 73.9072 55.2451ZM76.2061 52.1943H77.7476V45.2441H78.7573V52.1943H79.9658V53H76.2061V52.1943ZM79.8047 52.1943H81.3462V45.2441H82.356V53H79.8047V52.1943ZM90.0903 53C88.7297 53 87.7378 52.7279 87.1147 52.1836C86.5239 51.668 86.2285 50.873 86.2285 49.7988C86.2285 49.1042 86.3503 48.4954 86.5938 47.9727L87.668 47.7847C87.3887 48.354 87.249 48.986 87.249 49.6807C87.249 50.5544 87.4549 51.1828 87.8667 51.5659C88.3215 51.9849 89.1021 52.1943 90.2085 52.1943H91.1431V47.9189C91.7912 47.7793 92.4626 47.7095 93.1572 47.7095C94.0417 47.7095 94.6808 47.9225 95.0747 48.3486C95.4328 48.7354 95.6118 49.3244 95.6118 50.1157V52.1943H96.7129V53H94.6235V50.25C94.6235 49.627 94.5018 49.1812 94.2583 48.9126C94.0184 48.644 93.6191 48.5098 93.0605 48.5098C92.7598 48.5098 92.4518 48.5402 92.1367 48.6011V53H90.0903ZM91.2988 54.6382C91.2988 54.8029 91.2433 54.9425 91.1323 55.0571C91.0213 55.1753 90.887 55.2344 90.7295 55.2344C90.5612 55.2344 90.4198 55.1771 90.3052 55.0625C90.1906 54.9479 90.1333 54.8065 90.1333 54.6382C90.1333 54.4771 90.1906 54.341 90.3052 54.23C90.4233 54.1154 90.5648 54.0581 90.7295 54.0581C90.887 54.0581 91.0213 54.1136 91.1323 54.2246C91.2433 54.3356 91.2988 54.4735 91.2988 54.6382ZM89.6821 54.6382C89.6821 54.8029 89.6248 54.9425 89.5103 55.0571C89.3957 55.1753 89.2596 55.2344 89.1021 55.2344C88.9338 55.2344 88.7941 55.1771 88.6831 55.0625C88.5721 54.9515 88.5166 54.8101 88.5166 54.6382C88.5166 54.4771 88.5721 54.341 88.6831 54.23C88.7977 54.1154 88.9373 54.0581 89.1021 54.0581C89.2596 54.0581 89.3957 54.1136 89.5103 54.2246C89.6248 54.3356 89.6821 54.4735 89.6821 54.6382ZM96.5518 53V52.1943H97.4219C97.6761 52.1943 97.8892 52.214 98.061 52.2534C97.5168 51.9097 97.2446 51.2902 97.2446 50.395C97.2446 49.6359 97.4756 49.0093 97.9375 48.5151C98.4352 47.978 99.1209 47.7095 99.9946 47.7095C101.563 47.7095 102.347 48.5312 102.347 50.1748V53H96.5518ZM101.359 50.3467C101.359 49.1221 100.875 48.5098 99.9087 48.5098C99.4002 48.5098 98.9992 48.6781 98.7056 49.0146C98.4119 49.3405 98.2651 49.7809 98.2651 50.3359C98.2651 51.5749 98.9329 52.1943 100.269 52.1943H101.359V50.3467ZM104.329 45.2441H105.339V52.1943H106.553V53H104.329V45.2441ZM106.392 53V52.1943H107.262C107.516 52.1943 107.729 52.214 107.901 52.2534C107.357 51.9097 107.084 51.2902 107.084 50.395C107.084 49.6359 107.315 49.0093 107.777 48.5151C108.275 47.978 108.961 47.7095 109.834 47.7095C111.403 47.7095 112.187 48.5312 112.187 50.1748V53H106.392ZM111.199 50.3467C111.199 49.1221 110.715 48.5098 109.749 48.5098C109.24 48.5098 108.839 48.6781 108.545 49.0146C108.252 49.3405 108.105 49.7809 108.105 50.3359C108.105 51.5749 108.773 52.1943 110.108 52.1943H111.199V50.3467ZM115.727 51.2061H114.706L112.955 45.3193L113.965 45.1797L115.727 51.2061ZM113.428 53V52.1943H116.828V45.2441H117.848V53H113.428ZM119.938 45.2441H120.947V53H119.938V45.2441ZM80.3687 70C79.008 70 78.0161 69.7279 77.3931 69.1836C76.8022 68.668 76.5068 67.873 76.5068 66.7988C76.5068 66.1042 76.6286 65.4954 76.8721 64.9727L77.9463 64.7847C77.667 65.354 77.5273 65.986 77.5273 66.6807C77.5273 67.5544 77.7332 68.1828 78.145 68.5659C78.5998 68.9849 79.3804 69.1943 80.4868 69.1943H83.1294V62.2441H84.1392V69.1943H85.353V70H80.3687ZM79.2461 64.8867C79.5576 64.8867 79.8101 64.9046 80.0034 64.9404C79.8065 64.8509 79.708 64.6755 79.708 64.4141C79.708 64.1097 79.8136 63.8608 80.0249 63.6675C80.2756 63.4383 80.6354 63.3237 81.1045 63.3237C81.3408 63.3237 81.5396 63.3381 81.7007 63.3667L81.5986 63.9844C81.3337 63.9557 81.1582 63.9414 81.0723 63.9414C80.6605 63.9414 80.4546 64.0918 80.4546 64.3926C80.4546 64.722 80.741 64.8867 81.314 64.8867H81.9102V65.5098H79.2461V64.8867ZM85.1865 69.1943H86.7925V64.8276H87.8022V70H85.1865V69.1943ZM86.5615 72.2451C86.3968 72.2451 86.2572 72.1878 86.1426 72.0732C86.0244 71.9587 85.9653 71.8172 85.9653 71.6489C85.9653 71.4842 86.0244 71.3446 86.1426 71.23C86.2572 71.1154 86.3968 71.0581 86.5615 71.0581C86.7298 71.0581 86.8713 71.1136 86.9858 71.2246C87.1076 71.3392 87.1685 71.4806 87.1685 71.6489C87.1685 71.8136 87.1076 71.9551 86.9858 72.0732C86.8677 72.1878 86.7262 72.2451 86.5615 72.2451ZM94.3013 70C92.3784 70 91.417 69.146 91.417 67.438C91.417 66.661 91.6444 66.0236 92.0991 65.5259C92.5968 64.9816 93.2933 64.7095 94.1885 64.7095C94.9941 64.7095 95.7318 64.8384 96.4014 65.0962V69.1943H97.6206V70H94.3013ZM95.4077 65.7676C95.0496 65.5957 94.6074 65.5098 94.0811 65.5098C93.5726 65.5098 93.1715 65.6763 92.8779 66.0093C92.5843 66.3387 92.4375 66.7773 92.4375 67.3252C92.4375 68.5713 93.1053 69.1943 94.4409 69.1943H95.4077V65.7676ZM94.9136 63.8179C94.7489 63.8179 94.6092 63.7624 94.4946 63.6514C94.38 63.5368 94.3228 63.3936 94.3228 63.2217C94.3228 63.0641 94.38 62.9281 94.4946 62.8135C94.6092 62.6989 94.7489 62.6416 94.9136 62.6416C95.0747 62.6416 95.2108 62.6971 95.3218 62.8081C95.4328 62.9227 95.4883 63.0605 95.4883 63.2217C95.4883 63.39 95.4328 63.5314 95.3218 63.646C95.2108 63.7606 95.0747 63.8179 94.9136 63.8179ZM93.2861 63.8179C93.1214 63.8179 92.9836 63.7624 92.8726 63.6514C92.7616 63.5368 92.7061 63.3936 92.7061 63.2217C92.7061 63.0641 92.7616 62.9281 92.8726 62.8135C92.9836 62.6989 93.1214 62.6416 93.2861 62.6416C93.4473 62.6416 93.5851 62.6971 93.6997 62.8081C93.8143 62.9227 93.8716 63.0605 93.8716 63.2217C93.8716 63.3864 93.8143 63.5278 93.6997 63.646C93.5851 63.7606 93.4473 63.8179 93.2861 63.8179ZM97.4541 69.1943H99.0386V64.8276H100.048V65.2573C100.048 66.0164 100.009 66.6735 99.9302 67.2285H99.9409C100.192 66.43 100.6 65.8034 101.166 65.3486C101.703 64.9225 102.299 64.7095 102.954 64.7095C103.66 64.7095 104.204 64.9297 104.587 65.3701C104.966 65.8034 105.156 66.4157 105.156 67.207C105.156 68.0378 104.916 68.693 104.437 69.1729C103.889 69.7243 103.058 70 101.944 70H97.4541V69.1943ZM102.052 69.1943C103.423 69.1943 104.109 68.557 104.109 67.2822C104.109 66.1006 103.661 65.5098 102.766 65.5098C102.054 65.5098 101.432 65.9019 100.902 66.686C100.419 67.3986 100.127 68.2347 100.027 69.1943H102.052ZM106.832 62.2441H107.842V69.1943H109.056V70H106.832V62.2441ZM108.895 69.1943H113.438C113.489 68.7467 113.514 68.3708 113.514 68.0664C113.514 67.207 113.338 66.5858 112.987 66.2026C112.611 65.7944 111.985 65.5903 111.107 65.5903C110.671 65.5903 110.262 65.6154 109.883 65.6655V64.876C110.27 64.8151 110.706 64.7847 111.193 64.7847C112.371 64.7847 113.227 65.0568 113.761 65.6011C114.266 66.1167 114.518 66.9116 114.518 67.9858C114.518 68.3296 114.495 68.7324 114.448 69.1943H115.463V70H108.895V69.1943ZM111.489 63.6514C111.324 63.6514 111.184 63.5941 111.07 63.4795C110.955 63.3649 110.898 63.2253 110.898 63.0605C110.898 62.8923 110.955 62.749 111.07 62.6309C111.184 62.5127 111.324 62.4536 111.489 62.4536C111.657 62.4536 111.8 62.5127 111.918 62.6309C112.037 62.7454 112.096 62.8887 112.096 63.0605C112.096 63.2253 112.037 63.3649 111.918 63.4795C111.8 63.5941 111.657 63.6514 111.489 63.6514ZM115.297 69.1943H116.838V62.2441H117.848V70H115.297V69.1943ZM119.938 62.2441H120.947V70H119.938V62.2441Z" fill="#1E1E1E"/>
<circle cx="9" cy="10" r="9" fill="#1B3E5D"/>
<path d="M192.667 33C190.644 33 189 34.6016 189 36.5714V54.4286C189 56.3984 190.644 58 192.667 58H218.333C220.356 58 222 56.3984 222 54.4286V36.5714C222 34.6016 220.356 33 218.333 33H192.667ZM197.25 47.2857H200.917C203.449 47.2857 205.5 49.2835 205.5 51.75C205.5 52.2411 205.087 52.6429 204.583 52.6429H193.583C193.079 52.6429 192.667 52.2411 192.667 51.75C192.667 49.2835 194.718 47.2857 197.25 47.2857ZM195.417 41.9286C195.417 40.9814 195.803 40.073 196.491 39.4032C197.178 38.7334 198.111 38.3571 199.083 38.3571C200.056 38.3571 200.988 38.7334 201.676 39.4032C202.364 40.073 202.75 40.9814 202.75 41.9286C202.75 42.8758 202.364 43.7842 201.676 44.454C200.988 45.1237 200.056 45.5 199.083 45.5C198.111 45.5 197.178 45.1237 196.491 44.454C195.803 43.7842 195.417 42.8758 195.417 41.9286ZM210.083 40.1429H217.417C217.921 40.1429 218.333 40.5446 218.333 41.0357C218.333 41.5268 217.921 41.9286 217.417 41.9286H210.083C209.579 41.9286 209.167 41.5268 209.167 41.0357C209.167 40.5446 209.579 40.1429 210.083 40.1429ZM210.083 43.7143H217.417C217.921 43.7143 218.333 44.1161 218.333 44.6071C218.333 45.0982 217.921 45.5 217.417 45.5H210.083C209.579 45.5 209.167 45.0982 209.167 44.6071C209.167 44.1161 209.579 43.7143 210.083 43.7143ZM210.083 47.2857H217.417C217.921 47.2857 218.333 47.6875 218.333 48.1786C218.333 48.6696 217.921 49.0714 217.417 49.0714H210.083C209.579 49.0714 209.167 48.6696 209.167 48.1786C209.167 47.6875 209.579 47.2857 210.083 47.2857Z" fill="#B45F5F"/>
<path d="M7.06934 13V11.813L8.18115 10.5562C9.24463 9.396 9.77637 8.47217 9.77637 7.78467C9.77637 7.48031 9.68685 7.23503 9.50781 7.04883C9.31803 6.85189 9.05127 6.75342 8.70752 6.75342C8.25635 6.75342 7.79801 6.89307 7.33252 7.17236L7.12305 5.89404C7.71029 5.60758 8.36735 5.46436 9.09424 5.46436C9.81755 5.46436 10.3797 5.66667 10.7808 6.07129C11.1532 6.44368 11.3394 6.93424 11.3394 7.54297C11.3394 8.50977 10.7557 9.63232 9.58838 10.9106L8.92773 11.6895C9.43978 11.6608 10.3171 11.6465 11.5596 11.6465V13H7.06934Z" fill="white"/>
</svg>
