<svg width="40" height="35" viewBox="0 0 40 35" fill="none" xmlns="http://www.w3.org/2000/svg">
<g clip-path="url(#clip0_40_727)">
<path d="M26.4913 7.62207L27.5263 24.6436L26.7724 24.623C24.2912 24.5684 21.8648 25.2246 19.7331 26.5371C17.6083 25.2246 15.182 24.623 12.6939 24.623C9.56841 24.623 7.06664 25.3545 4.22901 26.5166L6.38122 8.85938C8.33466 8.05273 10.5965 7.62207 12.7008 7.62207C15.5247 7.62207 17.7591 8.52441 19.74 10.5273C21.6386 8.59277 23.784 7.67676 26.4913 7.62207ZM39.007 30.625C37.2592 30.625 35.7513 30.2695 34.1749 29.5586C31.8239 28.4922 29.377 27.8496 26.7792 27.8496C24.1061 27.8496 21.6455 28.7314 19.74 30.625C17.8414 28.7314 15.3739 27.8496 12.7008 27.8496C10.103 27.8496 7.6561 28.4854 5.30512 29.5586C3.78349 30.2285 2.24131 30.625 0.568889 30.625H0.472931L3.39281 6.76074C6.07964 5.23633 9.35593 4.375 12.4609 4.375C14.9969 4.375 17.6152 4.90137 19.74 6.36426C21.8648 4.90137 24.4831 4.375 27.0191 4.375C30.1241 4.375 33.3935 5.23633 36.0872 6.76074L39.007 30.625ZM36.0323 27.5693L33.7019 8.41504C31.5977 7.45801 29.0959 6.95215 26.7792 6.95215C24.1472 6.95215 21.6797 7.7793 19.74 9.59766C17.8003 7.7793 15.3396 6.95215 12.7008 6.95215C10.3841 6.95215 7.88228 7.45801 5.77806 8.41504L3.44764 27.5693C6.68281 26.2363 9.12974 25.2793 12.7008 25.2793C15.2779 25.2793 17.5535 25.9355 19.74 27.3027C21.9196 25.9355 24.2021 25.2793 26.7792 25.2793C30.3571 25.2793 32.7972 26.2363 36.0323 27.5693Z" fill="#1B3E5D"/>
</g>
<defs>
<clipPath id="clip0_40_727">
<rect width="39.48" height="35" fill="white"/>
</clipPath>
</defs>
</svg>
