<svg width="13" height="13" viewBox="0 0 13 13" fill="none" xmlns="http://www.w3.org/2000/svg">
<g clip-path="url(#clip0_40_225)">
<path d="M1.0389 6.77151C0.725303 6.46769 0.725303 5.97428 1.0389 5.67046L5.05299 1.78158C5.36659 1.47776 5.87588 1.47776 6.18948 1.78158C6.50308 2.08539 6.50308 2.5788 6.18948 2.88262L2.74238 6.2222L6.18697 9.56178C6.50057 9.8656 6.50057 10.359 6.18697 10.6628C5.87337 10.9666 5.36408 10.9666 5.05048 10.6628L1.03639 6.77394L1.0389 6.77151ZM9.86989 10.6604L5.8558 6.77151C5.5422 6.46769 5.5422 5.97428 5.8558 5.67046L9.86989 1.78158C10.1835 1.47776 10.6928 1.47776 11.0064 1.78158C11.32 2.08539 11.32 2.5788 11.0064 2.88262L7.55928 6.2222L11.0039 9.56178C11.3175 9.8656 11.3175 10.359 11.0039 10.6628C10.6903 10.9666 10.181 10.9666 9.86738 10.6628L9.86989 10.6604Z" fill="white"/>
</g>
<defs>
<clipPath id="clip0_40_225">
<rect width="12.8451" height="12.4444" fill="white" transform="matrix(-1 0 0 1 12.8453 0)"/>
</clipPath>
</defs>
</svg>
