<svg width="36" height="29" viewBox="0 0 36 29" fill="none" xmlns="http://www.w3.org/2000/svg">
<g clip-path="url(#clip0_40_704)">
<path d="M2.7 2.7H7.65C8.39812 2.7 9 2.09812 9 1.35C9 0.601875 8.39812 0 7.65 0H1.8C0.804375 0 0 0.804375 0 1.8V7.65C0 8.39812 0.601875 9 1.35 9C2.09812 9 2.7 8.39812 2.7 7.65V2.7ZM9.88875 12.6C10.2433 12.6 10.5944 12.5302 10.922 12.3945C11.2496 12.2588 11.5472 12.0599 11.7979 11.8092C12.0487 11.5585 12.2475 11.2608 12.3832 10.9332C12.5189 10.6057 12.5887 10.2546 12.5887 9.9C12.5887 9.54543 12.5189 9.19433 12.3832 8.86675C12.2475 8.53918 12.0487 8.24153 11.7979 7.99081C11.5472 7.74009 11.2496 7.54121 10.922 7.40552C10.5944 7.26984 10.2433 7.2 9.88875 7.2C9.53418 7.2 9.18308 7.26984 8.8555 7.40552C8.52793 7.54121 8.23028 7.74009 7.97956 7.99081C7.72884 8.24153 7.52996 8.53918 7.39428 8.86675C7.25859 9.19433 7.18875 9.54543 7.18875 9.9C7.18875 10.2546 7.25859 10.6057 7.39428 10.9332C7.52996 11.2608 7.72884 11.5585 7.97956 11.8092C8.23028 12.0599 8.52793 12.2588 8.8555 12.3945C9.18308 12.5302 9.53418 12.6 9.88875 12.6ZM8.39812 14.4C6.74438 14.4 5.4 15.7444 5.4 17.3981C5.4 18.225 6.06937 18.9 6.90187 18.9H10.0575C10.5075 16.9819 11.9025 15.4294 13.725 14.76C13.3031 14.5294 12.8137 14.4 12.3019 14.4H8.40375H8.39812ZM29.0981 18.9C29.925 18.9 30.6 18.2306 30.6 17.3981C30.6 15.7387 29.2556 14.4 27.6019 14.4H23.7037C23.1862 14.4 22.7025 14.5294 22.2806 14.76C24.1031 15.4294 25.4981 16.9819 25.9481 18.9H29.1038H29.0981ZM24.0694 18.9C23.5856 17.5331 22.3875 16.5037 20.925 16.2563C20.7056 16.2169 20.4806 16.2 20.25 16.2H15.75C15.5194 16.2 15.2944 16.2169 15.075 16.2563C13.6125 16.5037 12.4144 17.5331 11.9306 18.9C11.7788 19.3219 11.7 19.7775 11.7 20.25C11.7 20.9981 12.3019 21.6 13.05 21.6H22.95C23.6981 21.6 24.3 20.9981 24.3 20.25C24.3 19.7775 24.2212 19.3219 24.0694 18.9ZM26.1 12.6C26.4546 12.6 26.8057 12.5302 27.1332 12.3945C27.4608 12.2588 27.7585 12.0599 28.0092 11.8092C28.2599 11.5585 28.4588 11.2608 28.5945 10.9332C28.7302 10.6057 28.8 10.2546 28.8 9.9C28.8 9.54543 28.7302 9.19433 28.5945 8.86675C28.4588 8.53918 28.2599 8.24153 28.0092 7.99081C27.7585 7.74009 27.4608 7.54121 27.1332 7.40552C26.8057 7.26984 26.4546 7.2 26.1 7.2C25.7454 7.2 25.3943 7.26984 25.0668 7.40552C24.7392 7.54121 24.4415 7.74009 24.1908 7.99081C23.9401 8.24153 23.7412 8.53918 23.6055 8.86675C23.4698 9.19433 23.4 9.54543 23.4 9.9C23.4 10.2546 23.4698 10.6057 23.6055 10.9332C23.7412 11.2608 23.9401 11.5585 24.1908 11.8092C24.4415 12.0599 24.7392 12.2588 25.0668 12.3945C25.3943 12.5302 25.7454 12.6 26.1 12.6ZM21.6 10.8C21.6 9.84522 21.2207 8.92955 20.5456 8.25442C19.8705 7.57928 18.9548 7.2 18 7.2C17.0452 7.2 16.1295 7.57928 15.4544 8.25442C14.7793 8.92955 14.4 9.84522 14.4 10.8C14.4 11.7548 14.7793 12.6705 15.4544 13.3456C16.1295 14.0207 17.0452 14.4 18 14.4C18.9548 14.4 19.8705 14.0207 20.5456 13.3456C21.2207 12.6705 21.6 11.7548 21.6 10.8ZM28.35 2.7H33.3V7.65C33.3 8.39812 33.9019 9 34.65 9C35.3981 9 36 8.39812 36 7.65V1.8C36 0.804375 35.1956 0 34.2 0H28.35C27.6019 0 27 0.601875 27 1.35C27 2.09812 27.6019 2.7 28.35 2.7ZM2.7 26.1V21.15C2.7 20.4019 2.09812 19.8 1.35 19.8C0.601875 19.8 0 20.4019 0 21.15V27C0 27.9956 0.804375 28.8 1.8 28.8H7.65C8.39812 28.8 9 28.1981 9 27.45C9 26.7019 8.39812 26.1 7.65 26.1H2.7ZM28.35 26.1C27.6019 26.1 27 26.7019 27 27.45C27 28.1981 27.6019 28.8 28.35 28.8H34.2C35.1956 28.8 36 27.9956 36 27V21.15C36 20.4019 35.3981 19.8 34.65 19.8C33.9019 19.8 33.3 20.4019 33.3 21.15V26.1H28.35Z" fill="#C96868"/>
</g>
<defs>
<clipPath id="clip0_40_704">
<rect width="36" height="28.8" fill="white"/>
</clipPath>
</defs>
</svg>
