<svg width="16" height="13" viewBox="0 0 16 13" fill="none" xmlns="http://www.w3.org/2000/svg">
<path d="M14.7062 6.77151C15.0969 6.46769 15.0969 5.97428 14.7062 5.67046L9.70624 1.78158C9.31562 1.47776 8.68124 1.47776 8.29062 1.78158C7.89999 2.08539 7.89999 2.5788 8.29062 2.88262L12.5844 6.2222L8.29374 9.56178C7.90312 9.8656 7.90312 10.359 8.29374 10.6628C8.68437 10.9666 9.31874 10.9666 9.70937 10.6628L14.7094 6.77394L14.7062 6.77151ZM3.70624 10.6604L8.70624 6.77151C9.09687 6.46769 9.09687 5.97428 8.70624 5.67046L3.70624 1.78158C3.31562 1.47776 2.68124 1.47776 2.29062 1.78158C1.89999 2.08539 1.89999 2.5788 2.29062 2.88262L6.58437 6.2222L2.29374 9.56178C1.90312 9.8656 1.90312 10.359 2.29374 10.6628C2.68437 10.9666 3.31874 10.9666 3.70937 10.6628L3.70624 10.6604Z" fill="white"/>
</svg>
