<svg width="92" height="92" viewBox="0 0 92 92" fill="none" xmlns="http://www.w3.org/2000/svg">
<circle cx="46" cy="46" r="45" fill="white" stroke="#141E27" stroke-dasharray="12 6"/>
<path d="M28.925 32.9062H34.2875C35.098 32.9062 35.75 32.2584 35.75 31.4531C35.75 30.6479 35.098 30 34.2875 30H27.95C26.8714 30 26 30.8658 26 31.9375V38.2344C26 39.0396 26.652 39.6875 27.4625 39.6875C28.273 39.6875 28.925 39.0396 28.925 38.2344V32.9062ZM36.7128 43.5625C37.0969 43.5625 37.4773 43.4873 37.8322 43.3413C38.187 43.1952 38.5095 42.9811 38.7811 42.7113C39.0527 42.4414 39.2682 42.121 39.4152 41.7684C39.5622 41.4158 39.6378 41.0379 39.6378 40.6562C39.6378 40.2746 39.5622 39.8967 39.4152 39.5441C39.2682 39.1915 39.0527 38.8711 38.7811 38.6012C38.5095 38.3314 38.187 38.1173 37.8322 37.9712C37.4773 37.8252 37.0969 37.75 36.7128 37.75C36.3287 37.75 35.9483 37.8252 35.5935 37.9712C35.2386 38.1173 34.9161 38.3314 34.6445 38.6012C34.3729 38.8711 34.1575 39.1915 34.0105 39.5441C33.8635 39.8967 33.7878 40.2746 33.7878 40.6562C33.7878 41.0379 33.8635 41.4158 34.0105 41.7684C34.1575 42.121 34.3729 42.4414 34.6445 42.7113C34.9161 42.9811 35.2386 43.1952 35.5935 43.3413C35.9483 43.4873 36.3287 43.5625 36.7128 43.5625ZM35.098 45.5C33.3064 45.5 31.85 46.9471 31.85 48.7271C31.85 49.6172 32.5752 50.3438 33.477 50.3438H36.8956C37.3831 48.2791 38.8944 46.608 40.8688 45.8875C40.4117 45.6393 39.8816 45.5 39.327 45.5H35.1041H35.098ZM57.523 50.3438C58.4188 50.3438 59.15 49.6232 59.15 48.7271C59.15 46.941 57.6936 45.5 55.902 45.5H51.6791C51.1184 45.5 50.5944 45.6393 50.1373 45.8875C52.1117 46.608 53.623 48.2791 54.1105 50.3438H57.5291H57.523ZM52.0752 50.3438C51.5511 48.8725 50.2531 47.7645 48.6688 47.498C48.4311 47.4557 48.1873 47.4375 47.9375 47.4375H43.0625C42.8127 47.4375 42.5689 47.4557 42.3313 47.498C40.7469 47.7645 39.4489 48.8725 38.9248 50.3438C38.7603 50.7979 38.675 51.2883 38.675 51.7969C38.675 52.6021 39.327 53.25 40.1375 53.25H50.8625C51.673 53.25 52.325 52.6021 52.325 51.7969C52.325 51.2883 52.2397 50.7979 52.0752 50.3438ZM54.275 43.5625C54.6591 43.5625 55.0395 43.4873 55.3944 43.3413C55.7492 43.1952 56.0717 42.9811 56.3433 42.7113C56.6149 42.4414 56.8304 42.121 56.9773 41.7684C57.1243 41.4158 57.2 41.0379 57.2 40.6562C57.2 40.2746 57.1243 39.8967 56.9773 39.5441C56.8304 39.1915 56.6149 38.8711 56.3433 38.6012C56.0717 38.3314 55.7492 38.1173 55.3944 37.9712C55.0395 37.8252 54.6591 37.75 54.275 37.75C53.8909 37.75 53.5105 37.8252 53.1557 37.9712C52.8008 38.1173 52.4783 38.3314 52.2067 38.6012C51.9351 38.8711 51.7196 39.1915 51.5727 39.5441C51.4257 39.8967 51.35 40.2746 51.35 40.6562C51.35 41.0379 51.4257 41.4158 51.5727 41.7684C51.7196 42.121 51.9351 42.4414 52.2067 42.7113C52.4783 42.9811 52.8008 43.1952 53.1557 43.3413C53.5105 43.4873 53.8909 43.5625 54.275 43.5625ZM49.4 41.625C49.4 40.5973 48.9891 39.6117 48.2577 38.885C47.5263 38.1583 46.5343 37.75 45.5 37.75C44.4657 37.75 43.4737 38.1583 42.7423 38.885C42.0109 39.6117 41.6 40.5973 41.6 41.625C41.6 42.6527 42.0109 43.6383 42.7423 44.365C43.4737 45.0917 44.4657 45.5 45.5 45.5C46.5343 45.5 47.5263 45.0917 48.2577 44.365C48.9891 43.6383 49.4 42.6527 49.4 41.625ZM56.7125 32.9062H62.075V38.2344C62.075 39.0396 62.727 39.6875 63.5375 39.6875C64.348 39.6875 65 39.0396 65 38.2344V31.9375C65 30.8658 64.1286 30 63.05 30H56.7125C55.902 30 55.25 30.6479 55.25 31.4531C55.25 32.2584 55.902 32.9062 56.7125 32.9062ZM28.925 58.0938V52.7656C28.925 51.9604 28.273 51.3125 27.4625 51.3125C26.652 51.3125 26 51.9604 26 52.7656V59.0625C26 60.1342 26.8714 61 27.95 61H34.2875C35.098 61 35.75 60.3521 35.75 59.5469C35.75 58.7416 35.098 58.0938 34.2875 58.0938H28.925ZM56.7125 58.0938C55.902 58.0938 55.25 58.7416 55.25 59.5469C55.25 60.3521 55.902 61 56.7125 61H63.05C64.1286 61 65 60.1342 65 59.0625V52.7656C65 51.9604 64.348 51.3125 63.5375 51.3125C62.727 51.3125 62.075 51.9604 62.075 52.7656V58.0938H56.7125Z" fill="#1B3E5D"/>
</svg>
