<svg width="38" height="56" viewBox="0 0 38 56" fill="none" xmlns="http://www.w3.org/2000/svg">
<circle cx="28" cy="28" r="28" fill="#1B3E5D"/>
<rect x="28" width="40" height="56" fill="#1B3E5D"/>
<path d="M14.5363 28.3388C14.0725 27.8749 14.0725 27.1216 14.5363 26.6577L20.4738 20.7202C20.9377 20.2563 21.691 20.2563 22.1549 20.7202C22.6187 21.1841 22.6187 21.9374 22.1549 22.4013L17.056 27.5001L22.1512 32.5989C22.615 33.0628 22.615 33.8161 22.1512 34.28C21.6873 34.7438 20.934 34.7438 20.4701 34.28L14.5326 28.3425L14.5363 28.3388ZM27.5988 34.2763L21.6613 28.3388C21.1975 27.8749 21.1975 27.1216 21.6613 26.6577L27.5988 20.7202C28.0627 20.2563 28.816 20.2563 29.2799 20.7202C29.7437 21.1841 29.7437 21.9374 29.2799 22.4013L24.181 27.5001L29.2762 32.5989C29.74 33.0628 29.74 33.8161 29.2762 34.28C28.8123 34.7438 28.059 34.7438 27.5951 34.28L27.5988 34.2763Z" fill="white"/>
</svg>
