<svg width="92" height="92" viewBox="0 0 92 92" fill="none" xmlns="http://www.w3.org/2000/svg">
<circle cx="46" cy="46" r="45" fill="white" stroke="#141E27" stroke-dasharray="12 6"/>
<path d="M45.5 41.5C47.3944 41.5 49.2112 40.7362 50.5508 39.3765C51.8903 38.0169 52.6429 36.1728 52.6429 34.25C52.6429 32.3272 51.8903 30.4831 50.5508 29.1235C49.2112 27.7638 47.3944 27 45.5 27C43.6056 27 41.7888 27.7638 40.4492 29.1235C39.1097 30.4831 38.3571 32.3272 38.3571 34.25C38.3571 36.1728 39.1097 38.0169 40.4492 39.3765C41.7888 40.7362 43.6056 41.5 45.5 41.5ZM42.9498 44.2188C37.4531 44.2188 33 48.7387 33 54.3178C33 55.2467 33.7422 56 34.6574 56H56.3426C57.2578 56 58 55.2467 58 54.3178C58 48.7387 53.5469 44.2188 48.0502 44.2188H42.9498Z" fill="#528379"/>
</svg>
