<svg width="35" height="35" viewBox="0 0 35 35" fill="none" xmlns="http://www.w3.org/2000/svg">
<g clip-path="url(#clip0_40_698)">
<path d="M32.8125 2.18728C32.8125 1.30544 32.2793 0.505637 31.459 0.16384C30.6387 -0.177957 29.7021 0.0134491 29.0732 0.635519L26.0928 3.62282C22.8115 6.90407 18.3613 8.74978 13.7197 8.74978H13.125H10.9375H4.375C1.96191 8.74978 0 10.7117 0 13.1248V19.6873C0 22.1004 1.96191 24.0623 4.375 24.0623V32.8123C4.375 34.0222 5.35254 34.9998 6.5625 34.9998H10.9375C12.1475 34.9998 13.125 34.0222 13.125 32.8123V24.0623H13.7197C18.3613 24.0623 22.8115 25.908 26.0928 29.1892L29.0732 32.1697C29.7021 32.7986 30.6387 32.9832 31.459 32.6414C32.2793 32.2996 32.8125 31.5066 32.8125 30.6179V20.5281C34.084 19.9265 35 18.3064 35 16.3992C35 14.492 34.084 12.8718 32.8125 12.2703V2.18728ZM28.4375 7.43044V16.406V25.3816C24.418 21.7244 19.1748 19.6873 13.7197 19.6873H13.125V13.1248H13.7197C19.1748 13.1248 24.418 11.0877 28.4375 7.43044Z" fill="#528379"/>
</g>
<defs>
<clipPath id="clip0_40_698">
<rect width="35" height="35" fill="white"/>
</clipPath>
</defs>
</svg>
