<svg width="18" height="18" viewBox="0 0 18 18" fill="none" xmlns="http://www.w3.org/2000/svg">
<circle cx="9" cy="9" r="9" fill="#1B3E5D"/>
<path d="M11.522 9.69043C11.522 10.4066 11.2391 10.9902 10.6733 11.4414C10.1112 11.8854 9.38786 12.1074 8.50342 12.1074C8.00928 12.1074 7.5957 12.0609 7.2627 11.9678L7.41846 10.7324C7.69417 10.8363 8.06836 10.8882 8.54102 10.8882C8.99219 10.8882 9.35026 10.7826 9.61523 10.5713C9.87305 10.3708 10.002 10.1058 10.002 9.77637C10.002 9.08171 9.47738 8.73438 8.42822 8.73438C8.14893 8.73438 7.8929 8.75228 7.66016 8.78809V7.65479C9.07454 7.69417 9.78174 7.31999 9.78174 6.53223C9.78174 5.94499 9.43262 5.65137 8.73438 5.65137C8.34408 5.65137 7.93766 5.75521 7.51514 5.96289L7.40771 4.78662C7.9305 4.57178 8.49805 4.46436 9.11035 4.46436C9.79785 4.46436 10.335 4.63444 10.7217 4.97461C11.0833 5.29329 11.2642 5.71761 11.2642 6.24756C11.2642 7.07829 10.8685 7.63867 10.0771 7.92871L10.0664 7.9502C10.5176 8.0612 10.8721 8.27246 11.1299 8.58398C11.3913 8.89551 11.522 9.26432 11.522 9.69043Z" fill="white"/>
</svg>
