<svg width="28" height="37" viewBox="0 0 28 37" fill="none" xmlns="http://www.w3.org/2000/svg">
<g clip-path="url(#clip0_40_716)">
<path d="M13.875 0C10.8543 0 8.28164 1.92949 7.33496 4.625H4.625C2.07402 4.625 0 6.69902 0 9.25V32.375C0 34.926 2.07402 37 4.625 37H23.125C25.676 37 27.75 34.926 27.75 32.375V9.25C27.75 6.69902 25.676 4.625 23.125 4.625H20.415C19.4684 1.92949 16.8957 0 13.875 0ZM13.875 4.625C14.4883 4.625 15.0765 4.86864 15.5102 5.30232C15.9439 5.73599 16.1875 6.32419 16.1875 6.9375C16.1875 7.55081 15.9439 8.13901 15.5102 8.57268C15.0765 9.00636 14.4883 9.25 13.875 9.25C13.2617 9.25 12.6735 9.00636 12.2398 8.57268C11.8061 8.13901 11.5625 7.55081 11.5625 6.9375C11.5625 6.32419 11.8061 5.73599 12.2398 5.30232C12.6735 4.86864 13.2617 4.625 13.875 4.625ZM5.20312 19.6562C5.20312 19.1963 5.38585 18.7551 5.71111 18.4299C6.03637 18.1046 6.47752 17.9219 6.9375 17.9219C7.39748 17.9219 7.83863 18.1046 8.16389 18.4299C8.48915 18.7551 8.67188 19.1963 8.67188 19.6562C8.67188 20.1162 8.48915 20.5574 8.16389 20.8826C7.83863 21.2079 7.39748 21.3906 6.9375 21.3906C6.47752 21.3906 6.03637 21.2079 5.71111 20.8826C5.38585 20.5574 5.20312 20.1162 5.20312 19.6562ZM12.7188 18.5H21.9688C22.6047 18.5 23.125 19.0203 23.125 19.6562C23.125 20.2922 22.6047 20.8125 21.9688 20.8125H12.7188C12.0828 20.8125 11.5625 20.2922 11.5625 19.6562C11.5625 19.0203 12.0828 18.5 12.7188 18.5ZM5.20312 26.5938C5.20312 26.1338 5.38585 25.6926 5.71111 25.3674C6.03637 25.0421 6.47752 24.8594 6.9375 24.8594C7.39748 24.8594 7.83863 25.0421 8.16389 25.3674C8.48915 25.6926 8.67188 26.1338 8.67188 26.5938C8.67188 27.0537 8.48915 27.4949 8.16389 27.8201C7.83863 28.1454 7.39748 28.3281 6.9375 28.3281C6.47752 28.3281 6.03637 28.1454 5.71111 27.8201C5.38585 27.4949 5.20312 27.0537 5.20312 26.5938ZM11.5625 26.5938C11.5625 25.9578 12.0828 25.4375 12.7188 25.4375H21.9688C22.6047 25.4375 23.125 25.9578 23.125 26.5938C23.125 27.2297 22.6047 27.75 21.9688 27.75H12.7188C12.0828 27.75 11.5625 27.2297 11.5625 26.5938Z" fill="#3974A8"/>
</g>
<defs>
<clipPath id="clip0_40_716">
<rect width="27.75" height="37" fill="white"/>
</clipPath>
</defs>
</svg>
