<svg width="20" height="24" viewBox="0 0 20 24" fill="none" xmlns="http://www.w3.org/2000/svg">
<g clip-path="url(#clip0_40_732)">
<path d="M9.96229 6.60928C7.13497 6.60928 4.85445 9.01397 4.85445 11.9952C4.85445 14.9765 7.13497 17.3812 9.96229 17.3812C12.7896 17.3812 15.0701 14.9765 15.0701 11.9952C15.0701 9.01397 12.7896 6.60928 9.96229 6.60928ZM9.96229 15.4968C8.1352 15.4968 6.64153 13.9265 6.64153 11.9952C6.64153 10.064 8.13075 8.49365 9.96229 8.49365C11.7938 8.49365 13.283 10.064 13.283 11.9952C13.283 13.9265 11.7894 15.4968 9.96229 15.4968ZM16.4704 6.38897C16.4704 7.0874 15.937 7.64522 15.2791 7.64522C14.6167 7.64522 14.0877 7.08272 14.0877 6.38897C14.0877 5.69522 14.6211 5.13271 15.2791 5.13271C15.937 5.13271 16.4704 5.69522 16.4704 6.38897ZM19.8534 7.66397C19.7779 5.98115 19.4133 4.49053 18.2442 3.2624C17.0795 2.03428 15.6658 1.6499 14.0699 1.56553C12.4251 1.46709 7.49505 1.46709 5.85023 1.56553C4.25876 1.64521 2.8451 2.02959 1.67595 3.25771C0.50679 4.48584 0.146708 5.97646 0.0666896 7.65928C-0.0266651 9.39365 -0.0266651 14.5921 0.0666896 16.3265C0.142262 18.0093 0.50679 19.4999 1.67595 20.728C2.8451 21.9562 4.25431 22.3405 5.85023 22.4249C7.49505 22.5233 12.4251 22.5233 14.0699 22.4249C15.6658 22.3452 17.0795 21.9608 18.2442 20.728C19.4089 19.4999 19.7734 18.0093 19.8534 16.3265C19.9468 14.5921 19.9468 9.39834 19.8534 7.66397ZM17.7285 18.1874C17.3818 19.1062 16.7105 19.814 15.8347 20.1843C14.5233 20.7327 11.4115 20.6062 9.96229 20.6062C8.51306 20.6062 5.3968 20.728 4.08983 20.1843C3.21852 19.8187 2.54726 19.1108 2.19607 18.1874C1.67595 16.8046 1.79597 13.5233 1.79597 11.9952C1.79597 10.4671 1.68039 7.18115 2.19607 5.80303C2.54281 4.88428 3.21408 4.17646 4.08983 3.80615C5.40124 3.25771 8.51306 3.38428 9.96229 3.38428C11.4115 3.38428 14.5278 3.2624 15.8347 3.80615C16.706 4.17178 17.3773 4.87959 17.7285 5.80303C18.2486 7.18584 18.1286 10.4671 18.1286 11.9952C18.1286 13.5233 18.2486 16.8093 17.7285 18.1874Z" fill="#1B3E5D"/>
</g>
<defs>
<clipPath id="clip0_40_732">
<rect width="19.9157" height="24" fill="white"/>
</clipPath>
</defs>
</svg>
