<svg width="149" height="23" viewBox="0 0 149 23" fill="none" xmlns="http://www.w3.org/2000/svg">
<g clip-path="url(#clip0_23_101)">
<path d="M2.12383 8.34975L1.32211 9.81303H0V9.7353L1.38544 7.57925L2.12383 8.34975ZM5.33782 8.6255C5.01429 8.6255 4.7447 8.5783 4.52904 8.48409C4.31331 8.38982 4.13048 8.24607 3.98047 8.05288C3.83046 7.8597 3.68279 7.60991 3.53744 7.30363L3.00291 6.02415L3.46713 6.14428C3.26544 6.14903 3.08148 6.18082 2.91502 6.23971C2.74857 6.29868 2.60675 6.37524 2.48957 6.46946C2.37231 6.56369 2.2821 6.6709 2.21885 6.7911C2.15553 6.91122 2.12383 7.03497 2.12383 7.16216C2.12383 7.32716 2.16957 7.465 2.26099 7.57569C2.35241 7.68649 2.47312 7.77014 2.6232 7.82669C2.77321 7.88324 2.9326 7.91154 3.10139 7.91154C3.30766 7.91154 3.50341 7.88801 3.68864 7.84081C3.87381 7.79367 4.02269 7.7419 4.13521 7.68535L4.27582 7.75602L3.98753 8.76684C3.79997 8.84692 3.61007 8.90939 3.41785 8.95423C3.22563 8.99889 3.04745 9.02134 2.8834 9.02134C2.72866 9.02134 2.56461 9.00366 2.39109 8.96835C2.21758 8.93299 2.04533 8.87402 1.87422 8.79158C1.70303 8.70915 1.54829 8.60075 1.41008 8.46641C1.27171 8.33207 1.16152 8.16598 1.07949 7.96809C0.997463 7.77014 0.956455 7.53682 0.956455 7.26826C0.956455 6.89597 1.03735 6.57078 1.19908 6.29279C1.3608 6.01472 1.57759 5.78149 1.84958 5.59297C2.1215 5.40444 2.42392 5.26302 2.75676 5.16879C3.08967 5.07457 3.42724 5.02746 3.76947 5.02746L3.9031 5.10522L4.48683 6.65323C4.60408 6.95486 4.74358 7.1834 4.9053 7.33893C5.06702 7.49446 5.25812 7.57225 5.47843 7.57225V8.48409L5.33782 8.6255ZM6.95532 7.57225V8.48409L6.8147 8.6255H5.33782V7.71359L5.47843 7.57225H6.95532ZM6.8147 8.6255V7.71359L6.95532 7.57225H8.25639L7.84852 7.76302C7.79226 7.70647 7.75353 7.60755 7.73245 7.46615C7.71132 7.32481 7.70081 7.15516 7.70081 6.9572V4.9709L8.8612 4.84361H8.93847V7.31062C8.93847 7.40496 8.93967 7.52155 8.94208 7.6606C8.94442 7.79959 8.9491 7.93622 8.95613 8.07057C8.96315 8.20485 8.97606 8.31445 8.99479 8.3993V8.45585C8.85418 8.5124 8.68305 8.55476 8.48143 8.58307C8.2798 8.61131 8.03135 8.6255 7.736 8.6255H6.8147ZM7.89067 9.67162C7.89067 9.49262 7.94579 9.35466 8.05596 9.2581C8.16608 9.16154 8.2986 9.11326 8.45327 9.11326C8.608 9.11326 8.73931 9.16154 8.84709 9.2581C8.95493 9.35466 9.00891 9.49262 9.00891 9.67162C9.00891 9.84604 8.95493 9.98267 8.84709 10.0816C8.73931 10.1806 8.608 10.2301 8.45327 10.2301C8.2986 10.2301 8.16608 10.1806 8.05596 10.0816C7.94579 9.98267 7.89067 9.84604 7.89067 9.67162ZM6.61769 9.81303C6.61769 9.63861 6.67167 9.50318 6.77951 9.40662C6.88728 9.31 7.02094 9.26166 7.18036 9.26166C7.33509 9.26166 7.4652 9.31 7.5707 9.40662C7.67619 9.50318 7.72891 9.63861 7.72891 9.81303C7.72891 9.99209 7.67619 10.1311 7.5707 10.2301C7.4652 10.329 7.33275 10.3786 7.17333 10.3786C7.0186 10.3786 6.88728 10.329 6.77951 10.2301C6.67167 10.1311 6.61769 9.99209 6.61769 9.81303ZM12.1947 8.6255V7.57225H13.341V8.48409L13.2004 8.6255H12.1947ZM9.50816 9.31821C9.63011 9.34645 9.752 9.37119 9.87382 9.39244C9.99577 9.41362 10.1177 9.42424 10.2396 9.42424C10.4271 9.42424 10.5948 9.40065 10.7424 9.35357C10.8902 9.30644 10.9991 9.2593 11.0695 9.21223L10.7811 9.50198C10.8608 9.38411 10.9276 9.23456 10.9816 9.05315C11.0354 8.87167 11.0765 8.6573 11.1046 8.40986C11.1327 8.16242 11.1469 7.88088 11.1469 7.56513C11.1469 7.15987 11.1281 6.77457 11.0906 6.40936C11.053 6.04416 11.0109 5.69897 10.9639 5.37379L12.1595 5.24657H12.2369C12.2791 5.567 12.3142 5.92042 12.3424 6.30691C12.3705 6.69332 12.3845 7.08442 12.3845 7.48027C12.3845 8.02229 12.3306 8.48295 12.2228 8.86225C12.115 9.24156 11.9591 9.54917 11.7552 9.78472C11.5512 10.0204 11.305 10.1924 11.0167 10.3008C10.7284 10.4091 10.4036 10.4634 10.0426 10.4634C9.92078 10.4634 9.79301 10.4551 9.65941 10.4386C9.52575 10.4221 9.41323 10.4057 9.32179 10.3891C9.23034 10.3726 9.18465 10.3643 9.18465 10.3643V10.2937L9.50816 9.31821ZM14.6772 8.6255H13.2004V7.71359L13.341 7.57225H14.8179H16.2948H17.7716V8.48409L17.631 8.6255H16.1541H14.6772ZM23.7072 8.6255L24.3683 7.57225H26.5063V8.48409L26.3656 8.6255H23.7072ZM17.631 8.6255L17.638 7.71359L17.7787 7.57225H23.7072C24.0354 7.57225 24.2604 7.52982 24.3824 7.44497C24.5043 7.36018 24.5652 7.23296 24.5652 7.06328C24.5652 6.92187 24.5336 6.78642 24.4703 6.65678C24.407 6.52722 24.3331 6.42001 24.2487 6.33514L24.7621 6.37758C24.5652 6.42469 24.3964 6.4601 24.2558 6.48358C24.1151 6.50714 23.9851 6.52367 23.8655 6.53311C23.7459 6.54247 23.6135 6.54723 23.4681 6.54723H19.1219C18.9015 6.54723 18.7128 6.48713 18.5557 6.36693C18.3987 6.24681 18.3061 6.03593 18.278 5.7343L21.1332 3.15419H21.2036L21.6888 3.90346L19.5158 5.81917L19.3399 5.49398H23.6861C23.9064 5.49398 24.1245 5.48809 24.3402 5.47624C24.5559 5.46454 24.734 5.44219 24.8747 5.40912H24.959C25.0763 5.51754 25.1946 5.65299 25.3142 5.81554C25.4337 5.97817 25.5357 6.15613 25.6201 6.34934C25.7044 6.54247 25.7467 6.7381 25.7467 6.93599C25.7467 7.15281 25.6998 7.35782 25.606 7.551C25.5123 7.74425 25.3505 7.91625 25.1208 8.06701L24.8465 8.47703C24.7199 8.52417 24.5746 8.56068 24.4105 8.58651C24.2464 8.61252 24.0611 8.6255 23.8549 8.6255H17.631ZM27.9831 7.57225V8.48409L27.8424 8.6255H26.3656V7.71359L26.5063 7.57225H27.9831ZM27.8424 8.6255V7.71359L27.9831 7.57225H29.2841L28.8762 7.76302C28.82 7.70647 28.7814 7.61105 28.7603 7.47671C28.7391 7.34243 28.7286 7.17641 28.7286 6.97842V3.37337L29.889 3.24608H29.9663V7.31062C29.9663 7.40496 29.9674 7.52155 29.9698 7.6606C29.9722 7.79959 29.9769 7.93622 29.9839 8.07057C29.991 8.20485 30.0038 8.31445 30.0226 8.3993V8.45585C29.8819 8.5124 29.7108 8.55476 29.5092 8.58307C29.3076 8.61131 29.059 8.6255 28.7637 8.6255H27.8424ZM31.0775 3.3804L32.3504 3.25317L32.3714 3.30972C32.3528 3.39451 32.3399 3.50059 32.3328 3.62781C32.3258 3.75503 32.3211 3.88459 32.3188 4.01657C32.3164 4.14855 32.3152 4.26164 32.3152 4.35587V8.6255H31.0775V3.3804ZM34.5188 8.71029C34.6594 8.87517 34.8095 9.00836 34.9689 9.10969C35.1283 9.21103 35.2912 9.2829 35.4576 9.32533C35.6241 9.36769 35.78 9.38888 35.9253 9.38888C36.0613 9.38888 36.1808 9.36534 36.284 9.31821C36.3872 9.27101 36.4716 9.24041 36.5372 9.22635L36.2347 9.5091C36.3145 9.39123 36.3813 9.23698 36.4352 9.04609C36.4891 8.85526 36.529 8.64076 36.5548 8.40274C36.5805 8.16484 36.5934 7.92089 36.5934 7.67116C36.5934 7.41672 36.5841 7.15281 36.5653 6.87943C36.5465 6.60612 36.5231 6.3399 36.4949 6.08071C36.4669 5.82151 36.4317 5.58587 36.3895 5.37379L37.571 5.24657H37.6484C37.7094 5.69421 37.755 6.1054 37.7855 6.48003C37.816 6.85468 37.8312 7.18818 37.8312 7.48027C37.8312 8.0034 37.7784 8.45464 37.673 8.83401C37.5676 9.21332 37.4198 9.52322 37.2299 9.76354C37.0401 10.0039 36.815 10.1806 36.5548 10.2937C36.2946 10.4068 36.0097 10.4634 35.7003 10.4634C35.4612 10.4634 35.2455 10.4316 35.0533 10.368C34.8611 10.3043 34.6946 10.2278 34.5539 10.1381C34.4133 10.0486 34.3008 9.96384 34.2164 9.8837C34.132 9.80361 34.0758 9.74706 34.0476 9.71405L34.4414 8.71029H34.5188ZM35.1588 7.87611C35.004 7.87611 34.8728 7.82669 34.7649 7.72771C34.6571 7.6288 34.6032 7.48975 34.6032 7.31062C34.6032 7.13163 34.6571 6.99375 34.7649 6.8971C34.8728 6.80053 35.004 6.75222 35.1588 6.75222C35.3135 6.75222 35.4447 6.80053 35.5526 6.8971C35.6604 6.99375 35.7143 7.13163 35.7143 7.31062C35.7143 7.48975 35.6604 7.6288 35.5526 7.72771C35.4447 7.82669 35.3135 7.87611 35.1588 7.87611ZM38.8861 4.08731L40.159 3.96002L40.1801 4.01657C40.1614 4.10144 40.1485 4.20743 40.1415 4.33465C40.1345 4.46196 40.1297 4.59152 40.1274 4.72349C40.125 4.85546 40.1239 4.96857 40.1239 5.0628V8.6255H38.8861V4.08731ZM39.9269 3.48648C39.8004 3.48648 39.6844 3.46292 39.5788 3.41573C39.4734 3.36861 39.3831 3.31448 39.308 3.25317C39.233 3.19186 39.1744 3.14241 39.1323 3.10474L39.5613 3.21784C39.43 3.2272 39.3034 3.24374 39.1815 3.26729C39.0596 3.29085 38.9283 3.35918 38.7876 3.47228H38.7173L38.3657 3.03407C38.4689 2.91621 38.5872 2.81964 38.7209 2.74422C38.8545 2.66879 39.0198 2.63112 39.2166 2.63112C39.3666 2.63112 39.5038 2.6629 39.6281 2.72648C39.7523 2.79012 39.8566 2.86321 39.941 2.94566C40.0254 3.02811 40.0864 3.0953 40.1239 3.14716L39.5753 2.89265C39.641 2.89265 39.7148 2.88789 39.7969 2.87853C39.8788 2.86909 39.968 2.84667 40.0641 2.81134C40.1602 2.77601 40.2575 2.71824 40.3559 2.63821H40.4333L40.7779 3.08352C40.6747 3.20138 40.5564 3.29794 40.4228 3.37337C40.2891 3.44872 40.1239 3.48648 39.9269 3.48648ZM43.38 8.6255V7.57225H44.5264V8.48409L44.3857 8.6255H43.38ZM40.6935 9.31821C40.8154 9.34645 40.9373 9.37119 41.0592 9.39244C41.1811 9.41362 41.3031 9.42424 41.4249 9.42424C41.6125 9.42424 41.7801 9.40065 41.9278 9.35357C42.0755 9.30644 42.1844 9.2593 42.2548 9.21223L41.9664 9.50198C42.0461 9.38411 42.1129 9.23456 42.1669 9.05315C42.2208 8.87167 42.2618 8.6573 42.2899 8.40986C42.3181 8.16242 42.3321 7.88088 42.3321 7.56513C42.3321 7.15987 42.3134 6.77457 42.2759 6.40936C42.2384 6.04416 42.1962 5.69897 42.1493 5.37379L43.3448 5.24657H43.4222C43.4644 5.567 43.4996 5.92042 43.5277 6.30691C43.5558 6.69332 43.5699 7.08442 43.5699 7.48027C43.5699 8.02229 43.516 8.48295 43.4081 8.86225C43.3003 9.24156 43.1445 9.54917 42.9405 9.78472C42.7365 10.0204 42.4904 10.1924 42.202 10.3008C41.9138 10.4091 41.589 10.4634 41.228 10.4634C41.1061 10.4634 40.9783 10.4551 40.8448 10.4386C40.7111 10.4221 40.5985 10.4057 40.5071 10.3891C40.4157 10.3726 40.3701 10.3643 40.3701 10.3643V10.2937L40.6935 9.31821ZM45.8625 8.6255H44.3857V7.71359L44.5264 7.57225H46.0032H47.4801V8.48409L47.3394 8.6255H45.8625ZM48.9569 7.57225V8.48409L48.8163 8.6255H47.3394V7.71359L47.4801 7.57225H48.9569ZM51.2637 2.13628L51.6083 1.90306C51.5801 1.85587 51.5567 1.8052 51.5379 1.75099C51.5191 1.69686 51.5098 1.63676 51.5098 1.57077C51.5145 1.48123 51.5402 1.39644 51.5872 1.31633C51.6341 1.23622 51.709 1.17726 51.8122 1.13959L51.6856 1.15371C51.7606 1.15846 51.8239 1.18677 51.8755 1.23856C51.9271 1.29036 51.9528 1.35401 51.9528 1.42943C51.9528 1.51422 51.9213 1.58844 51.858 1.65209C51.7947 1.71566 51.7126 1.76398 51.6118 1.79697C51.5109 1.82997 51.3996 1.84651 51.2777 1.84651C51.123 1.84651 50.9859 1.81585 50.8664 1.75454C50.7468 1.69331 50.6167 1.61086 50.476 1.5072L50.4057 1.51422L50.1384 1.83232C50.3354 2.01616 50.5311 2.14572 50.7257 2.22115C50.9202 2.29657 51.123 2.33424 51.334 2.33424C51.545 2.33424 51.7372 2.29415 51.9106 2.21404C52.0841 2.13394 52.2212 2.02318 52.3221 1.88184C52.4229 1.74042 52.4732 1.57787 52.4732 1.3941C52.4732 1.21969 52.4159 1.06657 52.301 0.934596C52.1861 0.802619 52.0185 0.736633 51.7981 0.736633C51.6575 0.736633 51.5239 0.773174 51.3973 0.846184C51.2707 0.91927 51.1687 1.01712 51.0914 1.13959C51.0141 1.26213 50.9753 1.40112 50.9753 1.55665C50.9753 1.64619 50.9953 1.74277 51.0351 1.84651C51.0749 1.95017 51.1511 2.04674 51.2637 2.13628ZM51.2918 4.6245C51.6669 4.6245 51.9962 4.69639 52.2799 4.84007C52.5635 4.98382 52.7838 5.17937 52.941 5.42679C53.0981 5.67421 53.1766 5.94872 53.1766 6.25035C53.1766 6.59434 53.0981 6.89476 52.941 7.1516C52.7838 7.40846 52.5811 7.63815 52.3326 7.84081L52.0794 7.57225H53.7462V8.48409L53.6056 8.6255H52.3537C52.0302 8.6255 51.7547 8.58307 51.5274 8.49822C51.3 8.41342 51.1019 8.2932 50.9331 8.13774L51.8403 8.10943C51.5872 8.29797 51.3176 8.43104 51.0315 8.50877C50.7456 8.58651 50.4315 8.6255 50.0892 8.6255H48.8163V7.71359L48.9569 7.57225H50.6167L50.3424 7.84081C50.0799 7.6288 49.8583 7.38606 49.6778 7.11273C49.4973 6.83942 49.407 6.54247 49.407 6.22204C49.407 5.99584 49.4563 5.78617 49.5547 5.59297C49.6532 5.39976 49.7891 5.23124 49.9626 5.08748C50.1361 4.94381 50.3365 4.8307 50.5639 4.74817C50.7913 4.66573 51.0339 4.6245 51.2918 4.6245ZM50.2509 6.47656L50.3635 5.55763C50.4057 5.82619 50.4737 6.07247 50.5674 6.29626C50.6611 6.52012 50.7679 6.71689 50.8874 6.88654C51.007 7.05618 51.1253 7.19753 51.2425 7.31062C51.3598 7.42372 51.4629 7.50622 51.5521 7.55806L51.1793 7.65704C51.3293 7.57225 51.4629 7.46259 51.5801 7.32831C51.6973 7.19396 51.7899 7.04554 51.858 6.88298C51.9259 6.72035 51.9599 6.55667 51.9599 6.3917C51.9599 6.25972 51.934 6.13605 51.8825 6.02061C51.831 5.90516 51.7536 5.81094 51.6505 5.73785C51.5473 5.66476 51.4231 5.6283 51.2777 5.6283C51.1605 5.6283 51.0386 5.6554 50.912 5.70954C50.7855 5.76375 50.6647 5.85216 50.5499 5.97462C50.435 6.09716 50.3354 6.26448 50.2509 6.47656ZM51.981 4.04488C51.831 4.04488 51.7008 3.99535 51.5907 3.89645C51.4805 3.79746 51.4254 3.66081 51.4254 3.48648C51.4254 3.30738 51.4805 3.16952 51.5907 3.07287C51.7008 2.97631 51.831 2.92799 51.981 2.92799C52.1404 2.92799 52.2741 2.97631 52.3818 3.07287C52.4897 3.16952 52.5437 3.30738 52.5437 3.48648C52.5437 3.66081 52.4897 3.79746 52.3818 3.89645C52.2741 3.99535 52.1404 4.04488 51.981 4.04488ZM50.7081 4.19332C50.5534 4.19332 50.422 4.14386 50.3143 4.04488C50.2064 3.9459 50.1524 3.80925 50.1524 3.63491C50.1524 3.45582 50.2064 3.31682 50.3143 3.21784C50.422 3.11886 50.5534 3.0694 50.7081 3.0694C50.8628 3.0694 50.9941 3.11886 51.1019 3.21784C51.2097 3.31682 51.2637 3.45582 51.2637 3.63491C51.2637 3.80925 51.2097 3.9459 51.1019 4.04488C50.9941 4.14386 50.8628 4.19332 50.7081 4.19332ZM55.0824 7.57225V8.48409L54.9418 8.6255H53.465V7.71359L53.6056 7.57225H55.0824ZM56.5593 7.57225V8.48409L56.4186 8.6255H54.9418V7.71359L55.0824 7.57225H56.5593ZM56.5593 7.57225H56.7C56.8172 7.57689 56.9133 7.59102 56.9883 7.61461C57.0633 7.63815 57.1407 7.66646 57.2203 7.69947V3.3804L58.4862 3.25317L58.5144 3.30972C58.4956 3.39451 58.4827 3.50059 58.4757 3.62781C58.4687 3.75503 58.464 3.88459 58.4617 4.01657C58.4593 4.14855 58.4581 4.26164 58.4581 4.35587V8.19429C58.5987 8.14245 58.7418 8.07642 58.8871 7.99634C59.0324 7.91625 59.1719 7.82554 59.3056 7.72415C59.4392 7.62282 59.5552 7.52034 59.6536 7.41672V3.3804L60.9196 3.25317L60.9477 3.30972C60.9429 3.35683 60.936 3.43219 60.9266 3.53593C60.9172 3.63959 60.909 3.76213 60.902 3.90346C60.895 4.04488 60.8914 4.19565 60.8914 4.35587V7.22583C60.8914 7.46151 60.8387 7.6641 60.7332 7.83375C60.6278 8.00346 60.4695 8.16121 60.2585 8.30739C60.0475 8.4535 59.7873 8.60661 59.4779 8.76684C59.1684 8.92713 58.8097 9.11555 58.4019 9.33233C58.2799 9.224 58.1428 9.11555 57.9905 9.00716C57.8381 8.89883 57.6564 8.80806 57.4454 8.73503C57.2344 8.66195 56.9813 8.6255 56.6859 8.6255H56.4186V7.71359L56.5593 7.57225ZM62.7715 5.75552C62.6308 5.75552 62.5066 5.72019 62.3987 5.64952C62.2909 5.57878 62.2053 5.47624 62.1421 5.342C62.0788 5.20768 62.0471 5.04391 62.0471 4.85071V4.4054L62.5324 4.34885H62.6097V4.80827C62.6097 4.97793 62.6249 5.09926 62.6554 5.17235C62.6859 5.24544 62.7305 5.28779 62.7891 5.29957C62.8477 5.31134 62.9145 5.31489 62.9895 5.31021L62.8278 5.39501C62.87 5.33845 62.8969 5.24777 62.9086 5.12282C62.9203 4.99801 62.9262 4.86717 62.9262 4.73051V4.45486L63.3905 4.3983H63.4607V4.65282C63.4607 4.72817 63.4569 4.79892 63.45 4.86483C63.443 4.93082 63.4234 4.98027 63.3905 5.01327L63.362 4.78004C63.4 4.84595 63.443 4.89782 63.4924 4.93557C63.5417 4.97325 63.5981 4.99915 63.6613 5.01327C63.7246 5.02746 63.7911 5.03449 63.8613 5.03449L63.686 5.14758C63.7094 5.11458 63.7341 5.06868 63.7594 5.00972C63.7854 4.95083 63.8075 4.86249 63.8265 4.7447C63.8449 4.62684 63.8544 4.46663 63.8544 4.26398V4.12265L64.3398 4.06609H64.417V4.15089C64.417 4.51375 64.3809 4.7965 64.3081 4.99915C64.2353 5.20179 64.1429 5.342 64.0303 5.41969C63.9176 5.49746 63.798 5.53641 63.6715 5.53641C63.5683 5.53641 63.4784 5.5152 63.4012 5.47277C63.3234 5.43034 63.2637 5.39266 63.2216 5.35967L63.355 5.31021C63.2943 5.47043 63.2111 5.58474 63.1056 5.653C63.0001 5.72132 62.8887 5.75552 62.7715 5.75552ZM68.1653 8.6255C67.8843 8.6255 67.6521 8.58784 67.4692 8.5124C67.2863 8.43696 67.1319 8.31795 67.0053 8.15536C66.8787 7.99277 66.7566 7.78661 66.6395 7.53682L65.9149 5.9605L66.5199 6.42703C66.3744 6.44591 66.2307 6.47301 66.0877 6.50835C65.9447 6.54368 65.827 6.59668 65.7358 6.66743C65.6447 6.73809 65.5985 6.84176 65.5985 6.97842C65.5985 7.08216 65.6282 7.19282 65.6865 7.31062C65.7453 7.42849 65.8168 7.54871 65.901 7.67116C65.9852 7.79367 66.0712 7.91625 66.1579 8.03876C66.2446 8.16121 66.3174 8.28029 66.3756 8.39568C66.4345 8.51119 66.4636 8.61602 66.4636 8.71029C66.4636 9.04023 66.3661 9.33945 66.1718 9.60808C65.9769 9.87664 65.7054 10.0911 65.3561 10.2512C65.0068 10.4115 64.6049 10.4917 64.1499 10.4917C63.7936 10.4917 63.4854 10.4646 63.2251 10.4103C62.965 10.3561 62.7645 10.3019 62.6238 10.2478C62.4831 10.1936 62.4128 10.1664 62.4128 10.1664L62.7152 9.13444H62.7926C62.8535 9.15333 62.9509 9.18386 63.0844 9.22635C63.2181 9.26878 63.3848 9.30879 63.5835 9.34645C63.7828 9.38411 64.0069 9.403 64.2556 9.403C64.5929 9.403 64.8846 9.35122 65.1308 9.24754C65.377 9.14379 65.5751 9.02605 65.7251 8.89406L65.7535 9.34645C65.6036 9.14856 65.4485 8.95659 65.289 8.7704C65.1295 8.58422 64.9808 8.40166 64.8429 8.22253C64.7043 8.04347 64.5929 7.86199 64.5087 7.67822C64.4239 7.49446 64.3822 7.30592 64.3822 7.11273C64.3822 6.81111 64.4511 6.55312 64.5897 6.33869C64.7277 6.12427 64.9106 5.94163 65.1378 5.79086C65.3656 5.64008 65.6162 5.51633 65.8902 5.41969C66.1649 5.32312 66.4402 5.24657 66.7167 5.19001L66.8294 5.24657L67.4344 6.6179C67.5375 6.85354 67.6299 7.04206 67.7122 7.1834C67.7938 7.32481 67.8793 7.42493 67.9685 7.48383C68.0577 7.5428 68.1704 7.57225 68.3064 7.57225V8.48409L68.1653 8.6255ZM63.369 7.5227C63.2193 7.5227 63.0891 7.47327 62.979 7.3743C62.8688 7.27532 62.8137 7.13869 62.8137 6.9643C62.8137 6.78521 62.8688 6.64734 62.979 6.5507C63.0891 6.45413 63.2216 6.40589 63.3766 6.40589C63.531 6.40589 63.6626 6.45413 63.7702 6.5507C63.8778 6.64734 63.9322 6.78521 63.9322 6.9643C63.9322 7.13869 63.8778 7.27532 63.7702 7.3743C63.6626 7.47327 63.5284 7.5227 63.369 7.5227ZM63.369 8.85169C63.2146 8.85169 63.0821 8.80335 62.9719 8.70679C62.8617 8.61017 62.8067 8.47226 62.8067 8.2932C62.8067 8.1142 62.8617 7.9763 62.9719 7.87968C63.0821 7.78312 63.2146 7.73477 63.369 7.73477C63.524 7.73477 63.655 7.78312 63.7632 7.87968C63.8708 7.9763 63.9246 8.1142 63.9246 8.2932C63.9246 8.47226 63.8708 8.61017 63.7632 8.70679C63.655 8.80335 63.524 8.85169 63.369 8.85169ZM69.5228 7.57225L69.8114 8.6255H68.1653V7.71359L68.3064 7.57225H69.5228ZM73.2009 8.6255C72.8819 8.6255 72.6149 8.5783 72.3991 8.48409C72.1833 8.38982 71.9997 8.24607 71.8472 8.05288C71.6947 7.8597 71.5485 7.60991 71.4074 7.30363L70.8663 6.02415L71.2878 6.14428C71.096 6.14903 70.9201 6.18082 70.7606 6.23971C70.6012 6.29868 70.4632 6.37524 70.3455 6.46946C70.2284 6.56369 70.1392 6.6709 70.0784 6.7911C70.0177 6.91122 69.9873 7.03497 69.9873 7.16216C69.9873 7.32716 70.0341 7.465 70.1278 7.57569C70.2214 7.68649 70.3436 7.77014 70.4936 7.82669C70.6436 7.88324 70.8005 7.91154 70.9644 7.91154C71.1707 7.91154 71.3663 7.88801 71.5517 7.84081C71.7371 7.79367 71.8858 7.7419 71.9985 7.68535L72.139 7.75602L71.8504 8.76684C71.6631 8.84692 71.4745 8.90939 71.2846 8.95423C71.0948 8.99889 70.915 9.02134 70.7467 9.02134C70.5967 9.02134 70.4334 9.00366 70.2575 8.96835C70.0822 8.93299 69.9095 8.87402 69.7411 8.79158C69.5721 8.70915 69.4184 8.60075 69.2804 8.46641C69.1418 8.33207 69.0304 8.16598 68.9463 7.96809C68.8621 7.77014 68.8197 7.53682 68.8197 7.26826C68.8197 6.89597 68.9007 6.57078 69.0621 6.29279C69.2241 6.01472 69.4405 5.78149 69.7126 5.59297C69.9848 5.40444 70.2885 5.26302 70.6233 5.16879C70.9587 5.07457 71.2973 5.02746 71.6397 5.02746L71.7732 5.10522L72.3573 6.65323C72.4693 6.95486 72.6079 7.1834 72.7718 7.33893C72.9364 7.49446 73.1262 7.57225 73.3414 7.57225V8.48409L73.2009 8.6255ZM74.8185 7.57225V8.48409L74.678 8.6255H73.2009V7.71359L73.3414 7.57225H74.8185ZM74.678 8.6255V7.71359L74.8185 7.57225H76.1968L75.7892 7.76302C75.7329 7.70647 75.693 7.61105 75.6696 7.47671C75.6462 7.34243 75.6342 7.17641 75.6342 6.97842V3.3804L76.8018 3.25317H76.879V8.08819L76.3727 7.57225H77.8004V8.48409L77.6599 8.6255H74.678ZM79.2775 7.57225V8.48409L79.1364 8.6255H77.6599V7.71359L77.8004 7.57225H79.2775ZM80.7539 7.57225V8.48409L80.6134 8.6255H79.1364V7.71359L79.2775 7.57225H80.7539ZM82.231 7.57225V8.48409L82.0905 8.6255H80.6134V7.71359L80.7539 7.57225H82.231ZM82.231 7.57225H83.9751L83.7713 8.22966L83.3068 7.04206C83.2739 6.9572 83.2271 6.84765 83.1664 6.71333C83.1056 6.57901 83.0372 6.44001 82.9626 6.29626C82.8873 6.15258 82.8132 6.02061 82.7411 5.9004C82.6683 5.78021 82.6038 5.68953 82.5474 5.6283L82.5265 5.55053C82.7234 5.39032 82.9449 5.24656 83.191 5.11934C83.4372 4.99212 83.696 4.8908 83.9682 4.81538C84.2403 4.73995 84.5143 4.70228 84.7909 4.70228C85.1611 4.70228 85.4826 4.76827 85.7541 4.90017C86.0262 5.03215 86.2363 5.21471 86.3838 5.448C86.5318 5.6813 86.6052 5.94405 86.6052 6.23624C86.6052 6.44357 86.5641 6.64621 86.4825 6.8441C86.4002 7.04207 86.2914 7.22106 86.1553 7.38136C86.0192 7.54159 85.8692 7.66881 85.7053 7.76302L85.4522 7.57225H87.1963V8.48409L87.0552 8.6255H82.0905V7.71359L82.231 7.57225ZM84.8187 8.03164L84.3618 7.81257C84.5403 7.72771 84.7111 7.62645 84.875 7.50858C85.0396 7.39071 85.1756 7.24472 85.2832 7.07031C85.3908 6.89597 85.4446 6.6863 85.4446 6.44123C85.4446 6.19615 85.3737 6.00173 85.2307 5.85798C85.0877 5.7143 84.8985 5.64242 84.6643 5.64242C84.4624 5.64242 84.2789 5.68251 84.1124 5.76262C83.946 5.84265 83.8112 5.91808 83.7081 5.98882L83.7644 5.64242C83.872 5.76028 83.9599 5.87806 84.0276 5.99584C84.096 6.11369 84.1624 6.25269 84.2283 6.41291C84.2941 6.5732 84.3713 6.77819 84.4605 7.02787L84.8187 8.03164ZM86.9008 8.6255V7.71359L87.0413 7.57225H88.3424L87.9342 7.76302C87.8779 7.70647 87.8393 7.61105 87.8184 7.47671C87.7975 7.34243 87.7868 7.17641 87.7868 6.97842V3.37337L88.9474 3.24608H89.0246V7.31062C89.0246 7.40496 89.0259 7.52155 89.0278 7.6606C89.0303 7.79959 89.0354 7.93622 89.0423 8.07057C89.0493 8.20485 89.062 8.31445 89.0809 8.3993V8.45585C88.9405 8.5124 88.769 8.55476 88.5677 8.58307C88.3658 8.61131 88.1171 8.6255 87.8222 8.6255H86.9008ZM90.1359 3.3804L91.4086 3.25317L91.4295 3.30972C91.4111 3.39451 91.3984 3.50059 91.3908 3.62781C91.3839 3.75503 91.3794 3.88459 91.3769 4.01657C91.3744 4.14855 91.3737 4.26164 91.3737 4.35587V8.6255H90.1359V3.3804ZM94.9411 8.22966L94.4842 6.97132C94.4513 6.88177 94.4032 6.77109 94.3399 6.63912C94.2766 6.50714 94.2089 6.36814 94.1361 6.22204C94.0634 6.07595 93.9906 5.94284 93.9184 5.82264C93.8457 5.70245 93.7811 5.61184 93.7248 5.55053L93.7039 5.47277C93.9007 5.31724 94.1209 5.17469 94.3646 5.04505C94.6082 4.91549 94.8677 4.81304 95.1417 4.73761C95.4164 4.66219 95.6891 4.6245 95.9613 4.6245C96.3359 4.6245 96.6599 4.69163 96.9314 4.82595C97.2036 4.96027 97.4137 5.1429 97.5611 5.37379C97.7086 5.60474 97.7826 5.86863 97.7826 6.1655C97.7826 6.36814 97.7402 6.57192 97.656 6.7769C97.5719 6.98197 97.4579 7.16693 97.3149 7.33187C97.1719 7.49681 97.0093 7.62167 96.8264 7.70647L96.6289 7.57225H98.3313V8.48409L98.1908 8.6255H95.7151C95.4101 8.6255 95.1677 8.65959 94.9873 8.72804C94.8063 8.79629 94.6797 8.88229 94.6076 8.98597C94.5348 9.08966 94.4962 9.19569 94.4912 9.30409L94.4633 9.09201C94.5146 9.20988 94.6095 9.29111 94.7481 9.33589C94.8861 9.38067 95.0753 9.403 95.3139 9.403H96.8194V9.48079L96.4606 10.4351H95.1873C94.8405 10.4351 94.5393 10.3809 94.2836 10.2725C94.0285 10.1642 93.8311 10.0109 93.6931 9.81303C93.5546 9.61507 93.4856 9.37711 93.4856 9.09914C93.4856 8.94355 93.5147 8.79158 93.5735 8.64318C93.6324 8.49465 93.7235 8.35796 93.8476 8.23309C93.9722 8.10829 94.1292 7.99754 94.319 7.90092C94.5089 7.8043 94.7399 7.73477 95.012 7.69235L94.9411 8.22966ZM95.9961 8.03164L95.4759 7.71359C95.6259 7.66181 95.7701 7.59222 95.9081 7.50501C96.0467 7.41787 96.1688 7.3166 96.2739 7.20109C96.3796 7.08564 96.4638 6.95607 96.527 6.81232C96.5903 6.66856 96.622 6.5119 96.622 6.34224C96.622 6.11129 96.5498 5.92517 96.4043 5.78384C96.2587 5.64242 96.0714 5.57175 95.8417 5.57175C95.6398 5.57175 95.4563 5.61184 95.2898 5.69187C95.1227 5.77198 94.986 5.84741 94.8778 5.91808L94.9411 5.56465C95.0493 5.68251 95.1373 5.80029 95.205 5.91808C95.2734 6.03593 95.3385 6.17606 95.4018 6.33869C95.4651 6.50125 95.5417 6.70744 95.6309 6.9572L95.9961 8.03164ZM99.6672 7.57225V8.48409L99.5267 8.6255H98.0497V7.71359L98.1908 7.57225H99.6672ZM101.144 7.57225V8.48409L101.004 8.6255H99.5267V7.71359L99.6672 7.57225H101.144ZM102.361 7.57225L102.649 8.6255H101.004V7.71359L101.144 7.57225H102.361ZM106.039 8.6255C105.72 8.6255 105.453 8.5783 105.238 8.48409C105.022 8.38982 104.838 8.24607 104.685 8.05288C104.533 7.8597 104.386 7.60991 104.246 7.30363L103.704 6.02415L104.126 6.14428C103.934 6.14903 103.758 6.18082 103.598 6.23971C103.439 6.29868 103.301 6.37524 103.184 6.46946C103.066 6.56369 102.978 6.6709 102.916 6.7911C102.856 6.91122 102.825 7.03497 102.825 7.16216C102.825 7.32716 102.872 7.465 102.966 7.57569C103.059 7.68649 103.181 7.77014 103.331 7.82669C103.481 7.88324 103.638 7.91154 103.802 7.91154C104.009 7.91154 104.205 7.88801 104.39 7.84081C104.575 7.79367 104.724 7.7419 104.836 7.68535L104.977 7.75602L104.689 8.76684C104.501 8.84692 104.312 8.90939 104.122 8.95423C103.933 8.99889 103.754 9.02134 103.585 9.02134C103.435 9.02134 103.272 9.00366 103.096 8.96835C102.92 8.93299 102.748 8.87402 102.579 8.79158C102.41 8.70915 102.257 8.60075 102.118 8.46641C101.98 8.33207 101.869 8.16598 101.784 7.96809C101.7 7.77014 101.658 7.53682 101.658 7.26826C101.658 6.89597 101.739 6.57078 101.901 6.29279C102.062 6.01472 102.279 5.78149 102.55 5.59297C102.823 5.40444 103.126 5.26302 103.462 5.16879C103.797 5.07457 104.136 5.02746 104.478 5.02746L104.611 5.10522L105.195 6.65323C105.308 6.95486 105.446 7.1834 105.61 7.33893C105.774 7.49446 105.964 7.57225 106.18 7.57225V8.48409L106.039 8.6255ZM107.656 7.57225V8.48409L107.516 8.6255H106.039V7.71359L106.18 7.57225H107.656ZM109.133 7.57225V8.48409L108.993 8.6255H107.516V7.71359L107.656 7.57225H109.133ZM110.61 7.57225V8.48409L110.47 8.6255H108.993V7.71359L109.133 7.57225H110.61ZM110.47 8.6255V7.71359L110.61 7.57225H114.07L113.81 7.72065C113.553 7.58402 113.278 7.40139 112.987 7.17278C112.697 6.94422 112.4 6.68034 112.098 6.38105C111.795 6.08184 111.494 5.76028 111.194 5.41621L111.897 4.47607H111.975C112.546 5.08869 113.044 5.5953 113.466 5.99584C113.887 6.39645 114.246 6.71212 114.542 6.94308C114.837 7.17405 115.081 7.33658 115.273 7.43085C115.465 7.52505 115.615 7.57225 115.723 7.57225H115.913V8.48409L115.772 8.6255H110.47ZM112.157 9.82009C112.157 9.64109 112.213 9.50318 112.323 9.40662C112.433 9.31 112.565 9.26166 112.72 9.26166C112.875 9.26166 113.006 9.31 113.114 9.40662C113.222 9.50318 113.275 9.64109 113.275 9.82009C113.275 9.9945 113.222 10.1311 113.114 10.2301C113.006 10.329 112.875 10.3786 112.72 10.3786C112.565 10.3786 112.433 10.329 112.323 10.2301C112.213 10.1311 112.157 9.9945 112.157 9.82009ZM117.059 4.41952V3.953L118.86 3.36627H118.93V3.8328L117.136 4.41952H117.059ZM116.989 7.57225L117.277 8.6255H115.631V7.71359L115.772 7.57225H116.989ZM120.667 8.6255C120.348 8.6255 120.081 8.5783 119.865 8.48409C119.649 8.38982 119.466 8.24607 119.313 8.05288C119.161 7.8597 119.014 7.60991 118.874 7.30363L118.332 6.02415L118.754 6.14428C118.562 6.14903 118.386 6.18082 118.227 6.23971C118.067 6.29868 117.929 6.37524 117.812 6.46946C117.695 6.56369 117.605 6.6709 117.545 6.7911C117.484 6.91122 117.453 7.03497 117.453 7.16216C117.453 7.32716 117.5 7.465 117.594 7.57569C117.688 7.68649 117.81 7.77014 117.96 7.82669C118.11 7.88324 118.267 7.91154 118.431 7.91154C118.637 7.91154 118.832 7.88801 119.018 7.84081C119.203 7.79367 119.352 7.7419 119.465 7.68535L119.605 7.75602L119.317 8.76684C119.129 8.84692 118.941 8.90939 118.751 8.95423C118.561 8.99889 118.381 9.02134 118.213 9.02134C118.063 9.02134 117.9 9.00366 117.724 8.96835C117.548 8.93299 117.376 8.87402 117.207 8.79158C117.038 8.70915 116.884 8.60075 116.747 8.46641C116.608 8.33207 116.497 8.16598 116.412 7.96809C116.328 7.77014 116.286 7.53682 116.286 7.26826C116.286 6.89597 116.367 6.57078 116.528 6.29279C116.69 6.01472 116.907 5.78149 117.179 5.59297C117.451 5.40444 117.754 5.26302 118.089 5.16879C118.425 5.07457 118.763 5.02746 119.106 5.02746L119.239 5.10522L119.823 6.65323C119.935 6.95486 120.074 7.1834 120.238 7.33893C120.402 7.49446 120.592 7.57225 120.808 7.57225V8.48409L120.667 8.6255ZM120.667 8.6255V7.71359L120.808 7.57225H122.109L121.701 7.76302C121.645 7.70647 121.606 7.61105 121.585 7.47671C121.564 7.34243 121.553 7.17641 121.553 6.97842V3.37337L122.714 3.24608H122.791V7.31062C122.791 7.40496 122.792 7.52155 122.795 7.6606C122.797 7.79959 122.802 7.93622 122.809 8.07057C122.816 8.20485 122.828 8.31445 122.847 8.3993V8.45585C122.707 8.5124 122.535 8.55476 122.334 8.58307C122.132 8.61131 121.883 8.6255 121.588 8.6255H120.667ZM123.902 3.3804L125.175 3.25317L125.196 3.30972C125.177 3.39451 125.165 3.50059 125.158 3.62781C125.15 3.75503 125.146 3.88459 125.143 4.01657C125.141 4.14855 125.14 4.26164 125.14 4.35587V8.6255H123.902V3.3804Z" fill="white"/>
<path d="M4.02283 20.98C3.58679 20.98 3.14961 20.9682 2.71124 20.9446C2.27286 20.921 1.80984 20.848 1.32226 20.7255C1.23318 20.7019 1.1347 20.6748 1.02691 20.6442C0.919042 20.6136 0.815907 20.5818 0.717429 20.5487C0.619025 20.5157 0.539327 20.4852 0.478333 20.4569L0.731555 19.4531H0.808844C0.860453 19.4766 0.933161 19.5061 1.02691 19.5414C1.12066 19.5768 1.21327 19.6086 1.30469 19.6369C1.3961 19.6651 1.46761 19.6887 1.51922 19.7076C1.75831 19.7782 2.02783 19.8289 2.32792 19.8596C2.628 19.8902 2.92569 19.909 3.22112 19.916C3.51648 19.9231 3.78374 19.9267 4.02283 19.9267H5.49263L5.22544 20.0893C5.02383 19.9338 4.85385 19.737 4.71555 19.4991C4.57726 19.2611 4.50808 18.9866 4.50808 18.6756C4.50808 18.3221 4.59477 18.0193 4.76828 17.7672C4.9418 17.5151 5.18322 17.3207 5.49263 17.184C5.8021 17.0473 6.15373 16.979 6.54756 16.979C6.78665 16.979 7.04808 17.0037 7.33179 17.0532C7.61543 17.1027 7.89312 17.1746 8.16512 17.2688L8.19322 17.3254C8.17442 17.4102 8.16038 17.5233 8.15101 17.6647C8.14164 17.8061 8.13462 17.9498 8.12993 18.096C8.12519 18.242 8.12291 18.3622 8.12291 18.4564V20.7538L8.09469 20.8103C7.95413 20.8669 7.77946 20.9093 7.57088 20.9376C7.36216 20.9658 7.11016 20.98 6.81481 20.98H4.02283ZM5.72474 18.7109C5.72474 18.9276 5.78806 19.1339 5.91463 19.3294C6.0412 19.5249 6.21585 19.6852 6.43859 19.81C6.66128 19.9349 6.92259 19.9974 7.22268 19.9974L6.88512 20.4074V18.7109C6.88512 18.5223 6.89449 18.3598 6.91328 18.2232C6.93202 18.0865 6.95543 17.9593 6.98359 17.8414L7.09611 18.1101C7.04916 18.096 6.9965 18.0794 6.9379 18.0605C6.87924 18.0416 6.81481 18.0241 6.7445 18.0075C6.67413 17.9911 6.58977 17.9829 6.4913 17.9829C6.25221 17.9829 6.06464 18.0546 5.92868 18.1984C5.79272 18.3421 5.72474 18.5129 5.72474 18.7109ZM6.42795 16.5691C6.27331 16.5691 6.142 16.5195 6.03414 16.4205C5.92635 16.3216 5.87241 16.1826 5.87241 16.0036C5.87241 15.8245 5.92635 15.6866 6.03414 15.5899C6.142 15.4934 6.27331 15.4451 6.42795 15.4451C6.58268 15.4451 6.714 15.4934 6.82177 15.5899C6.92968 15.6866 6.98359 15.8245 6.98359 16.0036C6.98359 16.1826 6.92968 16.3216 6.82177 16.4205C6.714 16.5195 6.58268 16.5691 6.42795 16.5691ZM11.379 20.98V19.9267H12.5254V20.8386L12.3846 20.98H11.379ZM8.69254 21.6727C8.81442 21.701 8.93631 21.7257 9.05826 21.747C9.18015 21.7682 9.30203 21.7788 9.42398 21.7788C9.61143 21.7788 9.77914 21.7552 9.92678 21.7081C10.0745 21.6609 10.1835 21.6138 10.2538 21.5667L9.96551 21.8565C10.0451 21.7386 10.112 21.5891 10.1659 21.4077C10.2199 21.2262 10.2609 21.0118 10.289 20.7643C10.3171 20.5169 10.3312 20.2354 10.3312 19.9196C10.3312 19.5144 10.3124 19.1291 10.2749 18.7639C10.2374 18.3987 10.1952 18.0535 10.1483 17.7283L11.3439 17.6011H11.4213C11.4635 17.9215 11.4986 18.275 11.5267 18.6614C11.5548 19.0479 11.5689 19.4389 11.5689 19.8348C11.5689 20.3767 11.515 20.8374 11.4072 21.2168C11.2993 21.5961 11.1434 21.9036 10.9395 22.1392C10.7356 22.3748 10.4894 22.5469 10.2011 22.6552C9.91273 22.7636 9.58802 22.8179 9.22704 22.8179C9.10509 22.8179 8.97738 22.8096 8.84379 22.7931C8.71013 22.7767 8.59755 22.7601 8.5061 22.7437C8.41472 22.7271 8.36903 22.7189 8.36903 22.7189V22.6482L8.69254 21.6727ZM16.5269 21.3475C16.3535 21.2533 16.1824 21.179 16.0136 21.1249C15.8448 21.0707 15.6537 21.033 15.4405 21.0118C15.2271 20.9906 14.9704 20.98 14.6703 20.98H12.3777V20.0681L12.5183 19.9267H13.8123L13.3974 20.1247C13.3459 20.0681 13.3118 19.9762 13.2954 19.8489C13.279 19.7217 13.2708 19.5662 13.2708 19.3824V17.8061L14.4312 17.6789H14.5086V20.4428L14.0022 19.9267H14.6774C14.8743 19.9267 15.0548 19.942 15.2188 19.9726C15.3829 20.0034 15.5377 20.0492 15.683 20.1105L15.3807 20.5417V17.5728L16.5411 17.4455H16.6183V20.7608L16.1964 20.3013C16.4402 20.2872 16.6559 20.2425 16.8434 20.1671C17.0309 20.0916 17.1916 19.9974 17.3252 19.8843C17.4588 19.7712 17.5584 19.651 17.6241 19.5238L17.4905 20.259V17.3466L18.6508 17.2193H18.7282V19.0855C18.7282 19.4955 18.6391 19.8501 18.4609 20.1493C18.2828 20.4486 18.0308 20.6961 17.705 20.8916C17.3791 21.0871 16.9865 21.2392 16.5269 21.3475ZM15.9432 15.7773C15.7978 15.7773 15.676 15.7326 15.5775 15.643C15.4791 15.5535 15.4298 15.4286 15.4298 15.2684C15.4298 15.1034 15.4791 14.9762 15.5775 14.8867C15.676 14.7971 15.7978 14.7523 15.9432 14.7523C16.0886 14.7523 16.2105 14.7971 16.3089 14.8867C16.4074 14.9762 16.4566 15.1034 16.4566 15.2684C16.4566 15.4286 16.4074 15.5535 16.3089 15.643C16.2105 15.7326 16.0886 15.7773 15.9432 15.7773ZM16.6746 16.8447C16.5246 16.8447 16.3945 16.7953 16.2844 16.6963C16.1742 16.5973 16.1191 16.4583 16.1191 16.2792C16.1191 16.1048 16.1742 15.9694 16.2844 15.8727C16.3945 15.7761 16.5269 15.7278 16.6817 15.7278C16.8364 15.7278 16.9677 15.7761 17.0755 15.8727C17.1833 15.9694 17.2373 16.1048 17.2373 16.2792C17.2373 16.4583 17.1833 16.5973 17.0755 16.6963C16.9677 16.7953 16.8341 16.8447 16.6746 16.8447ZM15.4017 16.979C15.247 16.979 15.1158 16.9295 15.0079 16.8306C14.9001 16.7316 14.8462 16.5925 14.8462 16.4135C14.8462 16.2391 14.9001 16.1024 15.0079 16.0036C15.1158 15.9045 15.247 15.8551 15.4017 15.8551C15.5565 15.8551 15.6877 15.9045 15.7956 16.0036C15.9034 16.1024 15.9573 16.2391 15.9573 16.4135C15.9573 16.5925 15.9046 16.7316 15.7992 16.8306C15.6936 16.9295 15.5612 16.979 15.4017 16.979ZM20.4301 20.98C20.1722 20.98 19.9719 20.8916 19.8288 20.7148C19.6858 20.5381 19.6144 20.2919 19.6144 19.9762C19.6893 19.9338 19.7667 19.8749 19.8464 19.7995C19.9261 19.724 20.0187 19.6109 20.1242 19.4602C20.2297 19.3094 20.3575 19.0996 20.5075 18.831L21.0138 17.9616V18.8452L19.7479 16.6397V16.5619H20.9294L21.5694 17.7354L21.1053 17.792L22.3641 15.6077H23.5597V15.6854L21.5624 19.2623C21.4592 19.4461 21.3702 19.5886 21.2951 19.6899C21.2201 19.7912 21.1498 19.8666 21.0841 19.916C21.0185 19.9656 20.9506 20.0092 20.8802 20.0469L20.5707 19.9267H22.4907L22.4977 20.7467L21.8438 19.5803L22.2094 18.9512H22.2657L23.3698 20.8103V20.8669C23.3229 20.9093 23.2585 20.9387 23.1764 20.9551C23.0943 20.9717 22.9994 20.98 22.8916 20.98H20.4301ZM19.4807 15.2118C19.4807 15.028 19.5288 14.8596 19.6249 14.7064C19.7209 14.5532 19.857 14.4307 20.0329 14.3388C20.2086 14.2469 20.4184 14.2009 20.6622 14.2009H21.0841V14.2646L20.8662 14.9149H20.6692C20.5239 14.9149 20.4043 14.9396 20.3106 14.9891C20.2168 15.0386 20.1488 15.1434 20.1066 15.3037L20.0855 15.0704C20.1324 15.1883 20.1992 15.2672 20.286 15.3072C20.3726 15.3473 20.4723 15.3673 20.5848 15.3673H21.0841V15.431L20.8732 16.0671H20.395C20.2168 16.0671 20.0585 16.0283 19.9203 15.9505C19.7819 15.8727 19.6742 15.7691 19.5968 15.6395C19.5194 15.5098 19.4807 15.3673 19.4807 15.2118ZM24.08 15.7349L25.353 15.6077L25.3741 15.6642C25.3553 15.749 25.3425 15.8551 25.3354 15.9823C25.3284 16.1096 25.3237 16.2391 25.3214 16.3711C25.319 16.5031 25.3178 16.6162 25.3178 16.7104V20.98H24.08V15.7349ZM33.0918 16.979C33.4669 16.979 33.795 17.0509 34.0764 17.1946C34.3577 17.3384 34.5781 17.5339 34.7375 17.7813C34.8969 18.0287 34.9766 18.3033 34.9766 18.6048C34.9766 18.9489 34.8981 19.2493 34.741 19.5061C34.5839 19.7629 34.3835 19.9927 34.1397 20.1953L33.8795 19.9267H35.5462V20.8386L35.4056 20.98H34.1537C33.835 20.98 33.5607 20.9376 33.3309 20.8527C33.1011 20.7679 32.902 20.6477 32.7332 20.4922L33.6403 20.4639C33.3872 20.6525 33.1188 20.7855 32.8351 20.8633C32.5514 20.941 32.2385 20.98 31.8963 20.98H30.7851C30.3584 20.98 29.9224 20.9682 29.477 20.9446C29.0316 20.921 28.5651 20.848 28.0774 20.7255C27.9884 20.7019 27.89 20.6748 27.7821 20.6442C27.6743 20.6136 27.5712 20.5818 27.4727 20.5487C27.3742 20.5157 27.2945 20.4852 27.2336 20.4569L27.4867 19.4531H27.5641C27.6156 19.4766 27.6884 19.5061 27.7821 19.5414C27.8758 19.5768 27.9685 19.6086 28.06 19.6369C28.1514 19.6651 28.2229 19.6887 28.2744 19.7076C28.5182 19.7782 28.7889 19.8289 29.0867 19.8596C29.3844 19.8902 29.6833 19.909 29.9834 19.916C30.2835 19.9231 30.5507 19.9267 30.7851 19.9267H32.4236L32.1423 20.1953C31.8798 19.9833 31.6583 19.7406 31.4778 19.4672C31.2973 19.1939 31.207 18.897 31.207 18.5766C31.207 18.3504 31.2563 18.1406 31.3548 17.9474C31.4532 17.7543 31.5891 17.5857 31.7626 17.442C31.9361 17.2982 32.1365 17.1851 32.364 17.1027C32.5914 17.0203 32.8339 16.979 33.0918 16.979ZM32.058 18.831L32.1705 17.9121C32.2127 18.1807 32.2807 18.4269 32.3745 18.6508C32.4682 18.8747 32.5738 19.0714 32.6909 19.2411C32.8082 19.4107 32.9254 19.552 33.0426 19.6651C33.1598 19.7782 33.2629 19.8608 33.352 19.9126L32.9793 20.0116C33.1293 19.9267 33.2629 19.8172 33.3801 19.6828C33.4974 19.5485 33.5911 19.4001 33.6614 19.2375C33.7318 19.0749 33.767 18.9111 33.767 18.7462C33.767 18.6142 33.74 18.4906 33.6861 18.3751C33.6321 18.2596 33.5537 18.1654 33.4505 18.0923C33.3473 18.0193 33.2231 17.9829 33.0778 17.9829C32.9652 17.9829 32.8445 18.01 32.7156 18.0641C32.5866 18.1183 32.4659 18.2067 32.3533 18.3291C32.2408 18.4517 32.1423 18.619 32.058 18.831ZM33.0496 16.5691C32.8949 16.5691 32.7635 16.5195 32.6558 16.4205C32.548 16.3216 32.494 16.1826 32.494 16.0036C32.494 15.8245 32.548 15.6866 32.6558 15.5899C32.7635 15.4934 32.8949 15.4451 33.0496 15.4451C33.2043 15.4451 33.3356 15.4934 33.4434 15.5899C33.5513 15.6866 33.6052 15.8245 33.6052 16.0036C33.6052 16.1826 33.5513 16.3216 33.4434 16.4205C33.3356 16.5195 33.2043 16.5691 33.0496 16.5691ZM35.2649 20.98V20.0681L35.4056 19.9267H38.8657L38.6054 20.0751C38.3475 19.9385 38.0733 19.7559 37.7826 19.5273C37.4919 19.2987 37.1954 19.0349 36.893 18.7355C36.5906 18.4364 36.2893 18.1147 35.9893 17.7707L36.6926 16.8306H36.7699C37.3419 17.4432 37.8389 17.9498 38.2608 18.3504C38.6828 18.751 39.0415 19.0666 39.3368 19.2976C39.6322 19.5285 39.8761 19.6912 40.0682 19.7854C40.2605 19.8796 40.4105 19.9267 40.5183 19.9267H40.7082V20.8386L40.5676 20.98H35.2649ZM36.9528 22.1746C36.9528 21.9955 37.0079 21.8576 37.118 21.7611C37.2282 21.6645 37.3607 21.6162 37.5154 21.6162C37.6701 21.6162 37.8014 21.6645 37.9092 21.7611C38.017 21.8576 38.0709 21.9955 38.0709 22.1746C38.0709 22.349 38.017 22.4856 37.9092 22.5846C37.8014 22.6835 37.6701 22.733 37.5154 22.733C37.3607 22.733 37.2282 22.6835 37.118 22.5846C37.0079 22.4856 36.9528 22.349 36.9528 22.1746ZM40.5676 19.9267H41.8897L41.4748 20.1175C41.4185 20.061 41.3799 19.9656 41.3588 19.8312C41.3377 19.6969 41.3271 19.5309 41.3271 19.333V17.3254L42.4875 17.1981H42.5648V20.4356L42.0655 19.9267H43.4721V20.8386L43.3314 20.98H40.4269V20.0681L40.5676 19.9267ZM41.9319 16.6822C41.7772 16.6822 41.6459 16.6326 41.5381 16.5336C41.4303 16.4347 41.3764 16.2957 41.3764 16.1167C41.3764 15.9376 41.4303 15.7997 41.5381 15.7031C41.6459 15.6065 41.7772 15.5582 41.9319 15.5582C42.0867 15.5582 42.218 15.6065 42.3258 15.7031C42.4335 15.7997 42.4875 15.9376 42.4875 16.1167C42.4875 16.2957 42.4335 16.4347 42.3258 16.5336C42.218 16.6326 42.0867 16.6822 41.9319 16.6822ZM43.3314 20.98V20.0681L43.4721 19.9267H44.7731L44.3652 20.1175C44.309 20.061 44.2703 19.9656 44.2492 19.8312C44.2282 19.6969 44.2175 19.5309 44.2175 19.333V15.7278L45.3779 15.6006H45.4553V19.6651C45.4553 19.7593 45.4565 19.876 45.4589 20.0151C45.4612 20.1541 45.4659 20.2907 45.4729 20.425C45.4799 20.5593 45.4928 20.669 45.5116 20.7538V20.8103C45.3709 20.8669 45.1998 20.9093 44.9981 20.9376C44.7965 20.9658 44.5481 20.98 44.2527 20.98H43.3314ZM46.5664 15.7349L47.8393 15.6077L47.8605 15.6642C47.8417 15.749 47.8288 15.8551 47.8219 15.9823C47.8148 16.1096 47.8101 16.2391 47.8078 16.3711C47.8054 16.5031 47.8042 16.6162 47.8042 16.7104V20.98H46.5664V15.7349ZM51.9353 19.9267H53.384L53.1168 20.1671C52.9151 20.0068 52.744 19.8148 52.6033 19.5909C52.4627 19.3671 52.3923 19.1115 52.3923 18.824C52.3923 18.447 52.4803 18.1276 52.6561 17.8661C52.8319 17.6046 53.0781 17.4043 53.3945 17.2653C53.711 17.1263 54.0779 17.0568 54.4952 17.0568C54.6358 17.0568 54.7917 17.0674 54.9628 17.0886C55.1339 17.1097 55.3133 17.1416 55.5008 17.184C55.6884 17.2265 55.8735 17.2783 56.0564 17.3396L56.0845 17.3961C56.0658 17.4809 56.0505 17.594 56.0389 17.7354C56.0271 17.8768 56.0189 18.0205 56.0142 18.1666C56.0095 18.3127 56.0072 18.4329 56.0072 18.5271V20.7538L55.9791 20.8103C55.8384 20.8669 55.6649 20.9093 55.4586 20.9376C55.2523 20.9658 55.0015 20.98 54.7062 20.98H51.7946V20.0681L51.9353 19.9267ZM53.609 18.7604C53.609 19.0101 53.6771 19.2292 53.813 19.4178C53.9489 19.6062 54.1306 19.7535 54.358 19.8596C54.5854 19.9656 54.8351 20.0186 55.1069 20.0186L54.7694 20.4781V18.7815C54.7694 18.593 54.7788 18.4305 54.7976 18.2938C54.8163 18.1571 54.8398 18.0323 54.8679 17.9192L54.9804 18.1878C54.9382 18.1736 54.8878 18.1559 54.8292 18.1348C54.7706 18.1135 54.7038 18.0947 54.6288 18.0782C54.5537 18.0617 54.4647 18.0535 54.3615 18.0535C54.1224 18.0535 53.9373 18.1147 53.8059 18.2373C53.6747 18.3598 53.609 18.5342 53.609 18.7604ZM54.3053 16.5761C54.1505 16.5761 54.0192 16.5266 53.9114 16.4277C53.8037 16.3287 53.7497 16.192 53.7497 16.0177C53.7497 15.8386 53.8037 15.6996 53.9114 15.6006C54.0192 15.5016 54.1505 15.4521 54.3053 15.4521C54.46 15.4521 54.5913 15.5016 54.6991 15.6006C54.8069 15.6996 54.8608 15.8386 54.8608 16.0177C54.8608 16.192 54.8069 16.3287 54.6991 16.4277C54.5913 16.5266 54.46 16.5761 54.3053 16.5761ZM54.889 22.0827C54.889 21.9036 54.9441 21.7658 55.0542 21.6692C55.1644 21.5725 55.2969 21.5242 55.4516 21.5242C55.6063 21.5242 55.7376 21.5725 55.8454 21.6692C55.9532 21.7658 56.0072 21.9036 56.0072 22.0827C56.0072 22.257 55.9532 22.3937 55.8454 22.4927C55.7376 22.5917 55.6063 22.6411 55.4516 22.6411C55.2969 22.6411 55.1644 22.5917 55.0542 22.4927C54.9441 22.3937 54.889 22.257 54.889 22.0827ZM53.6161 22.2312C53.6161 22.052 53.67 21.9142 53.7778 21.8176C53.8857 21.721 54.0169 21.6727 54.1716 21.6727C54.3311 21.6727 54.4635 21.721 54.569 21.8176C54.6745 21.9142 54.7272 22.052 54.7272 22.2312C54.7272 22.4056 54.6745 22.5421 54.569 22.6411C54.4635 22.7401 54.3311 22.7896 54.1716 22.7896C54.0169 22.7896 53.8857 22.7401 53.7778 22.6411C53.67 22.5421 53.6161 22.4056 53.6161 22.2312ZM54.46 19.9267V20.8386L54.3193 20.98H51.8438C51.5344 20.98 51.2871 21.0118 51.1018 21.0754C50.9167 21.139 50.7866 21.2227 50.7116 21.3263C50.6365 21.43 50.6084 21.5407 50.6271 21.6585L50.5498 21.4465C50.6154 21.5643 50.7362 21.6456 50.912 21.6904C51.0878 21.7352 51.3281 21.7575 51.6329 21.7575H53.377V21.8353L53.0183 22.7896H51.2813C50.9858 22.7896 50.7068 22.7412 50.4443 22.6447C50.1817 22.5481 49.9696 22.4056 49.8079 22.217C49.6461 22.0285 49.5652 21.7952 49.5652 21.5172C49.5652 21.3051 49.611 21.1049 49.7024 20.9163C49.7938 20.7279 49.9356 20.5593 50.1278 20.4109C50.3201 20.2624 50.565 20.1447 50.8628 20.0575C51.1604 19.9703 51.518 19.9267 51.9353 19.9267H54.46ZM59.5686 20.7043L58.7668 22.1675H57.4446V22.0897L58.8301 19.9338L59.5686 20.7043ZM62.7824 20.98C62.459 20.98 62.1894 20.9328 61.9737 20.8386C61.7581 20.7444 61.5752 20.6006 61.4252 20.4074C61.2752 20.2142 61.1275 19.9644 60.9821 19.6581L60.4476 18.3786L60.9118 18.4988C60.7102 18.5036 60.5262 18.5354 60.3598 18.5942C60.1933 18.6531 60.0515 18.7298 59.9342 18.824C59.817 18.9182 59.7268 19.0254 59.6635 19.1456C59.6002 19.2657 59.5686 19.3895 59.5686 19.5167C59.5686 19.6816 59.6143 19.8195 59.7057 19.9303C59.7971 20.041 59.9179 20.1247 60.0678 20.1812C60.2179 20.2378 60.3773 20.266 60.5461 20.266C60.7524 20.266 60.9481 20.2425 61.1334 20.1953C61.3185 20.1482 61.4673 20.0963 61.5798 20.0398L61.7205 20.1105L61.4322 21.1214C61.2446 21.2014 61.0548 21.2639 60.8626 21.3087C60.6704 21.3535 60.4922 21.3758 60.3281 21.3758C60.1734 21.3758 60.0092 21.3582 59.8358 21.3229C59.6623 21.2874 59.49 21.2285 59.3189 21.1461C59.1477 21.0636 58.993 20.9551 58.8547 20.8209C58.7165 20.6866 58.6062 20.5205 58.5242 20.3225C58.4421 20.1247 58.4011 19.8913 58.4011 19.6227C58.4011 19.2504 58.482 18.9253 58.6438 18.6473C58.8055 18.3692 59.0223 18.136 59.2943 17.9474C59.5662 17.7589 59.8686 17.6175 60.2015 17.5233C60.5343 17.4291 60.8719 17.3819 61.2142 17.3819L61.3478 17.4597L61.9316 19.0077C62.0487 19.3094 62.1883 19.5379 62.35 19.6934C62.5118 19.8489 62.7028 19.9267 62.9232 19.9267V20.8386L62.7824 20.98ZM62.7824 20.98V20.0681L62.9232 19.9267H64.2239L63.8164 20.1175C63.7601 20.061 63.7215 19.962 63.7 19.8207C63.6791 19.6793 63.6683 19.5096 63.6683 19.3117V17.3254L64.829 17.1981H64.9062V19.6651C64.9062 19.7593 64.9074 19.876 64.91 20.0151C64.9119 20.1541 64.9169 20.2907 64.9239 20.425C64.9308 20.5593 64.9435 20.669 64.9625 20.7538V20.8103C64.822 20.8669 64.6505 20.9093 64.4492 20.9376C64.2474 20.9658 63.9987 20.98 63.7038 20.98H62.7824ZM63.8582 22.0261C63.8582 21.8471 63.9132 21.7092 64.0233 21.6126C64.1335 21.516 64.2663 21.4676 64.4208 21.4676C64.5758 21.4676 64.7068 21.516 64.815 21.6126C64.9226 21.7092 64.9764 21.8471 64.9764 22.0261C64.9764 22.2005 64.9226 22.3371 64.815 22.4362C64.7068 22.5351 64.5758 22.5846 64.4208 22.5846C64.2663 22.5846 64.1335 22.5351 64.0233 22.4362C63.9132 22.3371 63.8582 22.2005 63.8582 22.0261ZM62.5856 22.1675C62.5856 21.9932 62.6396 21.8576 62.7473 21.7611C62.8551 21.6645 62.9888 21.6162 63.1482 21.6162C63.3025 21.6162 63.4329 21.6645 63.5386 21.7611C63.6436 21.8576 63.6968 21.9932 63.6968 22.1675C63.6968 22.3466 63.6436 22.4856 63.5386 22.5846C63.4329 22.6835 63.3006 22.733 63.1411 22.733C62.9864 22.733 62.8551 22.6835 62.7473 22.5846C62.6396 22.4856 62.5856 22.3466 62.5856 22.1675ZM68.1622 20.98V19.9267H69.3089V20.8386L69.1678 20.98H68.1622ZM65.4757 21.6727C65.5979 21.701 65.7194 21.7257 65.8415 21.747C65.9636 21.7682 66.0852 21.7788 66.2073 21.7788C66.3946 21.7788 66.5623 21.7552 66.7104 21.7081C66.8579 21.6609 66.9667 21.6138 67.037 21.5667L66.749 21.8565C66.8281 21.7386 66.8952 21.5891 66.949 21.4077C67.0028 21.2262 67.0439 21.0118 67.0724 20.7643C67.1002 20.5169 67.1142 20.2354 67.1142 19.9196C67.1142 19.5144 67.0958 19.1291 67.0585 18.7639C67.0205 18.3987 66.9787 18.0535 66.9319 17.7283L68.1274 17.6011H68.2046C68.247 17.9215 68.2818 18.275 68.3102 18.6614C68.3381 19.0479 68.352 19.4389 68.352 19.8348C68.352 20.3767 68.2982 20.8374 68.1906 21.2168C68.0824 21.5961 67.9267 21.9036 67.723 22.1392C67.5192 22.3748 67.273 22.5469 66.9844 22.6552C66.6959 22.7636 66.3712 22.8179 66.0105 22.8179C65.8883 22.8179 65.7605 22.8096 65.627 22.7931C65.4934 22.7767 65.3808 22.7601 65.2897 22.7437C65.1979 22.7271 65.1523 22.7189 65.1523 22.7189V22.6482L65.4757 21.6727ZM75.2444 20.98L75.9051 19.9267H78.0435V20.8386L77.9023 20.98H75.2444ZM69.1678 20.98L69.1754 20.0681L69.3158 19.9267H75.2444C75.5722 19.9267 75.7975 19.8843 75.9196 19.7995C76.0411 19.7147 76.1025 19.5874 76.1025 19.4178C76.1025 19.2764 76.0709 19.1409 76.0076 19.0113C75.9443 18.8817 75.8703 18.7745 75.7855 18.6897L76.2993 18.7321C76.1025 18.7792 75.9335 18.8146 75.793 18.8381C75.6519 18.8617 75.5222 18.8782 75.4026 18.8876C75.283 18.897 75.1507 18.9018 75.0051 18.9018H70.6588C70.4385 18.9018 70.2499 18.8416 70.093 18.7214C69.936 18.6013 69.843 18.3905 69.8152 18.0888L72.6699 15.5087H72.7408L73.2256 16.258L71.053 18.1736L70.8771 17.8485H75.2228C75.4437 17.8485 75.6614 17.8425 75.8772 17.8308C76.093 17.8191 76.2708 17.7966 76.412 17.7637H76.4961C76.6132 17.872 76.7316 18.0075 76.8512 18.1701C76.9708 18.3327 77.0727 18.5106 77.1575 18.7038C77.2416 18.897 77.284 19.0927 77.284 19.2905C77.284 19.5073 77.2366 19.7123 77.1429 19.9055C77.0492 20.0987 76.8879 20.2708 76.6581 20.4215L76.3835 20.8315C76.2569 20.8787 76.1114 20.9151 75.9475 20.941C75.7836 20.967 75.5981 20.98 75.3918 20.98H69.1678ZM77.9023 20.98V20.0681L78.0435 19.9267H79.3446L78.9364 20.1175C78.8801 20.061 78.8415 19.9656 78.8206 19.8312C78.7991 19.6969 78.7889 19.5309 78.7889 19.333V15.7278L79.949 15.6006H80.0268V19.6651C80.0268 19.7593 80.0274 19.876 80.03 20.0151C80.0325 20.1541 80.0369 20.2907 80.0439 20.425C80.0508 20.5593 80.0641 20.669 80.0825 20.7538V20.8103C79.942 20.8669 79.7711 20.9093 79.5693 20.9376C79.368 20.9658 79.1193 20.98 78.8238 20.98H77.9023ZM81.1375 15.7349L82.4107 15.6077L82.4316 15.6642C82.4126 15.749 82.4 15.8551 82.393 15.9823C82.3861 16.1096 82.381 16.2391 82.3791 16.3711C82.3766 16.5031 82.3753 16.6162 82.3753 16.7104V20.98H81.1375V15.7349ZM84.1713 21.0648C84.3124 21.2297 84.4624 21.3629 84.6219 21.4642C84.7814 21.5655 84.944 21.6373 85.1105 21.6798C85.2769 21.7222 85.4326 21.7434 85.5781 21.7434C85.7142 21.7434 85.8338 21.7199 85.937 21.6727C86.0401 21.6255 86.1243 21.595 86.1901 21.5808L85.8876 21.8636C85.9673 21.7457 86.0338 21.5914 86.0882 21.4005C86.142 21.2098 86.1819 20.9953 86.2078 20.7573C86.2331 20.5193 86.2464 20.2754 86.2464 20.0257C86.2464 19.7712 86.2369 19.5073 86.218 19.234C86.1996 18.9607 86.1762 18.6945 86.1477 18.4352C86.1199 18.176 86.0844 17.9404 86.042 17.7283L87.2235 17.6011H87.3014C87.3621 18.0488 87.4077 18.4599 87.4381 18.8345C87.4691 19.2092 87.4837 19.5427 87.4837 19.8348C87.4837 20.3578 87.4311 20.8092 87.3261 21.1885C87.2204 21.5679 87.0729 21.8777 86.8824 22.1181C86.6926 22.3584 86.4679 22.5351 86.2078 22.6482C85.9471 22.7613 85.6623 22.8179 85.3529 22.8179C85.1143 22.8179 84.8985 22.7861 84.7061 22.7224C84.5137 22.6589 84.3473 22.5822 84.2068 22.4927C84.0663 22.4032 83.9536 22.3183 83.8695 22.2383C83.7846 22.1581 83.7283 22.1016 83.7005 22.0686L84.0941 21.0648H84.1713ZM84.8118 20.2306C84.6567 20.2306 84.5257 20.1812 84.4175 20.0822C84.3099 19.9833 84.2561 19.8443 84.2561 19.6651C84.2561 19.4861 84.3099 19.3483 84.4175 19.2516C84.5257 19.1551 84.6567 19.1067 84.8118 19.1067C84.9662 19.1067 85.0978 19.1551 85.2054 19.2516C85.313 19.3483 85.3674 19.4861 85.3674 19.6651C85.3674 19.8443 85.313 19.9833 85.2054 20.0822C85.0978 20.1812 84.9662 20.2306 84.8118 20.2306ZM88.5386 16.4418L89.8119 16.3146L89.8328 16.3711C89.8144 16.456 89.8011 16.5619 89.7942 16.6892C89.7872 16.8164 89.7828 16.946 89.7803 17.078C89.7777 17.2099 89.7765 17.323 89.7765 17.4173V20.98H88.5386V16.4418ZM89.5796 15.8409C89.4531 15.8409 89.3373 15.8174 89.2316 15.7703C89.1259 15.7231 89.036 15.6689 88.9607 15.6077C88.886 15.5464 88.8272 15.4969 88.7848 15.4592L89.2139 15.5723C89.0829 15.5817 88.9563 15.5983 88.8341 15.6218C88.7126 15.6454 88.581 15.7137 88.4405 15.8268H88.3703L88.0184 15.3885C88.1216 15.2707 88.2399 15.1742 88.3734 15.0987C88.507 15.0233 88.6728 14.9856 88.8696 14.9856C89.0196 14.9856 89.1569 15.0174 89.2809 15.081C89.405 15.1447 89.5094 15.2177 89.5936 15.3002C89.6784 15.3826 89.7391 15.4499 89.7765 15.5016L89.2278 15.2472C89.2936 15.2472 89.3676 15.2424 89.4499 15.2331C89.5315 15.2236 89.6208 15.2012 89.717 15.1658C89.8132 15.1305 89.91 15.0728 90.0087 14.9927H90.0859L90.4308 15.438C90.3277 15.5558 90.2093 15.6524 90.0758 15.7278C89.9416 15.8033 89.7765 15.8409 89.5796 15.8409ZM93.0331 20.98V19.9267H94.1792V20.8386L94.0387 20.98H93.0331ZM90.346 21.6727C90.4682 21.701 90.5903 21.7257 90.7118 21.747C90.834 21.7682 90.9561 21.7788 91.0776 21.7788C91.2649 21.7788 91.4326 21.7552 91.5807 21.7081C91.7282 21.6609 91.837 21.6138 91.9073 21.5667L91.6193 21.8565C91.6991 21.7386 91.7655 21.5891 91.8199 21.4077C91.8737 21.2262 91.9148 21.0118 91.9427 20.7643C91.9712 20.5169 91.9851 20.2354 91.9851 19.9196C91.9851 19.5144 91.9661 19.1291 91.9288 18.7639C91.8914 18.3987 91.849 18.0535 91.8022 17.7283L92.9977 17.6011H93.0749C93.1173 17.9215 93.1521 18.275 93.1805 18.6614C93.2084 19.0479 93.223 19.4389 93.223 19.8348C93.223 20.3767 93.1685 20.8374 93.0609 21.2168C92.9534 21.5961 92.797 21.9036 92.5933 22.1392C92.3895 22.3748 92.1433 22.5469 91.8547 22.6552C91.5668 22.7636 91.2415 22.8179 90.8808 22.8179C90.7586 22.8179 90.6314 22.8096 90.4973 22.7931C90.3637 22.7767 90.2511 22.7601 90.16 22.7437C90.0682 22.7271 90.0226 22.7189 90.0226 22.7189V22.6482L90.346 21.6727ZM96.4859 14.4908L96.8302 14.2575C96.8023 14.2104 96.7789 14.1597 96.7599 14.1055C96.7416 14.0514 96.7321 13.9913 96.7321 13.9253C96.7365 13.8358 96.7625 13.7509 96.8093 13.6708C96.8561 13.5907 96.9314 13.5318 97.0346 13.4941L96.908 13.5082C96.9827 13.513 97.046 13.5413 97.0979 13.5931C97.1491 13.6449 97.1751 13.7085 97.1751 13.7839C97.1751 13.8687 97.1434 13.9429 97.0802 14.0066C97.0169 14.0702 96.9346 14.1185 96.834 14.1515C96.7334 14.1845 96.622 14.2009 96.4998 14.2009C96.3454 14.2009 96.2081 14.1703 96.0885 14.1091C95.9689 14.0478 95.8385 13.9654 95.698 13.8617L95.6278 13.8688L95.3607 14.1868C95.5575 14.3706 95.7531 14.5002 95.948 14.5756C96.1423 14.651 96.3454 14.6887 96.5562 14.6887C96.7669 14.6887 96.9593 14.6487 97.1327 14.5685C97.3061 14.4885 97.4434 14.3777 97.544 14.2363C97.6453 14.095 97.6953 13.9324 97.6953 13.7486C97.6953 13.5742 97.6383 13.4211 97.5232 13.2891C97.4086 13.1572 97.2409 13.0911 97.02 13.0911C96.8795 13.0911 96.746 13.1277 96.6194 13.2007C96.4929 13.2738 96.391 13.3715 96.3138 13.4941C96.2359 13.6166 96.1973 13.7556 96.1973 13.9112C96.1973 14.0007 96.2176 14.0973 96.2575 14.2009C96.2973 14.3047 96.3733 14.4013 96.4859 14.4908ZM96.5138 16.979C96.889 16.979 97.2181 17.0509 97.5023 17.1946C97.7858 17.3384 98.006 17.5339 98.163 17.7813C98.3199 18.0287 98.399 18.3033 98.399 18.6048C98.399 18.9489 98.3199 19.2493 98.163 19.5061C98.006 19.7629 97.8035 19.9927 97.5548 20.1953L97.3017 19.9267H98.9686V20.8386L98.8274 20.98H97.5757C97.2523 20.98 96.977 20.9376 96.7498 20.8527C96.522 20.7679 96.3239 20.6477 96.1556 20.4922L97.0624 20.4639C96.8093 20.6525 96.5397 20.7855 96.2537 20.8633C95.9676 20.941 95.6537 20.98 95.3113 20.98H94.0387V20.0681L94.1792 19.9267H95.8385L95.5645 20.1953C95.3019 19.9833 95.0804 19.7406 94.9 19.4672C94.7196 19.1939 94.6291 18.897 94.6291 18.5766C94.6291 18.3504 94.6785 18.1406 94.7766 17.9474C94.8753 17.7543 95.0114 17.5857 95.1848 17.442C95.3582 17.2982 95.5588 17.1851 95.786 17.1027C96.0132 17.0203 96.2562 16.979 96.5138 16.979ZM95.4734 18.831L95.5854 17.9121C95.6278 18.1807 95.6961 18.4269 95.7898 18.6508C95.8834 18.8747 95.9904 19.0714 96.1094 19.2411C96.229 19.4107 96.3473 19.552 96.465 19.6651C96.5821 19.7782 96.6853 19.8608 96.7739 19.9126L96.4011 20.0116C96.5517 19.9267 96.6853 19.8172 96.8023 19.6828C96.9194 19.5485 97.0118 19.4001 97.0802 19.2375C97.1479 19.0749 97.1821 18.9111 97.1821 18.7462C97.1821 18.6142 97.1561 18.4906 97.1048 18.3751C97.0529 18.2596 96.9757 18.1654 96.8726 18.0923C96.7694 18.0193 96.6454 17.9829 96.4998 17.9829C96.3828 17.9829 96.2606 18.01 96.134 18.0641C96.0075 18.1183 95.8866 18.2067 95.7721 18.3291C95.6569 18.4517 95.5575 18.619 95.4734 18.831ZM97.2029 16.3994C97.0529 16.3994 96.9232 16.3499 96.8131 16.2509C96.703 16.152 96.6473 16.0153 96.6473 15.8409C96.6473 15.6619 96.703 15.524 96.8131 15.4274C96.9232 15.3308 97.0529 15.2825 97.2029 15.2825C97.3624 15.2825 97.4959 15.3308 97.6042 15.4274C97.7117 15.524 97.7655 15.6619 97.7655 15.8409C97.7655 16.0153 97.7117 16.152 97.6042 16.2509C97.4959 16.3499 97.3624 16.3994 97.2029 16.3994ZM95.9303 16.5478C95.7759 16.5478 95.6442 16.4983 95.5366 16.3994C95.4284 16.3004 95.3746 16.1637 95.3746 15.9893C95.3746 15.8103 95.4284 15.6713 95.5366 15.5723C95.6442 15.4734 95.7759 15.4238 95.9303 15.4238C96.0847 15.4238 96.2163 15.4734 96.3239 15.5723C96.4321 15.6713 96.4859 15.8103 96.4859 15.9893C96.4859 16.1637 96.4321 16.3004 96.3239 16.3994C96.2163 16.4983 96.0847 16.5478 95.9303 16.5478Z" fill="white"/>
<path d="M98.687 20.9801V20.0682L98.8281 19.9268H100.129L99.721 20.1177C99.6647 20.0612 99.6261 19.9657 99.6052 19.8314C99.5837 19.6971 99.5736 19.531 99.5736 19.3331V15.728L100.734 15.6007H100.811V19.6653C100.811 19.7595 100.812 19.8762 100.815 20.0152C100.817 20.1542 100.822 20.2909 100.829 20.4251C100.835 20.5595 100.849 20.6691 100.867 20.7539V20.8104C100.727 20.867 100.556 20.9094 100.354 20.9377C100.153 20.966 99.9039 20.9801 99.6084 20.9801H98.687ZM101.922 15.7351L103.195 15.6079L103.216 15.6644C103.197 15.7492 103.185 15.8552 103.178 15.9825C103.171 16.1097 103.166 16.2393 103.164 16.3712C103.161 16.5032 103.16 16.6163 103.16 16.7105V20.9801H101.922V15.7351ZM107.446 20.9801V19.9268H110.385V20.8387L110.245 20.9801H107.446ZM105.012 20.9024L105.385 19.9268H107.727C108.023 19.9268 108.23 19.8856 108.349 19.8032C108.469 19.7207 108.529 19.5923 108.529 19.4179C108.529 19.2765 108.496 19.141 108.43 19.0115C108.364 18.8818 108.292 18.7746 108.213 18.6898L108.719 18.7252C108.526 18.7676 108.36 18.8006 108.22 18.8242C108.078 18.8477 107.947 18.8642 107.825 18.8736C107.704 18.8831 107.572 18.8877 107.432 18.8877H107.158C107.017 18.8877 106.858 18.8831 106.683 18.8736C106.507 18.8642 106.331 18.843 106.155 18.81C105.979 18.777 105.812 18.7275 105.653 18.6615L105.955 17.6931H106.025C106.227 17.7544 106.452 17.7956 106.7 17.8168C106.949 17.838 107.188 17.8486 107.418 17.8486H107.642C107.868 17.8486 108.087 17.8427 108.301 17.8309C108.514 17.8192 108.69 17.7968 108.831 17.7638H108.916C109.033 17.8721 109.151 18.0077 109.271 18.1702C109.39 18.3328 109.492 18.5108 109.577 18.7039C109.661 18.8972 109.703 19.0928 109.703 19.2907C109.703 19.5263 109.649 19.7478 109.542 19.9551C109.433 20.1625 109.253 20.3416 109 20.4923L108.761 20.8529C108.644 20.8953 108.513 20.9271 108.367 20.9483C108.221 20.9695 108.06 20.9801 107.882 20.9801H105.012V20.9024ZM116.054 19.9268V20.8246L115.913 20.9801C115.81 20.9801 115.688 20.9624 115.547 20.9271C115.407 20.8917 115.268 20.821 115.133 20.715C114.997 20.609 114.882 20.4477 114.788 20.2308L115.048 20.2591C114.978 20.6691 114.847 21.0119 114.654 21.2876C114.462 21.5633 114.227 21.7695 113.947 21.9061C113.668 22.0427 113.358 22.1111 113.016 22.1111C112.744 22.1111 112.48 22.0546 112.225 21.9415C111.969 21.8284 111.741 21.6669 111.543 21.4573C111.343 21.2476 111.186 21.0013 111.071 20.7186C110.956 20.4358 110.899 20.1248 110.899 19.7855C110.899 19.4273 110.953 19.0868 111.06 18.764C111.169 18.4413 111.321 18.1538 111.518 17.9016C111.715 17.6495 111.95 17.4504 112.225 17.3044C112.499 17.1582 112.802 17.0852 113.136 17.0852C113.412 17.0852 113.651 17.1523 113.853 17.2866C114.054 17.4209 114.21 17.593 114.32 17.8027C114.43 18.0124 114.485 18.2398 114.485 18.4849C114.485 18.678 114.454 18.8784 114.39 19.0857C114.327 19.293 114.235 19.4933 114.113 19.6865C113.991 19.8798 113.833 20.0518 113.638 20.2026C113.444 20.3533 113.215 20.4735 112.953 20.5631C112.69 20.6526 112.39 20.6973 112.052 20.6973L111.384 20.9801H110.245V20.0965L110.385 19.9268H111.419C111.729 19.9268 112.004 19.8915 112.246 19.8209C112.487 19.7502 112.694 19.6546 112.868 19.5345C113.041 19.4143 113.173 19.2789 113.262 19.1281C113.351 18.9773 113.396 18.8242 113.396 18.6686C113.396 18.4235 113.313 18.2386 113.149 18.1137C112.986 17.9888 112.77 17.9075 112.502 17.8699L112.967 17.8416C112.77 17.9264 112.605 18.063 112.47 18.2515C112.337 18.4401 112.237 18.6522 112.172 18.8877C112.106 19.1234 112.073 19.3566 112.073 19.5875C112.073 19.8656 112.139 20.1177 112.27 20.3439C112.401 20.5701 112.575 20.7492 112.791 20.8812C113.006 21.0132 113.243 21.0791 113.501 21.0791C113.675 21.0791 113.841 21.0403 114 20.9624C114.159 20.8847 114.309 20.7798 114.451 20.6479L113.62 21.5315C113.813 21.2864 113.938 21.0437 113.997 20.8034C114.055 20.5631 114.087 20.3651 114.092 20.2096C114.092 20.0306 114.077 19.8644 114.046 19.7112C114.015 19.5581 113.96 19.3755 113.88 19.1634L114.795 18.6686C114.902 18.9702 115.011 19.2141 115.118 19.4002C115.226 19.5864 115.354 19.7207 115.502 19.8032C115.649 19.8856 115.833 19.9268 116.054 19.9268ZM115.913 19.9268H117.657L117.453 20.5842L116.989 19.3966C116.956 19.3119 116.909 19.2023 116.848 19.068C116.788 18.9337 116.719 18.7947 116.645 18.6509C116.569 18.5072 116.496 18.3752 116.423 18.2551C116.35 18.1349 116.286 18.0442 116.229 17.983L116.209 17.9052C116.405 17.745 116.627 17.6013 116.873 17.474C117.119 17.3467 117.378 17.2455 117.65 17.1701C117.922 17.0946 118.196 17.057 118.473 17.057C118.843 17.057 119.165 17.1229 119.437 17.2548C119.708 17.3868 119.918 17.5694 120.066 17.8027C120.214 18.0359 120.287 18.2987 120.287 18.5908C120.287 18.7981 120.246 19.0008 120.165 19.1988C120.082 19.3966 119.973 19.5758 119.837 19.736C119.701 19.8962 119.551 20.0235 119.387 20.1177L119.134 19.9268H120.878V20.8387L120.737 20.9801H115.773V20.0682L115.913 19.9268ZM118.501 20.3863L118.044 20.1672C118.222 20.0824 118.393 19.981 118.557 19.8633C118.722 19.7454 118.858 19.5994 118.965 19.425C119.073 19.2506 119.127 19.0409 119.127 18.7958C119.127 18.5508 119.056 18.3564 118.913 18.2127C118.77 18.0689 118.581 17.9971 118.346 17.9971C118.144 17.9971 117.961 18.0372 117.795 18.1172C117.628 18.1973 117.493 18.2728 117.39 18.3434L117.446 17.9971C117.554 18.1149 117.642 18.2326 117.71 18.3505C117.778 18.4684 117.845 18.6073 117.91 18.7676C117.976 18.9278 118.053 19.1328 118.143 19.3825L118.501 20.3863ZM123.15 17.4033C123.591 17.4033 123.97 17.4858 124.289 17.6507C124.608 17.8156 124.853 18.0383 125.024 18.3186C125.195 18.599 125.28 18.916 125.28 19.2694C125.28 19.6276 125.2 19.9493 125.038 20.2344C124.876 20.5195 124.649 20.7457 124.356 20.913C124.063 21.0803 123.722 21.1639 123.333 21.1639C123.079 21.1639 122.832 21.1274 122.591 21.0544C122.349 20.9813 122.122 20.8682 121.909 20.715C121.695 20.5619 121.499 20.3651 121.321 20.1248L122.235 19.425C122.381 19.5616 122.547 19.6829 122.735 19.789C122.923 19.8951 123.117 19.9787 123.319 20.0399C123.52 20.1012 123.715 20.1342 123.902 20.1389C123.987 20.1437 124.051 20.1448 124.096 20.1424C124.14 20.1401 124.177 20.1389 124.205 20.1389L123.614 20.4853C123.75 20.3346 123.861 20.1707 123.948 19.9939C124.034 19.8173 124.078 19.6205 124.078 19.4038C124.078 19.1965 124.016 19.0197 123.892 18.8736C123.767 18.7275 123.6 18.6179 123.389 18.5448C123.178 18.4718 122.939 18.4401 122.672 18.4495L122.904 18.2303C122.871 18.6545 122.814 19.0374 122.731 19.379C122.649 19.7207 122.524 20.0094 122.355 20.2449C122.187 20.4806 121.959 20.662 121.673 20.7893C121.387 20.9165 121.023 20.9801 120.583 20.9801V20.0682L120.723 19.9268C120.99 19.9268 121.195 19.8491 121.335 19.6936C121.476 19.5381 121.585 19.2954 121.663 18.9655C121.74 18.6356 121.807 18.2139 121.863 17.7002L121.961 17.6083C122.135 17.5517 122.324 17.5035 122.531 17.4634C122.737 17.4233 122.943 17.4033 123.15 17.4033Z" fill="white"/>
<path d="M139.418 2.00883C139.533 2.06843 139.649 2.12687 139.764 2.1884C140.04 2.33585 140.316 2.48292 140.591 2.63385C140.789 2.74337 140.989 2.85251 141.181 2.97248C141.618 3.24339 142.054 3.517 142.484 3.79953C142.75 3.97368 143.005 4.16332 143.262 4.35024C143.519 4.53716 143.772 4.72293 144.02 4.91721C144.203 5.0604 144.379 5.21482 144.555 5.36808C144.782 5.56584 145.013 5.75973 145.229 5.96988C145.486 6.21911 145.73 6.48112 145.976 6.7439C146.13 6.90683 146.277 7.07557 146.422 7.24702C146.51 7.35032 146.59 7.46144 146.672 7.56939C146.755 7.6774 146.84 7.77758 146.913 7.88909C147.083 8.14951 147.254 8.41037 147.411 8.67855C147.543 8.90456 147.662 9.13832 147.776 9.3752C147.852 9.53849 147.913 9.71112 147.976 9.88141C148.023 10.0104 148.066 10.1417 148.102 10.2753C148.147 10.4356 148.186 10.597 148.224 10.7595C148.272 10.9691 148.304 11.1825 148.319 11.3973C148.333 11.6175 148.357 11.8373 148.369 12.0576C148.381 12.3114 148.387 12.5657 148.383 12.8196C148.379 13.0286 148.359 13.2371 148.342 13.4458C148.328 13.6172 148.312 13.789 148.29 13.9597C148.271 14.1033 148.241 14.2461 148.213 14.3885C148.173 14.5923 148.132 14.796 148.089 14.9996C148.07 15.0943 148.046 15.188 148.017 15.2802C148.009 15.2943 147.998 15.3064 147.985 15.3154C147.971 15.3244 147.956 15.3301 147.94 15.3321C147.828 15.3375 147.714 15.334 147.602 15.334H147.515C147.419 15.334 147.404 15.3158 147.423 15.2214C147.46 15.0487 147.495 14.8762 147.533 14.7043C147.569 14.5468 147.613 14.3916 147.643 14.2337C147.673 14.0758 147.695 13.9179 147.712 13.7589C147.738 13.503 147.761 13.2464 147.78 12.9899C147.797 12.8057 147.805 12.6207 147.804 12.4357C147.799 12.2321 147.773 12.0289 147.755 11.8261C147.742 11.676 147.73 11.5258 147.712 11.3768C147.698 11.2734 147.677 11.1709 147.655 11.0691C147.611 10.8636 147.573 10.6566 147.515 10.4549C147.454 10.2337 147.38 10.0158 147.297 9.80202C147.214 9.58263 147.116 9.36929 147.003 9.16351C146.845 8.8821 146.673 8.60737 146.488 8.34263C146.32 8.10155 146.133 7.87281 145.944 7.64604C145.784 7.45254 145.611 7.27138 145.437 7.09066C145.237 6.88206 145.034 6.6754 144.825 6.4757C144.658 6.31664 144.48 6.16802 144.305 6.01748C144.112 5.85339 143.922 5.68775 143.724 5.53101C143.47 5.33053 143.212 5.13665 142.954 4.94353C142.759 4.79853 142.562 4.65662 142.362 4.51781C142.16 4.37656 141.954 4.23878 141.747 4.10294C141.561 3.97987 141.373 3.85873 141.183 3.74186C140.992 3.62498 140.804 3.51817 140.614 3.40709C140.388 3.27629 140.162 3.1447 139.932 3.02009C139.909 3.00881 139.883 3.0025 139.858 3.00156C139.832 3.00063 139.807 3.00509 139.783 3.01467C139.62 3.09903 139.463 3.19579 139.304 3.28828C139.121 3.39394 138.938 3.49843 138.757 3.60679C138.642 3.67646 138.529 3.7527 138.415 3.82584C138.269 3.91834 138.123 4.00929 137.979 4.10371C137.817 4.21014 137.656 4.31696 137.497 4.42803C137.237 4.60993 136.977 4.79298 136.72 4.97952C136.524 5.12194 136.327 5.26474 136.139 5.41839C135.769 5.72103 135.407 6.03296 135.038 6.33831C134.65 6.65953 134.3 7.02022 133.951 7.38015C133.753 7.58408 133.566 7.80163 133.388 8.02261C133.187 8.27049 132.994 8.52347 132.808 8.78153C132.685 8.95582 132.571 9.13673 132.467 9.3233C132.346 9.53073 132.235 9.74452 132.137 9.96385C132.041 10.1858 131.961 10.4139 131.896 10.6469C131.829 10.8884 131.78 11.1369 131.739 11.3841C131.689 11.6545 131.665 11.9292 131.667 12.2042C131.672 12.4182 131.663 12.6327 131.67 12.8466C131.675 13.0139 131.691 13.1806 131.708 13.3467C131.734 13.5723 131.764 13.7979 131.8 14.0224C131.837 14.2469 131.877 14.4609 131.925 14.6803C131.964 14.8615 132.015 15.0407 132.059 15.2221C132.064 15.2569 132.067 15.2922 132.068 15.3274C132.036 15.3274 132.011 15.3317 131.988 15.3317H130.833C130.746 15.3317 130.74 15.3162 130.727 15.231C130.71 15.1269 130.674 15.0263 130.653 14.9215C130.615 14.7194 130.576 14.517 130.541 14.3146C130.519 14.1985 130.495 14.0824 130.479 13.9639C130.46 13.8293 130.45 13.6931 130.435 13.5587C130.423 13.4481 130.409 13.3374 130.396 13.2263C130.392 13.1768 130.394 13.1265 130.393 13.0765C130.384 12.7816 130.354 12.4852 130.372 12.1922C130.388 11.9709 130.367 11.7452 130.429 11.5254C130.457 11.4244 130.446 11.3129 130.461 11.2069C130.481 11.0583 130.503 10.9097 130.534 10.763C130.581 10.5478 130.627 10.3319 130.691 10.1217C130.749 9.93287 130.829 9.75056 130.903 9.56711C130.962 9.42316 131.022 9.27922 131.09 9.14144C131.175 8.9688 131.265 8.79814 131.363 8.6325C131.491 8.41502 131.62 8.19715 131.765 7.99087C131.936 7.7482 132.115 7.51055 132.304 7.28416C132.556 6.98462 132.815 6.69011 133.087 6.40875C133.34 6.14984 133.611 5.91763 133.868 5.66956C134.208 5.34656 134.568 5.04515 134.946 4.76705C135.302 4.49614 135.664 4.23491 136.024 3.97136C136.153 3.87693 136.285 3.7852 136.42 3.69852C136.686 3.52668 136.955 3.35627 137.223 3.18727C137.444 3.05027 137.665 2.91365 137.891 2.78517C138.211 2.6025 138.534 2.42448 138.861 2.2511C139.002 2.17602 139.148 2.11448 139.294 2.04753C139.312 2.03619 139.329 2.02323 139.345 2.00883H139.418Z" fill="white"/>
<path d="M130.918 19.7873V19.706C130.918 19.1085 130.918 18.5109 130.918 17.9134C130.918 17.8399 130.943 17.8228 131.011 17.8236C131.427 17.8283 131.844 17.8306 132.261 17.8306C132.974 17.8306 133.688 17.8263 134.402 17.8252C134.816 17.8252 135.231 17.8232 135.645 17.8252C136.198 17.8283 136.75 17.8252 137.303 17.8426C137.525 17.8536 137.743 17.9105 137.942 18.0098C138.078 18.0676 138.21 18.1321 138.339 18.2033C138.57 18.3422 138.778 18.5098 138.934 18.7331C139.022 18.8493 139.099 18.9728 139.165 19.1023C139.225 19.2312 139.257 19.3732 139.297 19.5118C139.313 19.5694 139.315 19.6309 139.33 19.689C139.335 19.7095 139.362 19.7246 139.379 19.7424C139.397 19.7226 139.427 19.7037 139.43 19.6832C139.454 19.5081 139.497 19.3362 139.559 19.1708C139.637 18.9713 139.751 18.7882 139.895 18.6309C140.138 18.3634 140.438 18.1557 140.774 18.0237C140.983 17.9349 141.204 17.8734 141.429 17.8406C141.547 17.8275 141.666 17.822 141.785 17.824C141.978 17.8217 142.17 17.8217 142.362 17.824C142.613 17.8267 142.863 17.8371 143.114 17.8364C143.839 17.8345 144.565 17.8255 145.29 17.8248C145.762 17.8248 146.235 17.8356 146.707 17.8364C147.05 17.8364 147.392 17.8278 147.735 17.824C147.832 17.824 147.84 17.8313 147.84 17.9289C147.84 18.5167 147.84 19.1046 147.84 19.6921C147.84 19.7664 147.819 19.7877 147.745 19.7877C145.649 19.7859 143.553 19.7859 141.457 19.7877C141.278 19.7859 141.1 19.8182 140.932 19.8829C140.833 19.9216 140.725 19.9444 140.627 19.9885C140.514 20.0366 140.407 20.0962 140.306 20.1666C140.172 20.2629 140.047 20.371 139.931 20.4893C139.8 20.6294 139.678 20.7778 139.566 20.9336C139.502 21.0203 139.462 21.124 139.409 21.2189C139.405 21.2258 139.399 21.2318 139.393 21.2363C139.386 21.2409 139.378 21.2439 139.371 21.2451C139.359 21.2451 139.344 21.2278 139.338 21.2146C139.229 20.9783 139.084 20.7607 138.908 20.5699C138.726 20.3701 138.526 20.1906 138.287 20.0667C138.146 19.9973 138.001 19.9378 137.852 19.8887C137.582 19.7915 137.298 19.7857 137.014 19.7857C135.015 19.7881 133.017 19.7881 131.019 19.7857L130.918 19.7873Z" fill="white"/>
<path d="M139.364 18.8674C139.342 18.8097 139.322 18.7513 139.297 18.6929C139.231 18.538 139.178 18.3728 139.091 18.2284C138.996 18.0794 138.886 17.94 138.764 17.812C138.615 17.6487 138.421 17.5469 138.225 17.4451C138.048 17.3522 137.855 17.3228 137.668 17.269C137.594 17.2545 137.519 17.2482 137.444 17.2505C137.329 17.2447 137.21 17.2408 137.093 17.2361C137.07 17.2361 137.048 17.2361 137.027 17.2361H131.091C131.048 17.238 131.005 17.2366 130.962 17.2319C130.952 17.2286 130.943 17.2228 130.936 17.2152C130.929 17.2076 130.924 17.1983 130.921 17.1882C130.917 17.0902 130.917 16.9923 130.921 16.8944C130.921 16.8774 130.95 16.8588 130.969 16.8468C130.979 16.8402 130.997 16.8468 131.012 16.8468C133.184 16.8468 135.354 16.8481 137.525 16.8507C137.691 16.8507 137.857 16.9014 138.021 16.9374C138.149 16.964 138.274 17.0003 138.396 17.0461C138.594 17.1223 138.779 17.233 138.939 17.3732C139.072 17.4885 139.178 17.63 139.254 17.7888C139.288 17.86 139.3 17.9413 139.327 18.016C139.335 18.0365 139.362 18.05 139.38 18.0667C139.397 18.0469 139.425 18.028 139.428 18.0075C139.478 17.6491 139.643 17.3689 139.956 17.1777C140.147 17.0652 140.356 16.9828 140.572 16.9335C140.889 16.8534 141.208 16.8445 141.531 16.8445C143.595 16.8445 145.659 16.8445 147.723 16.8445C147.838 16.8445 147.838 16.8445 147.838 16.9606C147.838 17.0241 147.836 17.0879 147.838 17.1514C147.841 17.2148 147.813 17.2315 147.761 17.235C147.742 17.235 147.723 17.235 147.703 17.235C145.724 17.235 143.745 17.235 141.766 17.235C141.552 17.2293 141.337 17.2398 141.124 17.2667C140.932 17.2965 140.734 17.3282 140.557 17.4246C140.438 17.4892 140.314 17.5461 140.202 17.6205C140.023 17.7402 139.867 17.8897 139.739 18.0624C139.566 18.2915 139.465 18.5523 139.39 18.8264C139.387 18.8377 139.383 18.8488 139.378 18.8596C139.378 18.8596 139.375 18.8635 139.364 18.8674Z" fill="white"/>
<path d="M138.475 9.14958C138.475 9.27069 138.475 9.38487 138.475 9.49784C138.479 9.8996 138.484 10.301 138.489 10.7022C138.495 11.1748 138.498 11.647 138.513 12.1191C138.529 12.6423 138.761 13.0336 139.208 13.3188C139.927 13.779 140.983 13.7028 141.614 13.1574C142.043 12.794 142.335 12.2942 142.442 11.741C142.449 11.7058 142.457 11.6709 142.465 11.6357L142.483 11.6384C142.472 11.7394 142.462 11.8412 142.448 11.9418C142.4 12.3387 142.289 12.7255 142.121 13.0878C141.79 13.7805 141.23 14.1466 140.479 14.2368C139.882 14.3157 139.274 14.2249 138.725 13.9748C138.201 13.7349 137.856 13.3308 137.693 12.777C137.665 12.6705 137.651 12.5605 137.654 12.4503C137.651 11.593 137.651 10.7358 137.654 9.87867C137.656 9.81805 137.67 9.75832 137.695 9.70336C137.77 9.54338 137.882 9.40293 138.02 9.29276C138.146 9.18475 138.294 9.14258 138.475 9.14958Z" fill="white"/>
<path d="M138.258 13.887H136.273V13.7999C136.273 13.1977 136.273 12.5951 136.273 11.9929C136.274 11.9576 136.268 11.9225 136.254 11.8899C136.241 11.8574 136.22 11.8281 136.195 11.8041C135.779 11.3886 135.363 10.9724 134.948 10.5552C134.924 10.5312 134.902 10.5052 134.874 10.4751C134.899 10.448 134.921 10.4224 134.944 10.3977C135.36 9.98019 135.776 9.5633 136.191 9.14684C136.219 9.12165 136.241 9.09074 136.255 9.05614C136.27 9.0216 136.276 8.98426 136.275 8.94679C136.272 8.34689 136.273 7.74705 136.273 7.14677V7.07479C136.304 7.07286 136.33 7.07054 136.356 7.07015C136.892 7.07015 137.427 7.06357 137.963 7.07247C138.322 7.07866 138.251 7.07247 138.462 6.86387C138.834 6.49389 139.203 6.12004 139.574 5.74774C139.601 5.72026 139.627 5.69084 139.651 5.66492C140.049 6.06779 140.446 6.4699 140.845 6.8751L140.68 6.9912C140.677 6.7648 140.516 6.67888 140.357 6.59916C140.176 6.5086 139.993 6.53762 139.815 6.62354C139.796 6.63321 139.777 6.64367 139.753 6.65643C139.709 6.60999 139.667 6.56278 139.623 6.51788C139.557 6.45055 139.494 6.44784 139.425 6.51285C139.356 6.57787 139.304 6.6425 139.237 6.69746C139.197 6.73084 139.148 6.75087 139.096 6.75473C138.848 6.75861 138.677 6.88167 138.559 7.08911C138.537 7.13277 138.529 7.18156 138.534 7.22997C138.539 7.27977 138.534 7.33015 138.518 7.37773C138.502 7.42531 138.477 7.46901 138.443 7.50597C138.41 7.54293 138.368 7.57219 138.322 7.59197C138.277 7.61169 138.227 7.62142 138.177 7.62047L136.826 7.61735C136.688 7.61735 136.669 7.63675 136.669 7.77218C136.669 8.24238 136.669 8.71264 136.669 9.18285C136.67 9.2144 136.664 9.24576 136.652 9.27476C136.639 9.30383 136.622 9.32991 136.598 9.35116C136.278 9.66959 135.958 9.98923 135.64 10.3102C135.616 10.3338 135.592 10.3589 135.57 10.3853C135.55 10.4069 135.538 10.4358 135.538 10.4658C135.538 10.4958 135.55 10.5246 135.57 10.5463C135.591 10.5706 135.612 10.5938 135.635 10.6159C135.955 10.9379 136.276 11.2596 136.598 11.5811C136.621 11.6024 136.639 11.6285 136.652 11.6575C136.664 11.6866 136.67 11.7179 136.669 11.7495C136.669 12.2271 136.669 12.7047 136.669 13.1814C136.669 13.318 136.686 13.3362 136.823 13.3362C137.103 13.3362 137.383 13.3362 137.663 13.3316C137.696 13.3304 137.729 13.3378 137.759 13.353C137.789 13.3682 137.814 13.3909 137.832 13.4187C137.948 13.5576 138.075 13.6857 138.199 13.8161C138.223 13.8358 138.249 13.8529 138.276 13.8672L138.258 13.887Z" fill="white"/>
<path d="M137.655 13.128H136.87C136.87 13.0974 136.867 13.0692 136.867 13.041C136.867 12.5781 136.869 12.1152 136.871 11.6524C136.871 11.6218 136.865 11.5916 136.853 11.5638C136.84 11.5359 136.822 11.511 136.8 11.4906C136.464 11.1552 136.129 10.8198 135.794 10.4844C135.79 10.4784 135.787 10.472 135.785 10.4654C135.804 10.4445 135.822 10.4213 135.846 10.3992C136.16 10.0845 136.474 9.76997 136.789 9.45567C136.817 9.42895 136.839 9.39639 136.853 9.36032C136.867 9.32419 136.873 9.28539 136.87 9.24671C136.867 8.77651 136.87 8.30624 136.87 7.82987H137.766C137.738 7.86371 137.708 7.8959 137.677 7.92624C137.55 8.03266 137.5 8.1623 137.506 8.3322C137.518 8.68708 137.508 9.04234 137.51 9.39766C137.512 9.43156 137.506 9.46547 137.494 9.49702C137.481 9.5285 137.462 9.55681 137.437 9.5799C137.163 9.85081 136.891 10.126 136.619 10.3996C136.553 10.4662 136.553 10.4739 136.619 10.5409C136.892 10.8168 137.165 11.0935 137.44 11.3679C137.463 11.3895 137.481 11.4157 137.493 11.445C137.505 11.4743 137.511 11.5058 137.51 11.5374C137.508 11.8679 137.508 12.1985 137.51 12.5289C137.512 12.7108 137.552 12.8902 137.627 13.0557C137.635 13.0773 137.642 13.0967 137.655 13.128Z" fill="white"/>
<path d="M139.696 8.9522C139.693 8.91079 139.689 8.87708 139.689 8.84343C139.69 8.23405 139.692 7.62473 139.693 7.01558C139.692 6.98639 139.697 6.95729 139.708 6.93021C139.719 6.90313 139.735 6.87867 139.756 6.85846C139.979 6.63515 140.282 6.6425 140.488 6.88245C140.512 6.91238 140.525 6.94935 140.526 6.98772C140.528 7.62161 140.526 8.25516 140.526 8.8891C140.526 8.92275 140.526 8.95296 140.48 8.95258C140.223 8.95144 139.964 8.9522 139.696 8.9522Z" fill="white"/>
<path d="M139.678 11.1519V9.15422H139.947C140.108 9.15422 140.269 9.15422 140.43 9.15422C140.478 9.15422 140.498 9.16465 140.498 9.21885C140.496 9.84267 140.496 10.4666 140.498 11.0904C140.498 11.1241 140.498 11.1535 140.451 11.1531C140.196 11.1512 139.941 11.1519 139.678 11.1519Z" fill="white"/>
<path d="M142.499 11.1519C142.233 11.1519 141.98 11.1519 141.729 11.15C141.715 11.15 141.695 11.1245 141.688 11.107C141.684 11.0854 141.683 11.0631 141.686 11.0413C141.684 10.6593 141.691 10.2769 141.678 9.89534C141.669 9.60814 141.804 9.41623 142.03 9.27184C142.203 9.16154 142.398 9.12051 142.6 9.11281C142.658 9.11084 142.715 9.11281 142.79 9.11281C142.735 9.16657 142.689 9.2053 142.652 9.25097C142.528 9.40071 142.499 9.58111 142.499 9.76838V11.1519Z" fill="white"/>
<path d="M140.672 9.16428H141.505C141.505 9.19099 141.509 9.21688 141.509 9.24169C141.509 9.85158 141.509 10.4611 141.509 11.0707C141.509 11.1353 141.495 11.1539 141.428 11.1481C141.342 11.1448 141.259 11.1241 141.181 11.0873C141.104 11.0506 141.035 10.9984 140.978 10.9341C140.937 10.8864 140.894 10.8396 140.853 10.7905C140.735 10.6469 140.664 10.4894 140.668 10.2947C140.677 9.92282 140.672 9.54816 140.672 9.16428Z" fill="white"/>
<path d="M138.674 11.1442V9.1546H139.487C139.489 9.18825 139.492 9.22152 139.492 9.25485C139.492 9.6194 139.487 9.98394 139.492 10.3485C139.495 10.4812 139.451 10.6106 139.366 10.7127C139.19 10.9422 138.947 11.0606 138.674 11.1442Z" fill="white"/>
<path d="M138.324 13.9318C138.985 14.3575 139.739 14.4504 140.507 14.3943L139.644 15.2566L138.324 13.9318Z" fill="white"/>
<path d="M140.895 12.2596L140.245 12.9225L139.606 12.2774L140.239 11.6311L140.895 12.2596Z" fill="white"/>
<path d="M138.677 7.94787V7.31629C138.677 7.21839 138.711 7.12368 138.775 7.04952C138.839 6.97539 138.927 6.92679 139.023 6.91263C139.117 6.89621 139.215 6.91108 139.299 6.95499C139.385 6.99891 139.453 7.06948 139.495 7.15606C139.506 7.18035 139.512 7.20675 139.512 7.23347C139.512 7.45133 139.512 7.66888 139.512 7.88674C139.512 7.9216 139.512 7.94825 139.463 7.94787C139.204 7.94749 138.947 7.94787 138.677 7.94787Z" fill="white"/>
<path d="M137.654 8.94635C137.654 8.69636 137.651 8.45025 137.657 8.20408C137.657 8.16541 137.695 8.12667 137.72 8.09226C137.91 7.85035 138.263 7.83063 138.469 8.16077C138.477 8.17228 138.482 8.18564 138.483 8.19944C138.483 8.44599 138.483 8.69248 138.483 8.94444L137.654 8.94635Z" fill="white"/>
<path d="M140.684 7.93934V7.38015C140.683 7.32824 140.693 7.27672 140.712 7.22857C140.731 7.18035 140.76 7.13652 140.796 7.0995C140.833 7.06249 140.876 7.03304 140.923 7.01286C140.971 6.99268 141.022 6.98215 141.073 6.98191C141.163 6.9778 141.251 7.00165 141.326 7.05017C141.402 7.09867 141.461 7.16947 141.494 7.2528C141.511 7.30598 141.519 7.36183 141.516 7.41768C141.519 7.57867 141.516 7.74005 141.516 7.90143C141.515 7.91459 141.512 7.92757 141.509 7.94017L140.684 7.93934Z" fill="white"/>
<path d="M141.517 8.94558H140.701V8.12667H141.517V8.94558Z" fill="white"/>
<path d="M139.49 8.13093V8.94367H138.67V8.18901C138.67 8.15415 138.666 8.1205 138.72 8.12088C138.968 8.12088 139.216 8.12088 139.465 8.12088C139.473 8.12317 139.482 8.12654 139.49 8.13093Z" fill="white"/>
<path d="M139.406 6.83523L139.512 6.72261C139.6 6.78569 139.601 6.79614 139.527 6.93857C139.487 6.90489 139.45 6.87239 139.406 6.83523Z" fill="white"/>
<path d="M138.52 7.96377L138.37 7.84106L138.52 7.72498V7.96377Z" fill="white"/>
</g>
<defs>
<clipPath id="clip0_23_101">
<rect width="148.719" height="22.2634" fill="white" transform="translate(0 0.736633)"/>
</clipPath>
</defs>
</svg>
