<svg width="92" height="92" viewBox="0 0 92 92" fill="none" xmlns="http://www.w3.org/2000/svg">
<circle cx="46" cy="46" r="45" fill="white" stroke="#141E27" stroke-dasharray="12 6"/>
<path d="M35.7879 30C34.9785 30 34.3274 30.6479 34.3274 31.4531V38.6037L32.9277 37.2051C32.3557 36.6359 31.4307 36.6359 30.8648 37.2051C30.2988 37.7742 30.2927 38.6945 30.8648 39.2576L34.7595 43.1326C35.3315 43.7018 36.2565 43.7018 36.8224 43.1326L40.7171 39.2576C41.2892 38.6885 41.2892 37.7682 40.7171 37.2051C40.1451 36.642 39.2201 36.6359 38.6541 37.2051L37.2545 38.5977L37.2484 31.4531C37.2484 30.6479 36.5973 30 35.7879 30ZM48.9325 42.1094C48.9325 41.4671 48.676 40.851 48.2195 40.3969C47.763 39.9427 47.1439 39.6875 46.4983 39.6875C45.8527 39.6875 45.2336 39.9427 44.7771 40.3969C44.3206 40.851 44.0641 41.4671 44.0641 42.1094C44.0641 42.7517 44.3206 43.3677 44.7771 43.8219C45.2336 44.2761 45.8527 44.5312 46.4983 44.5312C47.1439 44.5312 47.763 44.2761 48.2195 43.8219C48.676 43.3677 48.9325 42.7517 48.9325 42.1094ZM38.2221 47.9219C38.2221 47.2796 37.9656 46.6635 37.5091 46.2094C37.0526 45.7552 36.4335 45.5 35.7879 45.5C35.1423 45.5 34.5232 45.7552 34.0667 46.2094C33.6102 46.6635 33.3537 47.2796 33.3537 47.9219C33.3537 48.5642 33.6102 49.1802 34.0667 49.6344C34.5232 50.0886 35.1423 50.3438 35.7879 50.3438C36.4335 50.3438 37.0526 50.0886 37.5091 49.6344C37.9656 49.1802 38.2221 48.5642 38.2221 47.9219ZM57.2087 50.3438C57.8543 50.3438 58.4734 50.0886 58.9299 49.6344C59.3864 49.1802 59.6429 48.5642 59.6429 47.9219C59.6429 47.2796 59.3864 46.6635 58.9299 46.2094C58.4734 45.7552 57.8543 45.5 57.2087 45.5C56.5631 45.5 55.944 45.7552 55.4875 46.2094C55.031 46.6635 54.7745 47.2796 54.7745 47.9219C54.7745 48.5642 55.031 49.1802 55.4875 49.6344C55.944 50.0886 56.5631 50.3438 57.2087 50.3438ZM39.1958 56.7314L40.8327 59.7527C41.2161 60.4611 42.0985 60.7215 42.8105 60.3461C43.5225 59.9707 43.7842 59.0867 43.4069 58.3783L41.1979 54.2914C41.3013 54.1885 41.3926 54.0734 41.4595 53.9402L43.0904 50.9189V54.2188C43.0904 55.2904 43.9607 56.1562 45.0378 56.1562H47.9588C49.0359 56.1562 49.9062 55.2904 49.9062 54.2188V50.9189L51.5431 53.9402C51.6162 54.0734 51.7014 54.1885 51.8048 54.2914L49.5958 58.3783C49.2124 59.0867 49.4802 59.9646 50.1922 60.3461C50.9042 60.7275 51.7866 60.4611 52.17 59.7527L53.8009 56.7314V59.0625C53.8009 60.1342 54.6711 61 55.7482 61H58.6692C59.7463 61 60.6166 60.1342 60.6166 59.0625V56.7314L62.2536 59.7527C62.6369 60.4611 63.5193 60.7215 64.2313 60.3461C64.9433 59.9707 65.205 59.0867 64.8277 58.3783L62.5213 54.1219C61.5902 52.3963 59.7768 51.3186 57.8051 51.3186H56.6184C55.6265 51.3186 54.6772 51.591 53.8556 52.0814L51.8109 48.3094C50.8798 46.5838 49.0664 45.5061 47.0947 45.5061H45.908C43.9363 45.5061 42.1289 46.5838 41.1918 48.3094L39.1471 52.0814C38.3255 51.591 37.3762 51.3186 36.3843 51.3186H35.1976C33.2259 51.3186 31.4185 52.3963 30.4814 54.1219L28.175 58.3723C27.7916 59.0807 28.0594 59.9586 28.7714 60.34C29.4834 60.7215 30.3658 60.4551 30.7491 59.7467L32.38 56.7314V59.0625C32.38 60.1342 33.2503 61 34.3274 61H37.2484C38.3255 61 39.1958 60.1342 39.1958 59.0625V56.7314ZM52.2795 39.2637L56.1742 43.1387C56.7462 43.7078 57.6712 43.7078 58.2372 43.1387L62.1318 39.2637C62.7039 38.6945 62.7039 37.7742 62.1318 37.2111C61.5598 36.648 60.6348 36.642 60.0689 37.2111L58.6692 38.6037V31.4531C58.6692 30.6479 58.0181 30 57.2087 30C56.3993 30 55.7482 30.6479 55.7482 31.4531V38.6037L54.3485 37.2111C53.7765 36.642 52.8515 36.642 52.2856 37.2111C51.7196 37.7803 51.7135 38.7006 52.2856 39.2637H52.2795Z" fill="#B45F5F"/>
</svg>
