<svg width="19" height="19" viewBox="0 0 19 19" fill="none" xmlns="http://www.w3.org/2000/svg">
<g clip-path="url(#clip0_40_751)">
<path d="M9.20312 0.296875C4.11914 0.296875 0 4.41602 0 9.5C0 14.584 4.11914 18.7031 9.20312 18.7031C14.2871 18.7031 18.4062 14.584 18.4062 9.5C18.4062 4.41602 14.2871 0.296875 9.20312 0.296875ZM13.4707 6.55723C13.3334 8.01191 12.7322 11.5447 12.4279 13.1738C12.298 13.8641 12.0457 14.0941 11.8008 14.1164C11.2664 14.1646 10.8619 13.7639 10.3424 13.4225C9.5334 12.8918 9.07324 12.5615 8.29023 12.042C7.38105 11.4445 7.97109 11.1143 8.48691 10.5762C8.62422 10.4352 10.977 8.29395 11.0215 8.10098C11.0289 8.075 11.0326 7.98594 10.977 7.9377C10.9213 7.88945 10.8434 7.90801 10.7877 7.91914C10.7061 7.93646 9.41217 8.79121 6.90605 10.4834C6.53991 10.7357 6.20716 10.8582 5.90781 10.8508C5.57754 10.8434 4.94668 10.6652 4.47539 10.5131C3.9002 10.3275 3.44004 10.2273 3.48086 9.9082C3.50065 9.74245 3.72949 9.57298 4.16738 9.39981C6.84915 8.2321 8.63783 7.46146 9.5334 7.08789C12.0902 6.02656 12.6209 5.84102 12.966 5.83359C13.0439 5.83359 13.2109 5.85215 13.3223 5.94121C13.3949 6.00509 13.4412 6.09372 13.4521 6.18984C13.4722 6.31121 13.4784 6.43446 13.4707 6.55723Z" fill="#1B3E5D"/>
</g>
<defs>
<clipPath id="clip0_40_751">
<rect width="18.4062" height="19" fill="white"/>
</clipPath>
</defs>
</svg>
