<svg width="253" height="118" viewBox="0 0 253 118" fill="none" xmlns="http://www.w3.org/2000/svg">
<circle cx="46" cy="49" r="45" fill="white" stroke="#141E27" stroke-dasharray="12 6"/>
<path d="M11.5234 112C9.55762 112 8.57471 111.15 8.57471 109.449C8.57471 108.668 8.80745 108.027 9.27295 107.526C9.79574 106.967 10.5352 106.688 11.4912 106.688C12.3542 106.688 13.1204 106.815 13.79 107.069V110.856H14.8643V112H11.5234ZM12.3828 108.031C12.1035 107.898 11.7544 107.832 11.3354 107.832C10.9308 107.832 10.6104 107.972 10.374 108.251C10.1413 108.523 10.0249 108.878 10.0249 109.314C10.0249 110.342 10.5763 110.856 11.6792 110.856H12.3828V108.031ZM12.2593 105.995C12.0552 105.995 11.8833 105.922 11.7437 105.775C11.604 105.632 11.5342 105.456 11.5342 105.249C11.5342 105.041 11.604 104.864 11.7437 104.717C11.8869 104.57 12.0588 104.497 12.2593 104.497C12.4634 104.497 12.6353 104.57 12.7749 104.717C12.9146 104.86 12.9844 105.037 12.9844 105.249C12.9844 105.453 12.9146 105.628 12.7749 105.775C12.6353 105.922 12.4634 105.995 12.2593 105.995ZM10.4331 105.995C10.229 105.995 10.0571 105.922 9.91748 105.775C9.77783 105.632 9.70801 105.456 9.70801 105.249C9.70801 105.041 9.77783 104.864 9.91748 104.717C10.0607 104.57 10.2326 104.497 10.4331 104.497C10.6408 104.497 10.8162 104.57 10.9595 104.717C11.0991 104.86 11.1689 105.037 11.1689 105.249C11.1689 105.453 11.0991 105.628 10.9595 105.775C10.8162 105.922 10.6408 105.995 10.4331 105.995ZM14.7031 110.856H16.2446V106.828H17.6948V110.856H19.1934V112H14.7031V110.856ZM16.3735 113.649C16.3735 113.857 16.3037 114.032 16.1641 114.175C16.0208 114.322 15.8454 114.396 15.6377 114.396C15.4336 114.396 15.2617 114.324 15.1221 114.181C14.9824 114.037 14.9126 113.86 14.9126 113.649C14.9126 113.445 14.9824 113.269 15.1221 113.123C15.2653 112.976 15.4372 112.902 15.6377 112.902C15.8454 112.902 16.0208 112.974 16.1641 113.117C16.3037 113.264 16.3735 113.441 16.3735 113.649ZM18.189 113.649C18.189 113.853 18.1191 114.028 17.9795 114.175C17.8363 114.322 17.6644 114.396 17.4639 114.396C17.2598 114.396 17.0879 114.324 16.9482 114.181C16.8086 114.037 16.7388 113.86 16.7388 113.649C16.7388 113.445 16.8086 113.269 16.9482 113.123C17.0915 112.976 17.2633 112.902 17.4639 112.902C17.668 112.902 17.8398 112.974 17.9795 113.117C18.1191 113.264 18.189 113.441 18.189 113.649ZM19.0215 110.856H20.4932V106.828H21.9487V107.107C21.9487 107.723 21.904 108.265 21.8145 108.734H21.8359C22.0723 108.086 22.4536 107.578 22.98 107.209C23.4741 106.862 24.0202 106.688 24.6182 106.688C25.3737 106.688 25.952 106.91 26.353 107.354C26.7469 107.787 26.9438 108.398 26.9438 109.186C26.9438 109.859 26.7845 110.416 26.4658 110.856H27.626V112H19.0215V110.856ZM23.7051 110.856C24.8652 110.856 25.4453 110.328 25.4453 109.271C25.4453 108.319 25.0711 107.843 24.3228 107.843C23.7498 107.843 23.2306 108.151 22.7651 108.767C22.3247 109.35 22.0454 110.047 21.9272 110.856H23.7051ZM27.3896 110.856H31.6489C31.6847 110.562 31.7026 110.283 31.7026 110.018C31.7026 109.302 31.5415 108.776 31.2192 108.439C30.8755 108.084 30.3169 107.907 29.5435 107.907C29.1353 107.907 28.7145 107.938 28.2812 107.999V106.865C28.7969 106.797 29.266 106.763 29.6885 106.763C30.9023 106.763 31.7868 107.034 32.3418 107.574C32.8753 108.09 33.1421 108.887 33.1421 109.964C33.1421 110.276 33.1278 110.573 33.0991 110.856H33.9585V112H27.3896V110.856ZM29.9946 105.904C29.7869 105.904 29.6097 105.832 29.4629 105.689C29.3125 105.542 29.2373 105.361 29.2373 105.146C29.2373 104.939 29.3125 104.76 29.4629 104.609C29.6097 104.463 29.7869 104.389 29.9946 104.389C30.2059 104.389 30.3849 104.463 30.5317 104.609C30.6821 104.76 30.7573 104.939 30.7573 105.146C30.7573 105.354 30.6821 105.533 30.5317 105.684C30.3849 105.83 30.2059 105.904 29.9946 105.904ZM33.792 110.856H34.3398C34.7051 110.856 34.9593 110.763 35.1025 110.577C35.2565 110.38 35.3335 110.018 35.3335 109.492V107.488H36.7837V109.524C36.7837 110.054 36.8285 110.414 36.918 110.604C37.0218 110.829 37.2295 110.942 37.541 110.942C38.1283 110.942 38.4219 110.473 38.4219 109.535V107.048H39.8184V109.809C39.8184 110.238 39.9079 110.521 40.0869 110.657C40.2588 110.79 40.6025 110.856 41.1182 110.856H41.4028C41.4565 110.444 41.4834 110.004 41.4834 109.535C41.4834 108.521 41.376 107.538 41.1611 106.586L42.5791 106.393C42.8154 107.377 42.9336 108.392 42.9336 109.438C42.9336 109.846 42.9157 110.319 42.8799 110.856H43.9541V112H40.9517C40.3537 112 39.9097 111.95 39.6196 111.85C39.3081 111.739 39.0736 111.536 38.916 111.243C38.6546 111.805 38.1014 112.086 37.2563 112.086C36.4722 112.086 35.9852 111.801 35.7954 111.232C35.5698 111.744 35.0811 112 34.3291 112H33.792V110.856ZM39.9849 105.995C39.7772 105.995 39.6017 105.922 39.4585 105.775C39.3188 105.632 39.249 105.456 39.249 105.249C39.249 105.041 39.3188 104.864 39.4585 104.717C39.6017 104.57 39.7772 104.497 39.9849 104.497C40.189 104.497 40.3608 104.57 40.5005 104.717C40.6401 104.86 40.71 105.037 40.71 105.249C40.71 105.453 40.6401 105.628 40.5005 105.775C40.3573 105.922 40.1854 105.995 39.9849 105.995ZM38.1587 105.995C37.9546 105.995 37.7827 105.922 37.6431 105.775C37.5034 105.632 37.4336 105.456 37.4336 105.249C37.4336 105.041 37.5034 104.864 37.6431 104.717C37.7863 104.57 37.9582 104.497 38.1587 104.497C38.3628 104.497 38.5347 104.57 38.6743 104.717C38.814 104.86 38.8838 105.037 38.8838 105.249C38.8838 105.453 38.814 105.628 38.6743 105.775C38.5347 105.922 38.3628 105.995 38.1587 105.995ZM39.061 104.432C38.8748 104.432 38.7155 104.364 38.583 104.228C38.4541 104.096 38.3896 103.933 38.3896 103.739C38.3896 103.546 38.4541 103.383 38.583 103.25C38.7155 103.114 38.8748 103.046 39.061 103.046C39.2544 103.046 39.4155 103.114 39.5444 103.25C39.6769 103.383 39.7432 103.546 39.7432 103.739C39.7432 103.933 39.6769 104.096 39.5444 104.228C39.4155 104.364 39.2544 104.432 39.061 104.432ZM43.793 110.856H45.1572V104.244H46.6074V112H43.793V110.856ZM48.4766 104.244H49.9268V112H48.4766V104.244ZM56.3721 112C54.4062 112 53.4233 111.153 53.4233 109.459C53.4233 108.668 53.6632 108.018 54.1431 107.51C54.6623 106.962 55.3802 106.688 56.2969 106.688C57.9512 106.688 58.7783 107.531 58.7783 109.218V112H56.3721ZM57.3604 109.395C57.3604 108.353 56.9683 107.832 56.1841 107.832C55.7795 107.832 55.459 107.972 55.2227 108.251C54.9899 108.523 54.8735 108.878 54.8735 109.314C54.8735 110.342 55.425 110.856 56.5278 110.856H57.3604V109.395ZM57.1079 105.995C56.9038 105.995 56.7319 105.922 56.5923 105.775C56.4526 105.632 56.3828 105.456 56.3828 105.249C56.3828 105.041 56.4526 104.864 56.5923 104.717C56.7355 104.57 56.9074 104.497 57.1079 104.497C57.312 104.497 57.4839 104.57 57.6235 104.717C57.7632 104.86 57.833 105.037 57.833 105.249C57.833 105.453 57.7632 105.628 57.6235 105.775C57.4839 105.922 57.312 105.995 57.1079 105.995ZM55.2817 105.995C55.0776 105.995 54.9058 105.922 54.7661 105.775C54.6265 105.632 54.5566 105.456 54.5566 105.249C54.5566 105.041 54.6265 104.864 54.7661 104.717C54.9093 104.57 55.0812 104.497 55.2817 104.497C55.4894 104.497 55.6649 104.57 55.8081 104.717C55.9478 104.86 56.0176 105.037 56.0176 105.249C56.0176 105.453 55.9478 105.628 55.8081 105.775C55.6649 105.922 55.4894 105.995 55.2817 105.995ZM59.4658 114.793C59.1436 114.793 58.8356 114.757 58.542 114.686L58.6494 113.531C58.9538 113.617 59.251 113.66 59.541 113.66C59.9385 113.66 60.2303 113.552 60.4165 113.337C60.6278 113.094 60.7334 112.689 60.7334 112.124V106.828H62.1836V112.043C62.1836 113.876 61.2777 114.793 59.4658 114.793ZM65.041 114.771C64.4896 114.771 63.931 114.723 63.3652 114.626L63.4565 113.439C64.0295 113.565 64.6006 113.627 65.1699 113.627C66.4411 113.627 67.0767 113.14 67.0767 112.167V112H66.2173C64.2515 112 63.2686 111.15 63.2686 109.449C63.2686 108.668 63.5013 108.027 63.9668 107.526C64.4896 106.967 65.229 106.688 66.1851 106.688C67.048 106.688 67.8143 106.815 68.4839 107.069V110.856H69.5581V112H68.4839V112.021C68.4839 112.838 68.2171 113.486 67.6836 113.966C67.0892 114.503 66.2083 114.771 65.041 114.771ZM67.0767 108.031C66.7974 107.898 66.4482 107.832 66.0293 107.832C65.6247 107.832 65.3042 107.972 65.0679 108.251C64.8351 108.523 64.7188 108.878 64.7188 109.314C64.7188 110.342 65.2702 110.856 66.373 110.856H67.0767V108.031ZM69.4023 110.856H70.874V106.828H72.3296V107.107C72.3296 107.723 72.2848 108.265 72.1953 108.734H72.2168C72.4531 108.086 72.8345 107.578 73.3608 107.209C73.855 106.862 74.401 106.688 74.999 106.688C75.7546 106.688 76.3328 106.91 76.7339 107.354C77.1278 107.787 77.3247 108.398 77.3247 109.186C77.3247 109.859 77.1654 110.416 76.8467 110.856H78.0068V112H69.4023V110.856ZM74.0859 110.856C75.2461 110.856 75.8262 110.328 75.8262 109.271C75.8262 108.319 75.452 107.843 74.7036 107.843C74.1307 107.843 73.6115 108.151 73.146 108.767C72.7056 109.35 72.4263 110.047 72.3081 110.856H74.0859ZM77.7705 110.856H79.1348V104.244H80.585V112H77.7705V110.856ZM82.4541 104.244H83.9043V112H82.4541V104.244Z" fill="#1B3E5D"/>
<path d="M148.645 35C147.284 35 146.292 34.7279 145.669 34.1836C145.079 33.668 144.783 32.873 144.783 31.7988C144.783 31.1042 144.905 30.4954 145.148 29.9727L146.223 29.7847C145.943 30.354 145.804 30.986 145.804 31.6807C145.804 32.5544 146.01 33.1828 146.421 33.5659C146.876 33.9849 147.657 34.1943 148.763 34.1943H149.698V29.9189C150.346 29.7793 151.017 29.7095 151.712 29.7095C152.596 29.7095 153.236 29.9225 153.629 30.3486C153.987 30.7354 154.167 31.3244 154.167 32.1157V34.1943H155.268V35H153.178V32.25C153.178 31.627 153.056 31.1812 152.813 30.9126C152.573 30.644 152.174 30.5098 151.615 30.5098C151.314 30.5098 151.007 30.5402 150.691 30.6011V35H148.645ZM149.854 36.6382C149.854 36.8029 149.798 36.9425 149.687 37.0571C149.576 37.1753 149.442 37.2344 149.284 37.2344C149.116 37.2344 148.974 37.1771 148.86 37.0625C148.745 36.9479 148.688 36.8065 148.688 36.6382C148.688 36.4771 148.745 36.341 148.86 36.23C148.978 36.1154 149.119 36.0581 149.284 36.0581C149.442 36.0581 149.576 36.1136 149.687 36.2246C149.798 36.3356 149.854 36.4735 149.854 36.6382ZM148.237 36.6382C148.237 36.8029 148.18 36.9425 148.065 37.0571C147.95 37.1753 147.814 37.2344 147.657 37.2344C147.488 37.2344 147.349 37.1771 147.238 37.0625C147.127 36.9515 147.071 36.8101 147.071 36.6382C147.071 36.4771 147.127 36.341 147.238 36.23C147.352 36.1154 147.492 36.0581 147.657 36.0581C147.814 36.0581 147.95 36.1136 148.065 36.2246C148.18 36.3356 148.237 36.4735 148.237 36.6382ZM155.106 34.1943H155.746C155.993 34.1943 156.252 34.2069 156.524 34.2319C156.041 33.8739 155.799 33.2616 155.799 32.395C155.799 31.6252 156.037 30.9896 156.514 30.4883C157.008 29.9691 157.658 29.7095 158.463 29.7095C159.208 29.7095 159.792 29.9046 160.214 30.2949C160.68 30.7318 160.913 31.387 160.913 32.2607C160.913 33.1595 160.628 33.8166 160.059 34.2319C160.431 34.2069 160.75 34.1943 161.015 34.1943H161.772V35H155.106V34.1943ZM158.361 34.1943C158.802 34.1943 159.16 34.0439 159.436 33.7432C159.74 33.4102 159.892 32.9375 159.892 32.3252C159.892 31.1149 159.385 30.5098 158.372 30.5098C157.939 30.5098 157.583 30.6548 157.303 30.9448C156.981 31.2707 156.82 31.7272 156.82 32.3145C156.82 33.5677 157.334 34.1943 158.361 34.1943ZM158.394 28.6299C158.229 28.6299 158.089 28.5726 157.975 28.458C157.86 28.3434 157.803 28.2038 157.803 28.0391C157.803 27.8708 157.86 27.7275 157.975 27.6094C158.089 27.4912 158.229 27.4321 158.394 27.4321C158.562 27.4321 158.705 27.4894 158.823 27.604C158.941 27.7222 159 27.8672 159 28.0391C159 28.2038 158.941 28.3434 158.823 28.458C158.705 28.5726 158.562 28.6299 158.394 28.6299ZM161.605 34.1943H163.147V27.2441H164.157V34.1943H165.365V35H161.605V34.1943ZM165.204 34.1943H166.81V29.8276H167.82V34.1943H169.528V35H165.204V34.1943ZM166.724 36.6382C166.724 36.8029 166.667 36.9425 166.552 37.0571C166.438 37.1753 166.3 37.2344 166.139 37.2344C165.974 37.2344 165.836 37.1771 165.725 37.0625C165.614 36.9515 165.559 36.8101 165.559 36.6382C165.559 36.4771 165.614 36.341 165.725 36.23C165.836 36.1154 165.974 36.0581 166.139 36.0581C166.3 36.0581 166.438 36.1136 166.552 36.2246C166.667 36.3356 166.724 36.4735 166.724 36.6382ZM168.341 36.6382C168.341 36.8029 168.285 36.9425 168.174 37.0571C168.063 37.1753 167.927 37.2344 167.766 37.2344C167.601 37.2344 167.462 37.1771 167.347 37.0625C167.233 36.9479 167.175 36.8065 167.175 36.6382C167.175 36.4771 167.233 36.341 167.347 36.23C167.462 36.1154 167.601 36.0581 167.766 36.0581C167.927 36.0581 168.063 36.1136 168.174 36.2246C168.285 36.3356 168.341 36.4735 168.341 36.6382ZM169.372 34.1943H169.845C170.253 34.1943 170.541 34.0887 170.709 33.8774C170.889 33.6519 170.978 33.2562 170.978 32.6904V30.4883H171.988V32.4917C171.988 33.147 172.033 33.5856 172.122 33.8076C172.247 34.1191 172.511 34.2749 172.912 34.2749C173.667 34.2749 174.045 33.6841 174.045 32.5024V30.0479H175.028V32.8677C175.028 33.4263 175.146 33.7933 175.382 33.9688C175.59 34.1191 176.007 34.1943 176.634 34.1943H176.994C177.055 33.693 177.085 33.1846 177.085 32.6689C177.085 31.5732 176.963 30.5617 176.72 29.6343L177.697 29.457C177.962 30.3988 178.095 31.439 178.095 32.5776C178.095 33.4048 178.036 34.2122 177.917 35H176.666C175.964 35 175.454 34.9391 175.135 34.8174C174.802 34.6921 174.557 34.4593 174.399 34.1191C174.156 34.7565 173.603 35.0752 172.74 35.0752C171.966 35.0752 171.492 34.7601 171.316 34.1299C171.105 34.71 170.615 35 169.845 35H169.372V34.1943ZM184.513 35C182.59 35 181.629 34.146 181.629 32.438C181.629 31.6574 181.86 31.0182 182.322 30.5205C182.819 29.9798 183.505 29.7095 184.379 29.7095C185.947 29.7095 186.731 30.5312 186.731 32.1748V35H184.513ZM185.743 32.3467C185.743 31.1221 185.26 30.5098 184.293 30.5098C183.785 30.5098 183.383 30.6781 183.09 31.0146C182.796 31.3405 182.649 31.7809 182.649 32.3359C182.649 33.5749 183.317 34.1943 184.653 34.1943H185.743V32.3467ZM185.125 28.8179C184.961 28.8179 184.821 28.7624 184.707 28.6514C184.592 28.5368 184.535 28.3936 184.535 28.2217C184.535 28.0641 184.592 27.9281 184.707 27.8135C184.821 27.6989 184.961 27.6416 185.125 27.6416C185.287 27.6416 185.423 27.6971 185.534 27.8081C185.645 27.9227 185.7 28.0605 185.7 28.2217C185.7 28.39 185.645 28.5314 185.534 28.646C185.423 28.7606 185.287 28.8179 185.125 28.8179ZM183.498 28.8179C183.333 28.8179 183.195 28.7624 183.084 28.6514C182.973 28.5368 182.918 28.3936 182.918 28.2217C182.918 28.0641 182.973 27.9281 183.084 27.8135C183.195 27.6989 183.333 27.6416 183.498 27.6416C183.659 27.6416 183.797 27.6971 183.912 27.8081C184.026 27.9227 184.083 28.0605 184.083 28.2217C184.083 28.3864 184.026 28.5278 183.912 28.646C183.797 28.7606 183.659 28.8179 183.498 28.8179ZM187.747 37.8252C187.371 37.8252 186.989 37.7751 186.603 37.6748L186.71 36.8369C187.05 36.9622 187.421 37.0249 187.822 37.0249C188.309 37.0249 188.667 36.8906 188.896 36.6221C189.157 36.3249 189.288 35.8325 189.288 35.145V29.8276H190.298V35.0537C190.298 36.9014 189.447 37.8252 187.747 37.8252ZM193.349 37.7822C192.783 37.7822 192.21 37.7267 191.63 37.6157L191.7 36.7725C192.316 36.9121 192.901 36.9819 193.456 36.9819C194.856 36.9819 195.556 36.409 195.556 35.2632V35H194.45C192.527 35 191.565 34.146 191.565 32.438C191.565 31.661 191.793 31.0236 192.248 30.5259C192.745 29.9816 193.442 29.7095 194.337 29.7095C195.143 29.7095 195.88 29.8384 196.55 30.0962V34.1943H197.758V35H196.55V35.2095C196.55 35.9328 196.312 36.5218 195.835 36.9766C195.273 37.5137 194.444 37.7822 193.349 37.7822ZM195.556 30.7676C195.198 30.5957 194.756 30.5098 194.229 30.5098C193.721 30.5098 193.32 30.6763 193.026 31.0093C192.733 31.3387 192.586 31.7773 192.586 32.3252C192.586 33.5713 193.254 34.1943 194.589 34.1943H195.556V30.7676ZM197.613 34.1943H199.198V29.8276H200.208V30.2573C200.208 31.0164 200.168 31.6735 200.089 32.2285H200.1C200.351 31.43 200.759 30.8034 201.325 30.3486C201.862 29.9225 202.458 29.7095 203.113 29.7095C203.819 29.7095 204.363 29.9297 204.746 30.3701C205.126 30.8034 205.315 31.4157 205.315 32.207C205.315 33.0378 205.076 33.693 204.596 34.1729C204.048 34.7243 203.217 35 202.104 35H197.613V34.1943ZM202.211 34.1943C203.582 34.1943 204.268 33.557 204.268 32.2822C204.268 31.1006 203.82 30.5098 202.925 30.5098C202.213 30.5098 201.591 30.9019 201.062 31.686C200.578 32.3986 200.286 33.2347 200.186 34.1943H202.211ZM211.514 37.8359C210.504 37.8359 209.738 37.6497 209.215 37.2773C208.746 36.9443 208.511 36.5003 208.511 35.9453C208.511 35.3617 208.805 34.8496 209.392 34.4092C209.675 34.1943 210.287 33.8595 211.229 33.4048C210.284 32.4917 209.48 31.9277 208.817 31.7129L208.909 31.0093C210.072 30.1284 211.132 29.688 212.088 29.688C212.79 29.688 213.331 29.8599 213.71 30.2036C214.043 30.5116 214.21 30.9072 214.21 31.3906C214.21 32.2142 213.703 32.9268 212.69 33.5283C213.274 33.9723 213.868 34.1943 214.473 34.1943H215.145V35H214.328C213.458 35 212.631 34.6598 211.847 33.9795C210.984 34.4056 210.456 34.6831 210.262 34.812C209.786 35.1379 209.548 35.487 209.548 35.8594C209.548 36.6436 210.244 37.0356 211.637 37.0356C212.192 37.0356 212.767 36.9837 213.361 36.8799L213.415 37.6533C212.763 37.7751 212.13 37.8359 211.514 37.8359ZM209.854 31.3262C210.337 31.516 211.07 32.0692 212.051 32.9858C212.813 32.5418 213.195 32.0549 213.195 31.5249C213.195 31.2062 213.098 30.952 212.905 30.7622C212.69 30.5509 212.38 30.4453 211.976 30.4453C211.392 30.4453 210.685 30.7389 209.854 31.3262ZM214.983 35V34.1943H215.854C216.108 34.1943 216.321 34.214 216.493 34.2534C215.948 33.9097 215.676 33.2902 215.676 32.395C215.676 31.6359 215.907 31.0093 216.369 30.5151C216.867 29.978 217.553 29.7095 218.426 29.7095C219.995 29.7095 220.779 30.5312 220.779 32.1748V35H214.983ZM219.791 32.3467C219.791 31.1221 219.307 30.5098 218.34 30.5098C217.832 30.5098 217.431 30.6781 217.137 31.0146C216.844 31.3405 216.697 31.7809 216.697 32.3359C216.697 33.5749 217.365 34.1943 218.7 34.1943H219.791V32.3467ZM218.303 28.6299C218.138 28.6299 217.998 28.5726 217.884 28.458C217.769 28.3434 217.712 28.2038 217.712 28.0391C217.712 27.8708 217.769 27.7275 217.884 27.6094C218.002 27.4912 218.142 27.4321 218.303 27.4321C218.471 27.4321 218.614 27.4894 218.732 27.604C218.851 27.7222 218.91 27.8672 218.91 28.0391C218.91 28.2038 218.851 28.3434 218.732 28.458C218.614 28.5726 218.471 28.6299 218.303 28.6299ZM221.853 37.8252C221.477 37.8252 221.096 37.7751 220.709 37.6748L220.816 36.8369C221.157 36.9622 221.527 37.0249 221.928 37.0249C222.415 37.0249 222.773 36.8906 223.002 36.6221C223.264 36.3249 223.395 35.8325 223.395 35.145V29.8276H224.404V35.0537C224.404 36.9014 223.554 37.8252 221.853 37.8252ZM232.047 35C230.687 35 229.695 34.7279 229.072 34.1836C228.481 33.668 228.186 32.873 228.186 31.7988C228.186 31.1042 228.307 30.4954 228.551 29.9727L229.625 29.7847C229.346 30.354 229.206 30.986 229.206 31.6807C229.206 32.5544 229.412 33.1828 229.824 33.5659C230.278 33.9849 231.059 34.1943 232.166 34.1943H233.1V29.9189C233.748 29.7793 234.42 29.7095 235.114 29.7095C235.999 29.7095 236.638 29.9225 237.032 30.3486C237.39 30.7354 237.569 31.3244 237.569 32.1157V34.1943H238.67V35H236.581V32.25C236.581 31.627 236.459 31.1812 236.215 30.9126C235.975 30.644 235.576 30.5098 235.018 30.5098C234.717 30.5098 234.409 30.5402 234.094 30.6011V35H232.047ZM238.509 34.1943H243.053C243.103 33.7467 243.128 33.3708 243.128 33.0664C243.128 32.207 242.952 31.5858 242.602 31.2026C242.226 30.7944 241.599 30.5903 240.722 30.5903C240.285 30.5903 239.877 30.6154 239.497 30.6655V29.876C239.884 29.8151 240.321 29.7847 240.808 29.7847C241.986 29.7847 242.841 30.0568 243.375 30.6011C243.88 31.1167 244.132 31.9116 244.132 32.9858C244.132 33.6232 244.073 34.2946 243.955 35H238.509V34.1943ZM241.103 37.2451C240.938 37.2451 240.799 37.1878 240.684 37.0732C240.569 36.9587 240.512 36.8172 240.512 36.6489C240.512 36.4842 240.569 36.3446 240.684 36.23C240.799 36.1154 240.938 36.0581 241.103 36.0581C241.271 36.0581 241.415 36.1136 241.533 36.2246C241.651 36.3392 241.71 36.4806 241.71 36.6489C241.71 36.8136 241.651 36.9551 241.533 37.0732C241.415 37.1878 241.271 37.2451 241.103 37.2451ZM245.217 37.8252C244.841 37.8252 244.46 37.7751 244.073 37.6748L244.181 36.8369C244.521 36.9622 244.891 37.0249 245.292 37.0249C245.779 37.0249 246.138 36.8906 246.367 36.6221C246.628 36.3249 246.759 35.8325 246.759 35.145V29.8276H247.769V34.1943H248.977V35H247.769V35.0537C247.769 36.9014 246.918 37.8252 245.217 37.8252ZM248.821 34.1943H251.034V29.8276H252.044V35H248.821V34.1943ZM251.958 36.6382C251.958 36.8029 251.903 36.9425 251.792 37.0571C251.681 37.1753 251.544 37.2344 251.383 37.2344C251.219 37.2344 251.079 37.1771 250.964 37.0625C250.85 36.9479 250.792 36.8065 250.792 36.6382C250.792 36.4771 250.85 36.341 250.964 36.23C251.079 36.1154 251.219 36.0581 251.383 36.0581C251.544 36.0581 251.681 36.1136 251.792 36.2246C251.903 36.3356 251.958 36.4735 251.958 36.6382ZM250.341 36.6382C250.341 36.8029 250.284 36.9425 250.169 37.0571C250.055 37.1753 249.917 37.2344 249.756 37.2344C249.591 37.2344 249.453 37.1771 249.342 37.0625C249.231 36.9515 249.176 36.8101 249.176 36.6382C249.176 36.4771 249.231 36.341 249.342 36.23C249.453 36.1154 249.591 36.0581 249.756 36.0581C249.917 36.0581 250.055 36.1136 250.169 36.2246C250.284 36.3356 250.341 36.4735 250.341 36.6382ZM146.088 52C144.166 52 143.204 51.146 143.204 49.438C143.204 48.661 143.431 48.0236 143.886 47.5259C144.384 46.9816 145.08 46.7095 145.976 46.7095C146.781 46.7095 147.519 46.8384 148.188 47.0962V51.1943H149.408V52H146.088ZM147.195 47.7676C146.837 47.5957 146.395 47.5098 145.868 47.5098C145.36 47.5098 144.959 47.6763 144.665 48.0093C144.371 48.3387 144.225 48.7773 144.225 49.3252C144.225 50.5713 144.892 51.1943 146.228 51.1943H147.195V47.7676ZM149.241 51.1943H153.785C153.835 50.7467 153.86 50.3708 153.86 50.0664C153.86 49.207 153.685 48.5858 153.334 48.2026C152.958 47.7944 152.331 47.5903 151.454 47.5903C151.017 47.5903 150.609 47.6154 150.229 47.6655V46.876C150.616 46.8151 151.053 46.7847 151.54 46.7847C152.718 46.7847 153.574 47.0568 154.107 47.6011C154.612 48.1167 154.865 48.9116 154.865 49.9858C154.865 50.6232 154.806 51.2946 154.688 52H149.241V51.1943ZM151.835 54.2451C151.671 54.2451 151.531 54.1878 151.417 54.0732C151.302 53.9587 151.245 53.8172 151.245 53.6489C151.245 53.4842 151.302 53.3446 151.417 53.23C151.531 53.1154 151.671 53.0581 151.835 53.0581C152.004 53.0581 152.147 53.1136 152.265 53.2246C152.383 53.3392 152.442 53.4806 152.442 53.6489C152.442 53.8136 152.383 53.9551 152.265 54.0732C152.147 54.1878 152.004 54.2451 151.835 54.2451ZM157.642 54.7822C157.076 54.7822 156.503 54.7267 155.923 54.6157L155.993 53.7725C156.609 53.9121 157.194 53.9819 157.749 53.9819C159.149 53.9819 159.849 53.409 159.849 52.2632V52H158.743C156.82 52 155.858 51.146 155.858 49.438C155.858 48.661 156.086 48.0236 156.541 47.5259C157.038 46.9816 157.735 46.7095 158.63 46.7095C159.436 46.7095 160.173 46.8384 160.843 47.0962V51.1943H162.051V52H160.843V52.2095C160.843 52.9328 160.605 53.5218 160.128 53.9766C159.566 54.5137 158.737 54.7822 157.642 54.7822ZM159.849 47.7676C159.491 47.5957 159.049 47.5098 158.522 47.5098C158.014 47.5098 157.613 47.6763 157.319 48.0093C157.026 48.3387 156.879 48.7773 156.879 49.3252C156.879 50.5713 157.547 51.1943 158.882 51.1943H159.849V47.7676ZM161.906 51.1943H163.448V44.2441H164.458V52H161.906V51.1943ZM166.547 44.2441H167.557V52H166.547V44.2441ZM171.8 44.2441H172.81V51.1943H174.023V52H171.8V44.2441ZM173.862 51.1943H175.13C175.223 51.1943 175.323 51.2015 175.431 51.2158L175.565 51.2319C175.282 51.0887 175.141 50.7646 175.141 50.2598C175.141 49.7083 175.325 49.2679 175.694 48.9385C176.063 48.609 176.555 48.4443 177.171 48.4443C178.471 48.4443 179.121 49.216 179.121 50.7593V51.1943H180.496V50.9795C180.496 49.626 180.229 48.6449 179.695 48.0361C179.173 47.4382 178.34 47.1392 177.198 47.1392C176.41 47.1392 175.631 47.2663 174.861 47.5205L174.754 46.7739C175.61 46.509 176.471 46.3765 177.337 46.3765C178.705 46.3765 179.726 46.731 180.399 47.4399C181.115 48.1919 181.473 49.3717 181.473 50.9795V51.1943H182.44V52H173.862V51.1943ZM178.229 50.7915C178.229 49.6815 177.851 49.1265 177.096 49.1265C176.383 49.1265 176.027 49.4613 176.027 50.1309C176.027 50.4925 176.15 50.77 176.397 50.9634C176.616 51.1353 176.904 51.2212 177.262 51.2212H178.229V50.7915ZM182.273 51.1943H183.879V46.8276H184.889V51.1943H186.597V52H182.273V51.1943ZM183.793 53.6382C183.793 53.8029 183.736 53.9425 183.622 54.0571C183.507 54.1753 183.369 54.2344 183.208 54.2344C183.043 54.2344 182.905 54.1771 182.794 54.0625C182.683 53.9515 182.628 53.8101 182.628 53.6382C182.628 53.4771 182.683 53.341 182.794 53.23C182.905 53.1154 183.043 53.0581 183.208 53.0581C183.369 53.0581 183.507 53.1136 183.622 53.2246C183.736 53.3356 183.793 53.4735 183.793 53.6382ZM185.41 53.6382C185.41 53.8029 185.355 53.9425 185.244 54.0571C185.133 54.1753 184.997 54.2344 184.835 54.2344C184.671 54.2344 184.531 54.1771 184.417 54.0625C184.302 53.9479 184.245 53.8065 184.245 53.6382C184.245 53.4771 184.302 53.341 184.417 53.23C184.531 53.1154 184.671 53.0581 184.835 53.0581C184.997 53.0581 185.133 53.1136 185.244 53.2246C185.355 53.3356 185.41 53.4735 185.41 53.6382ZM186.441 52V51.1943H187.312C187.566 51.1943 187.779 51.214 187.951 51.2534C187.406 50.9097 187.134 50.2902 187.134 49.395C187.134 48.6359 187.365 48.0093 187.827 47.5151C188.325 46.978 189.011 46.7095 189.884 46.7095C191.453 46.7095 192.237 47.5312 192.237 49.1748V52H186.441ZM191.249 49.3467C191.249 48.1221 190.765 47.5098 189.798 47.5098C189.29 47.5098 188.889 47.6781 188.595 48.0146C188.302 48.3405 188.155 48.7809 188.155 49.3359C188.155 50.5749 188.823 51.1943 190.158 51.1943H191.249V49.3467ZM189.761 45.6299C189.596 45.6299 189.456 45.5726 189.342 45.458C189.227 45.3434 189.17 45.2038 189.17 45.0391C189.17 44.8708 189.227 44.7275 189.342 44.6094C189.46 44.4912 189.6 44.4321 189.761 44.4321C189.929 44.4321 190.072 44.4894 190.19 44.604C190.309 44.7222 190.368 44.8672 190.368 45.0391C190.368 45.2038 190.309 45.3434 190.19 45.458C190.072 45.5726 189.929 45.6299 189.761 45.6299ZM196.319 54.8252C195.943 54.8252 195.562 54.7751 195.175 54.6748L195.282 53.8369C195.622 53.9622 195.993 54.0249 196.394 54.0249C196.881 54.0249 197.239 53.8906 197.468 53.6221C197.73 53.3249 197.86 52.8325 197.86 52.145V46.8276H198.87V51.1943H200.079V52H198.87V52.0537C198.87 53.9014 198.02 54.8252 196.319 54.8252ZM199.923 51.1943H201.19C201.284 51.1943 201.384 51.2015 201.491 51.2158L201.625 51.2319C201.343 51.0887 201.201 50.7646 201.201 50.2598C201.201 49.7083 201.386 49.2679 201.754 48.9385C202.123 48.609 202.616 48.4443 203.231 48.4443C204.531 48.4443 205.181 49.216 205.181 50.7593V51.1943H206.556V50.9795C206.556 49.626 206.289 48.6449 205.756 48.0361C205.233 47.4382 204.401 47.1392 203.258 47.1392C202.471 47.1392 201.692 47.2663 200.922 47.5205L200.814 46.7739C201.67 46.509 202.531 46.3765 203.398 46.3765C204.766 46.3765 205.786 46.731 206.459 47.4399C207.176 48.1919 207.534 49.3717 207.534 50.9795V51.1943H208.5V52H199.923V51.1943ZM204.29 50.7915C204.29 49.6815 203.912 49.1265 203.156 49.1265C202.444 49.1265 202.087 49.4613 202.087 50.1309C202.087 50.4925 202.211 50.77 202.458 50.9634C202.676 51.1353 202.965 51.2212 203.323 51.2212H204.29V50.7915ZM208.334 51.1943H209.854V44.2441H210.864V47.2573C210.864 48.0164 210.824 48.6735 210.746 49.2285H210.756C211.007 48.4264 211.415 47.7998 211.981 47.3486C212.518 46.9225 213.118 46.7095 213.78 46.7095C214.482 46.7095 215.025 46.9297 215.408 47.3701C215.787 47.8034 215.977 48.4157 215.977 49.207C215.977 50.0557 215.728 50.7181 215.23 51.1943H216.729V52H208.334V51.1943ZM212.867 51.1943C214.246 51.1943 214.935 50.557 214.935 49.2822C214.935 48.1006 214.484 47.5098 213.582 47.5098C212.869 47.5098 212.248 47.9019 211.718 48.686C211.234 49.3986 210.946 50.2347 210.853 51.1943H212.867ZM213.625 45.6514C213.46 45.6514 213.32 45.5941 213.206 45.4795C213.087 45.3649 213.028 45.2253 213.028 45.0605C213.028 44.8923 213.087 44.749 213.206 44.6309C213.32 44.5127 213.46 44.4536 213.625 44.4536C213.793 44.4536 213.934 44.5127 214.049 44.6309C214.171 44.7454 214.231 44.8887 214.231 45.0605C214.231 45.2253 214.171 45.3649 214.049 45.4795C213.931 45.5941 213.789 45.6514 213.625 45.6514ZM216.509 51.1943H218.722V46.8276H219.731V52H216.509V51.1943ZM219.646 53.6382C219.646 53.8029 219.59 53.9425 219.479 54.0571C219.368 54.1753 219.232 54.2344 219.071 54.2344C218.906 54.2344 218.766 54.1771 218.652 54.0625C218.537 53.9479 218.48 53.8065 218.48 53.6382C218.48 53.4771 218.537 53.341 218.652 53.23C218.766 53.1154 218.906 53.0581 219.071 53.0581C219.232 53.0581 219.368 53.1136 219.479 53.2246C219.59 53.3356 219.646 53.4735 219.646 53.6382ZM218.029 53.6382C218.029 53.8029 217.972 53.9425 217.857 54.0571C217.742 54.1753 217.604 54.2344 217.443 54.2344C217.279 54.2344 217.141 54.1771 217.03 54.0625C216.919 53.9515 216.863 53.8101 216.863 53.6382C216.863 53.4771 216.919 53.341 217.03 53.23C217.141 53.1154 217.279 53.0581 217.443 53.0581C217.604 53.0581 217.742 53.1136 217.857 53.2246C217.972 53.3356 218.029 53.4735 218.029 53.6382ZM226.214 52C224.292 52 223.33 51.146 223.33 49.438C223.33 48.661 223.557 48.0236 224.012 47.5259C224.51 46.9816 225.206 46.7095 226.102 46.7095C226.907 46.7095 227.645 46.8384 228.314 47.0962V51.1943H229.534V52H226.214ZM227.321 47.7676C226.963 47.5957 226.521 47.5098 225.994 47.5098C225.486 47.5098 225.085 47.6763 224.791 48.0093C224.497 48.3387 224.351 48.7773 224.351 49.3252C224.351 50.5713 225.018 51.1943 226.354 51.1943H227.321V47.7676ZM226.827 45.8179C226.662 45.8179 226.522 45.7624 226.408 45.6514C226.293 45.5368 226.236 45.3936 226.236 45.2217C226.236 45.0641 226.293 44.9281 226.408 44.8135C226.522 44.6989 226.662 44.6416 226.827 44.6416C226.988 44.6416 227.124 44.6971 227.235 44.8081C227.346 44.9227 227.401 45.0605 227.401 45.2217C227.401 45.39 227.346 45.5314 227.235 45.646C227.124 45.7606 226.988 45.8179 226.827 45.8179ZM225.199 45.8179C225.035 45.8179 224.897 45.7624 224.786 45.6514C224.675 45.5368 224.619 45.3936 224.619 45.2217C224.619 45.0641 224.675 44.9281 224.786 44.8135C224.897 44.6989 225.035 44.6416 225.199 44.6416C225.36 44.6416 225.498 44.6971 225.613 44.8081C225.727 44.9227 225.785 45.0605 225.785 45.2217C225.785 45.3864 225.727 45.5278 225.613 45.646C225.498 45.7606 225.36 45.8179 225.199 45.8179ZM229.367 51.1943H233.911C233.961 50.7467 233.986 50.3708 233.986 50.0664C233.986 49.207 233.811 48.5858 233.46 48.2026C233.084 47.7944 232.457 47.5903 231.58 47.5903C231.143 47.5903 230.735 47.6154 230.355 47.6655V46.876C230.742 46.8151 231.179 46.7847 231.666 46.7847C232.844 46.7847 233.7 47.0568 234.233 47.6011C234.738 48.1167 234.991 48.9116 234.991 49.9858C234.991 50.3296 234.967 50.7324 234.921 51.1943H235.936V52H229.367V51.1943ZM235.77 51.1943H237.354V46.8276H238.364V47.2573C238.364 48.0164 238.324 48.6735 238.246 49.2285H238.256C238.507 48.43 238.915 47.8034 239.481 47.3486C240.018 46.9225 240.614 46.7095 241.27 46.7095C241.975 46.7095 242.519 46.9297 242.902 47.3701C243.282 47.8034 243.472 48.4157 243.472 49.207C243.472 50.0378 243.232 50.693 242.752 51.1729C242.204 51.7243 241.373 52 240.26 52H235.77V51.1943ZM240.367 51.1943C241.739 51.1943 242.424 50.557 242.424 49.2822C242.424 48.1006 241.977 47.5098 241.082 47.5098C240.369 47.5098 239.748 47.9019 239.218 48.686C238.734 49.3986 238.443 50.2347 238.342 51.1943H240.367ZM241.06 45.6514C240.895 45.6514 240.756 45.5941 240.641 45.4795C240.523 45.3649 240.464 45.2253 240.464 45.0605C240.464 44.8923 240.523 44.749 240.641 44.6309C240.756 44.5127 240.895 44.4536 241.06 44.4536C241.228 44.4536 241.37 44.5127 241.484 44.6309C241.606 44.7454 241.667 44.8887 241.667 45.0605C241.667 45.2253 241.606 45.3649 241.484 45.4795C241.366 45.5941 241.225 45.6514 241.06 45.6514ZM244.986 44.2441H245.996V52H244.986V44.2441ZM248.843 54.7822C248.277 54.7822 247.704 54.7267 247.124 54.6157L247.194 53.7725C247.81 53.9121 248.395 53.9819 248.95 53.9819C250.35 53.9819 251.05 53.409 251.05 52.2632V52H249.944C248.021 52 247.06 51.146 247.06 49.438C247.06 48.661 247.287 48.0236 247.742 47.5259C248.239 46.9816 248.936 46.7095 249.831 46.7095C250.637 46.7095 251.374 46.8384 252.044 47.0962V52.2095C252.044 52.9328 251.806 53.5218 251.33 53.9766C250.767 54.5137 249.938 54.7822 248.843 54.7822ZM251.05 47.7676C250.692 47.5957 250.25 47.5098 249.724 47.5098C249.215 47.5098 248.814 47.6763 248.521 48.0093C248.227 48.3387 248.08 48.7773 248.08 49.3252C248.08 50.5713 248.748 51.1943 250.083 51.1943H251.05V47.7676ZM232.311 69V68.1943H235.71V61.2441H236.731V68.1943H237.934V69H232.311ZM234.609 67.2061H233.589L231.838 61.3193L232.848 61.1797L234.609 67.2061ZM237.778 69V68.1943H238.648C238.903 68.1943 239.116 68.214 239.288 68.2534C238.743 67.9097 238.471 67.2902 238.471 66.395C238.471 65.6359 238.702 65.0093 239.164 64.5151C239.662 63.978 240.347 63.7095 241.221 63.7095C242.79 63.7095 243.574 64.5312 243.574 66.1748V69H237.778ZM242.585 66.3467C242.585 65.1221 242.102 64.5098 241.135 64.5098C240.627 64.5098 240.226 64.6781 239.932 65.0146C239.639 65.3405 239.492 65.7809 239.492 66.3359C239.492 67.5749 240.16 68.1943 241.495 68.1943H242.585V66.3467ZM245.556 61.2441H246.565V68.1943H247.779V69H245.556V61.2441ZM247.618 68.1943H251.147C251.133 67.138 250.889 66.3109 250.417 65.7129C249.965 65.14 249.249 64.7139 248.268 64.4346V63.688L252.436 61.0669V62.0928L249.444 63.9297C250.347 64.2985 251.013 64.8141 251.442 65.4766C251.915 66.2106 252.151 67.1989 252.151 68.4414V69H247.618V68.1943Z" fill="#1E1E1E"/>
<circle cx="244" cy="9" r="9" fill="#1B3E5D"/>
<path d="M243.733 12V6.03809L242.46 6.54297L242.251 5.2002L244.077 4.57715H245.189V12H243.733Z" fill="white"/>
<path d="M45.5 44.5C47.3944 44.5 49.2112 43.7362 50.5508 42.3765C51.8903 41.0169 52.6429 39.1728 52.6429 37.25C52.6429 35.3272 51.8903 33.4831 50.5508 32.1235C49.2112 30.7638 47.3944 30 45.5 30C43.6056 30 41.7888 30.7638 40.4492 32.1235C39.1097 33.4831 38.3571 35.3272 38.3571 37.25C38.3571 39.1728 39.1097 41.0169 40.4492 42.3765C41.7888 43.7362 43.6056 44.5 45.5 44.5ZM42.9498 47.2188C37.4531 47.2188 33 51.7387 33 57.3178C33 58.2467 33.7422 59 34.6574 59H56.3426C57.2578 59 58 58.2467 58 57.3178C58 51.7387 53.5469 47.2188 48.0502 47.2188H42.9498Z" fill="#528379"/>
</svg>
