<svg width="13" height="13" viewBox="0 0 13 13" fill="none" xmlns="http://www.w3.org/2000/svg">
<g clip-path="url(#clip0_16_629)">
<path d="M1.03889 6.77151C0.725287 6.46769 0.725287 5.97428 1.03889 5.67046L5.05297 1.78158C5.36657 1.47776 5.87586 1.47776 6.18946 1.78158C6.50306 2.08539 6.50306 2.5788 6.18946 2.88262L2.74236 6.2222L6.18695 9.56178C6.50055 9.8656 6.50055 10.359 6.18695 10.6628C5.87335 10.9666 5.36406 10.9666 5.05046 10.6628L1.03638 6.77394L1.03889 6.77151ZM9.86987 10.6604L5.85579 6.77151C5.54219 6.46769 5.54219 5.97428 5.85579 5.67046L9.86987 1.78158C10.1835 1.47776 10.6928 1.47776 11.0064 1.78158C11.32 2.08539 11.32 2.5788 11.0064 2.88262L7.55927 6.2222L11.0039 9.56178C11.3175 9.8656 11.3175 10.359 11.0039 10.6628C10.6903 10.9666 10.181 10.9666 9.86737 10.6628L9.86987 10.6604Z" fill="#5A6167"/>
</g>
<defs>
<clipPath id="clip0_16_629">
<rect width="12.8451" height="12.4444" fill="white" transform="matrix(-1 0 0 1 12.8453 0)"/>
</clipPath>
</defs>
</svg>
