<svg width="35" height="35" viewBox="0 0 35 35" fill="none" xmlns="http://www.w3.org/2000/svg">
<path d="M30.625 32.8125H4.375C1.96191 32.8125 0 30.8506 0 28.4375V6.5625C0 4.14941 1.96191 2.1875 4.375 2.1875H13.125C14.499 2.1875 15.7979 2.83691 16.625 3.9375L17.9375 5.6875C18.3477 6.24121 18.9971 6.5625 19.6875 6.5625H30.625C33.0381 6.5625 35 8.52441 35 10.9375V28.4375C35 30.8506 33.0381 32.8125 30.625 32.8125ZM12.5781 18.5938C11.6689 18.5938 10.9375 19.3252 10.9375 20.2344C10.9375 21.1436 11.6689 21.875 12.5781 21.875H22.4219C23.3311 21.875 24.0625 21.1436 24.0625 20.2344C24.0625 19.3252 23.3311 18.5938 22.4219 18.5938H12.5781Z" fill="#55AD9B"/>
</svg>
