<svg width="38" height="34" viewBox="0 0 38 34" fill="none" xmlns="http://www.w3.org/2000/svg">
<g clip-path="url(#clip0_40_710)">
<path d="M0 4.20402C0 1.88524 1.8934 0 4.22222 0H14.7778V8.40804C14.7778 9.57072 15.7212 10.5101 16.8889 10.5101H25.3333V18.767L19.6069 24.4687C18.9274 25.1453 18.4524 25.9861 18.2215 26.9123L16.9879 31.8323C16.8361 32.4367 16.8691 33.0673 17.0736 33.6387L4.22222 33.6322C1.8934 33.6322 0 31.7469 0 29.4282V4.20402ZM25.3333 8.40804H16.8889V0L25.3333 8.40804ZM36.2715 15.4826L37.2215 16.4285C38.2507 17.4533 38.2507 19.1152 37.2215 20.1465L35.2819 22.0777L30.5979 17.4138L32.5375 15.4826C33.5667 14.4579 35.2358 14.4579 36.2715 15.4826ZM20.5767 27.3918L29.1004 18.905L33.7844 23.5688L25.2608 32.0491C24.9903 32.3184 24.6538 32.5089 24.2778 32.6009L20.3128 33.5862C19.95 33.6782 19.574 33.5731 19.3101 33.3103C19.0462 33.0476 18.9406 32.6731 19.033 32.3119L20.0226 28.364C20.1149 27.9962 20.3063 27.6546 20.5767 27.3853V27.3918Z" fill="#B45F5F"/>
</g>
<defs>
<clipPath id="clip0_40_710">
<rect width="38" height="33.6322" fill="white"/>
</clipPath>
</defs>
</svg>
