<svg width="92" height="92" viewBox="0 0 92 92" fill="none" xmlns="http://www.w3.org/2000/svg">
<circle cx="46" cy="46" r="45" fill="white" stroke="#141E27" stroke-dasharray="12 6"/>
<path d="M32.6667 33C30.6443 33 29 34.6016 29 36.5714V54.4286C29 56.3984 30.6443 58 32.6667 58H58.3333C60.3557 58 62 56.3984 62 54.4286V36.5714C62 34.6016 60.3557 33 58.3333 33H32.6667ZM37.25 47.2857H40.9167C43.449 47.2857 45.5 49.2835 45.5 51.75C45.5 52.2411 45.0875 52.6429 44.5833 52.6429H33.5833C33.0792 52.6429 32.6667 52.2411 32.6667 51.75C32.6667 49.2835 34.7177 47.2857 37.25 47.2857ZM35.4167 41.9286C35.4167 40.9814 35.803 40.073 36.4906 39.4032C37.1782 38.7334 38.1109 38.3571 39.0833 38.3571C40.0558 38.3571 40.9884 38.7334 41.6761 39.4032C42.3637 40.073 42.75 40.9814 42.75 41.9286C42.75 42.8758 42.3637 43.7842 41.6761 44.454C40.9884 45.1237 40.0558 45.5 39.0833 45.5C38.1109 45.5 37.1782 45.1237 36.4906 44.454C35.803 43.7842 35.4167 42.8758 35.4167 41.9286ZM50.0833 40.1429H57.4167C57.9208 40.1429 58.3333 40.5446 58.3333 41.0357C58.3333 41.5268 57.9208 41.9286 57.4167 41.9286H50.0833C49.5792 41.9286 49.1667 41.5268 49.1667 41.0357C49.1667 40.5446 49.5792 40.1429 50.0833 40.1429ZM50.0833 43.7143H57.4167C57.9208 43.7143 58.3333 44.1161 58.3333 44.6071C58.3333 45.0982 57.9208 45.5 57.4167 45.5H50.0833C49.5792 45.5 49.1667 45.0982 49.1667 44.6071C49.1667 44.1161 49.5792 43.7143 50.0833 43.7143ZM50.0833 47.2857H57.4167C57.9208 47.2857 58.3333 47.6875 58.3333 48.1786C58.3333 48.6696 57.9208 49.0714 57.4167 49.0714H50.0833C49.5792 49.0714 49.1667 48.6696 49.1667 48.1786C49.1667 47.6875 49.5792 47.2857 50.0833 47.2857Z" fill="#B45F5F"/>
</svg>
