<svg width="92" height="92" viewBox="0 0 92 92" fill="none" xmlns="http://www.w3.org/2000/svg">
<circle cx="46" cy="46" r="45" fill="white" stroke="#141E27" stroke-dasharray="12 6"/>
<path d="M58.4444 35.6786C58.9333 35.6786 59.3333 36.0804 59.3333 36.5714V38.3571H32.6667V36.5714C32.6667 36.0804 33.0667 35.6786 33.5556 35.6786H58.4444ZM59.3333 43.7143V54.4286C59.3333 54.9196 58.9333 55.3214 58.4444 55.3214H33.5556C33.0667 55.3214 32.6667 54.9196 32.6667 54.4286V43.7143H59.3333ZM33.5556 33C31.5944 33 30 34.6016 30 36.5714V54.4286C30 56.3984 31.5944 58 33.5556 58H58.4444C60.4056 58 62 56.3984 62 54.4286V36.5714C62 34.6016 60.4056 33 58.4444 33H33.5556ZM36.6667 49.9643C35.9278 49.9643 35.3333 50.5614 35.3333 51.3036C35.3333 52.0458 35.9278 52.6429 36.6667 52.6429H39.3333C40.0722 52.6429 40.6667 52.0458 40.6667 51.3036C40.6667 50.5614 40.0722 49.9643 39.3333 49.9643H36.6667ZM43.7778 49.9643C43.0389 49.9643 42.4444 50.5614 42.4444 51.3036C42.4444 52.0458 43.0389 52.6429 43.7778 52.6429H50C50.7389 52.6429 51.3333 52.0458 51.3333 51.3036C51.3333 50.5614 50.7389 49.9643 50 49.9643H43.7778Z" fill="#1B3E5D"/>
</svg>
