<svg width="13" height="14" viewBox="0 0 13 14" fill="none" xmlns="http://www.w3.org/2000/svg">
<path d="M12.964 4.55636C13.0502 4.7943 12.9774 5.05958 12.7916 5.22915L11.6251 6.3067C11.6547 6.5337 11.6709 6.76617 11.6709 7.00137C11.6709 7.23657 11.6547 7.46904 11.6251 7.69603L12.7916 8.77359C12.9774 8.94315 13.0502 9.20844 12.964 9.44638C12.8454 9.77183 12.7027 10.0836 12.5383 10.3845L12.4117 10.606C12.2339 10.9068 12.0346 11.1912 11.8164 11.4593C11.6574 11.6562 11.3934 11.7218 11.1564 11.6452L9.65588 11.1612C9.2949 11.4429 8.89621 11.6781 8.47057 11.8558L8.13384 13.4175C8.07996 13.6663 7.89139 13.8633 7.64355 13.9043C7.2718 13.9672 6.88927 14 6.49865 14C6.10804 14 5.72551 13.9672 5.35375 13.9043C5.10592 13.8633 4.91735 13.6663 4.86347 13.4175L4.52673 11.8558C4.1011 11.6781 3.70241 11.4429 3.34143 11.1612L1.84363 11.648C1.60657 11.7246 1.34257 11.6562 1.18363 11.462C0.965426 11.194 0.766079 10.9096 0.588283 10.6087L0.46167 10.3872C0.297344 10.0863 0.154568 9.77457 0.0360376 9.44911C-0.0501666 9.21117 0.0225681 8.94589 0.208446 8.77632L1.3749 7.69877C1.34526 7.46904 1.3291 7.23657 1.3291 7.00137C1.3291 6.76617 1.34526 6.5337 1.3749 6.3067L0.208446 5.22915C0.0225681 5.05958 -0.0501666 4.7943 0.0360376 4.55636C0.154568 4.2309 0.297344 3.91913 0.46167 3.61828L0.588283 3.39676C0.766079 3.09592 0.965426 2.81149 1.18363 2.54347C1.34257 2.34655 1.60657 2.28091 1.84363 2.35749L3.34412 2.84157C3.7051 2.55988 4.1038 2.32467 4.52943 2.1469L4.86616 0.585271C4.92004 0.336394 5.10861 0.13948 5.35645 0.0984567C5.7282 0.0328189 6.11073 0 6.50135 0C6.89196 0 7.27449 0.0328189 7.64625 0.0957218C7.89408 0.136745 8.08265 0.333659 8.13653 0.582536L8.47327 2.14417C8.8989 2.32194 9.29759 2.55714 9.65857 2.83884L11.1591 2.35476C11.3961 2.27818 11.6601 2.34655 11.8191 2.54073C12.0373 2.80875 12.2366 3.09318 12.4144 3.39402L12.541 3.61555C12.7054 3.91639 12.8481 4.22817 12.9667 4.55362L12.964 4.55636ZM6.50135 9.18929C7.07292 9.18929 7.62108 8.95878 8.02524 8.54847C8.4294 8.13815 8.65645 7.58164 8.65645 7.00137C8.65645 6.42109 8.4294 5.86459 8.02524 5.45427C7.62108 5.04395 7.07292 4.81344 6.50135 4.81344C5.92978 4.81344 5.38162 5.04395 4.97746 5.45427C4.5733 5.86459 4.34624 6.42109 4.34624 7.00137C4.34624 7.58164 4.5733 8.13815 4.97746 8.54847C5.38162 8.95878 5.92978 9.18929 6.50135 9.18929Z" fill="#1B3E5D"/>
</svg>
