<svg width="92" height="92" viewBox="0 0 92 92" fill="none" xmlns="http://www.w3.org/2000/svg">
<circle cx="46" cy="46" r="45" fill="white" stroke="#141E27" stroke-dasharray="12 6"/>
<path d="M53.9167 36.8503C53.9167 40.4222 49.0941 46.7875 46.9764 49.4108C46.4684 50.0388 45.525 50.0388 45.0236 49.4108C42.9059 46.7875 38.0833 40.4222 38.0833 36.8503C38.0833 32.513 41.626 29 46 29C50.374 29 53.9167 32.513 53.9167 36.8503ZM54.4444 42.11C54.6753 41.6586 54.8865 41.2072 55.0778 40.7624C55.1108 40.6839 55.1438 40.5988 55.1767 40.5203L62.8295 37.4849C63.8719 37.0727 65 37.8316 65 38.9437V56.6593C65 57.3004 64.6042 57.8761 64.0038 58.1181L54.4444 61.9059V42.11ZM36.0778 38.0475C36.2361 38.9699 36.5528 39.8989 36.9222 40.7624C37.1135 41.2072 37.3247 41.6586 37.5556 42.11V58.5564L29.1705 61.8863C28.1281 62.2984 27 61.5396 27 60.4274V42.7119C27 42.0708 27.3958 41.4951 27.9962 41.253L36.0844 38.0475H36.0778ZM48.6257 50.7192C49.5427 49.5809 50.9809 47.7295 52.3333 45.6819V61.991L39.6667 58.3994V45.6819C41.0191 47.7295 42.4573 49.5809 43.3743 50.7192C44.7267 52.3939 47.2733 52.3939 48.6257 50.7192ZM46 38.9437C46.6999 38.9437 47.3711 38.668 47.866 38.1773C48.3609 37.6866 48.6389 37.021 48.6389 36.327C48.6389 35.633 48.3609 34.9674 47.866 34.4766C47.3711 33.9859 46.6999 33.7102 46 33.7102C45.3001 33.7102 44.6289 33.9859 44.134 34.4766C43.6391 34.9674 43.3611 35.633 43.3611 36.327C43.3611 37.021 43.6391 37.6866 44.134 38.1773C44.6289 38.668 45.3001 38.9437 46 38.9437Z" fill="#528379"/>
</svg>
